  0
SECTION
  2
HEADER
  9
$ANGBASE
  50
0.0
  9
$ANGDIR
  70
1
  9
$MEASUREMENT
  70
0
  0
ENDSEC
  0
SECTION
  2
TABLES
  0
TABLE
  2
LTYPE
  70
4
  0
LTYPE
  5
40F
  2
CONTINUOUS
  70
0
  3
Solid line
  72
65
  73
0
  40
0.0
  0
LTYPE
  5
410
  2
DASHDOT
 70
0
  3
Dash Dot ____ _ ____ _
 72
65
 73
4
 40
2.0
 49
1.25
 49
-0.25
 49
0.25
 49
-0.25
  0
LTYPE
  5
411
  2
DASHED
 70
0
  3
Dashed __ __ __ __ __
 72
65
 73
2
 40
0.75
 49
0.5
 49
-0.25
  0
LTYPE
  5
43B
  2
DOTTED
 70
0
  3
Dotted .  .  .  .
 72
65
 73
2
 40
0.2
 49
0.0
 49
-0.2
  0
ENDTAB
  0
TABLE
  2
STYLE
  70
4
  0
STYLE
  2
KICAD
  70
0
  40
0
  41
1
  42
1
  50
0
  71
0
  3
isocp.shx
  0
STYLE
  2
KICADB
  70
0
  40
0
  41
1
  42
1
  50
0
  71
0
  3
isocp.shx
  0
STYLE
  2
KICADI
  70
0
  40
0
  41
1
  42
1
  50
15
  71
0
  3
isocp.shx
  0
STYLE
  2
KICADBI
  70
0
  40
0
  41
1
  42
1
  50
15
  71
0
  3
isocp.shx
  0
ENDTAB
  0
TABLE
  2
LAYER
  70
1
  0
LAYER
  2
BLACK
  70
0
  62
7
  6
CONTINUOUS
  0
ENDTAB
  0
ENDSEC
  0
SECTION
  2
ENTITIES
0
LINE
8
BLACK
6
CONTINUOUS
10
1.79098
20
-2.90463
11
1.79417
21
-2.90731
0
LINE
8
BLACK
6
CONTINUOUS
10
1.79417
20
-2.90731
11
1.79625
21
-2.91091
0
LINE
8
BLACK
6
CONTINUOUS
10
1.79625
20
-2.91091
11
1.79697
21
-2.915
0
LINE
8
BLACK
6
CONTINUOUS
10
1.79697
20
-2.915
11
1.79625
21
-2.91909
0
LINE
8
BLACK
6
CONTINUOUS
10
1.79625
20
-2.91909
11
1.79417
21
-2.92269
0
LINE
8
BLACK
6
CONTINUOUS
10
1.79417
20
-2.92269
11
1.79098
21
-2.92537
0
LINE
8
BLACK
6
CONTINUOUS
10
1.79098
20
-2.92537
11
1.78708
21
-2.92679
0
LINE
8
BLACK
6
CONTINUOUS
10
1.78708
20
-2.92679
11
1.78292
21
-2.92679
0
LINE
8
BLACK
6
CONTINUOUS
10
1.78292
20
-2.92679
11
1.77902
21
-2.92537
0
LINE
8
BLACK
6
CONTINUOUS
10
1.77902
20
-2.92537
11
1.77583
21
-2.92269
0
LINE
8
BLACK
6
CONTINUOUS
10
1.77583
20
-2.92269
11
1.77375
21
-2.91909
0
LINE
8
BLACK
6
CONTINUOUS
10
1.77375
20
-2.91909
11
1.77303
21
-2.915
0
LINE
8
BLACK
6
CONTINUOUS
10
1.77303
20
-2.915
11
1.77375
21
-2.91091
0
LINE
8
BLACK
6
CONTINUOUS
10
1.77375
20
-2.91091
11
1.77583
21
-2.90731
0
LINE
8
BLACK
6
CONTINUOUS
10
1.77583
20
-2.90731
11
1.77902
21
-2.90463
0
LINE
8
BLACK
6
CONTINUOUS
10
1.77902
20
-2.90463
11
1.78292
21
-2.90321
0
LINE
8
BLACK
6
CONTINUOUS
10
1.78292
20
-2.90321
11
1.78708
21
-2.90321
0
LINE
8
BLACK
6
CONTINUOUS
10
1.78708
20
-2.90321
11
1.79098
21
-2.90463
0
LINE
8
BLACK
6
CONTINUOUS
10
1.83914
20
-2.85595
11
1.83983
21
-2.85784
0
LINE
8
BLACK
6
CONTINUOUS
10
1.83983
20
-2.85784
11
1.83983
21
-2.88596
0
LINE
8
BLACK
6
CONTINUOUS
10
1.83983
20
-2.88596
11
1.83968
21
-2.88683
0
LINE
8
BLACK
6
CONTINUOUS
10
1.83968
20
-2.88683
11
1.83968
21
-2.8869
0
LINE
8
BLACK
6
CONTINUOUS
10
1.83968
20
-2.8869
11
1.8378
21
-2.89252
0
LINE
8
BLACK
6
CONTINUOUS
10
1.8378
20
-2.89252
11
1.83731
21
-2.89342
0
LINE
8
BLACK
6
CONTINUOUS
10
1.83731
20
-2.89342
11
1.83716
21
-2.89352
0
LINE
8
BLACK
6
CONTINUOUS
10
1.83716
20
-2.89352
11
1.83709
21
-2.89368
0
LINE
8
BLACK
6
CONTINUOUS
10
1.83709
20
-2.89368
11
1.83334
21
-2.89743
0
LINE
8
BLACK
6
CONTINUOUS
10
1.83334
20
-2.89743
11
1.8325
21
-2.89801
0
LINE
8
BLACK
6
CONTINUOUS
10
1.8325
20
-2.89801
11
1.83232
21
-2.89803
0
LINE
8
BLACK
6
CONTINUOUS
10
1.83232
20
-2.89803
11
1.83219
21
-2.89814
0
LINE
8
BLACK
6
CONTINUOUS
10
1.83219
20
-2.89814
11
1.82656
21
-2.90001
0
LINE
8
BLACK
6
CONTINUOUS
10
1.82656
20
-2.90001
11
1.82569
21
-2.90014
0
LINE
8
BLACK
6
CONTINUOUS
10
1.82569
20
-2.90014
11
1.82563
21
-2.90017
0
LINE
8
BLACK
6
CONTINUOUS
10
1.82563
20
-2.90017
11
1.82188
21
-2.90017
0
LINE
8
BLACK
6
CONTINUOUS
10
1.82188
20
-2.90017
11
1.82087
21
-2.89999
0
LINE
8
BLACK
6
CONTINUOUS
10
1.82087
20
-2.89999
11
1.81932
21
-2.89869
0
LINE
8
BLACK
6
CONTINUOUS
10
1.81932
20
-2.89869
11
1.81897
21
-2.8967
0
LINE
8
BLACK
6
CONTINUOUS
10
1.81897
20
-2.8967
11
1.81998
21
-2.89495
0
LINE
8
BLACK
6
CONTINUOUS
10
1.81998
20
-2.89495
11
1.82188
21
-2.89426
0
LINE
8
BLACK
6
CONTINUOUS
10
1.82188
20
-2.89426
11
1.82515
21
-2.89426
0
LINE
8
BLACK
6
CONTINUOUS
10
1.82515
20
-2.89426
11
1.82966
21
-2.89276
0
LINE
8
BLACK
6
CONTINUOUS
10
1.82966
20
-2.89276
11
1.83242
21
-2.88999
0
LINE
8
BLACK
6
CONTINUOUS
10
1.83242
20
-2.88999
11
1.83392
21
-2.88549
0
LINE
8
BLACK
6
CONTINUOUS
10
1.83392
20
-2.88549
11
1.83392
21
-2.85784
0
LINE
8
BLACK
6
CONTINUOUS
10
1.83392
20
-2.85784
11
1.8341
21
-2.85683
0
LINE
8
BLACK
6
CONTINUOUS
10
1.8341
20
-2.85683
11
1.8354
21
-2.85529
0
LINE
8
BLACK
6
CONTINUOUS
10
1.8354
20
-2.85529
11
1.83739
21
-2.85494
0
LINE
8
BLACK
6
CONTINUOUS
10
1.83739
20
-2.85494
11
1.83914
21
-2.85595
0
LINE
8
BLACK
6
CONTINUOUS
10
1.86534
20
-2.85496
11
1.86551
21
-2.85494
0
LINE
8
BLACK
6
CONTINUOUS
10
1.86551
20
-2.85494
11
1.86625
21
-2.85536
0
LINE
8
BLACK
6
CONTINUOUS
10
1.86625
20
-2.85536
11
1.86704
21
-2.85571
0
LINE
8
BLACK
6
CONTINUOUS
10
1.86704
20
-2.85571
11
1.86711
21
-2.85586
0
LINE
8
BLACK
6
CONTINUOUS
10
1.86711
20
-2.85586
11
1.86726
21
-2.85595
0
LINE
8
BLACK
6
CONTINUOUS
10
1.86726
20
-2.85595
11
1.86755
21
-2.85675
0
LINE
8
BLACK
6
CONTINUOUS
10
1.86755
20
-2.85675
11
1.86793
21
-2.85752
0
LINE
8
BLACK
6
CONTINUOUS
10
1.86793
20
-2.85752
11
1.86789
21
-2.85768
0
LINE
8
BLACK
6
CONTINUOUS
10
1.86789
20
-2.85768
11
1.86795
21
-2.85784
0
LINE
8
BLACK
6
CONTINUOUS
10
1.86795
20
-2.85784
11
1.86795
21
-2.89426
0
LINE
8
BLACK
6
CONTINUOUS
10
1.86795
20
-2.89426
11
1.87625
21
-2.89426
0
LINE
8
BLACK
6
CONTINUOUS
10
1.87625
20
-2.89426
11
1.87726
21
-2.89444
0
LINE
8
BLACK
6
CONTINUOUS
10
1.87726
20
-2.89444
11
1.8788
21
-2.89574
0
LINE
8
BLACK
6
CONTINUOUS
10
1.8788
20
-2.89574
11
1.87915
21
-2.89773
0
LINE
8
BLACK
6
CONTINUOUS
10
1.87915
20
-2.89773
11
1.87814
21
-2.89948
0
LINE
8
BLACK
6
CONTINUOUS
10
1.87814
20
-2.89948
11
1.87625
21
-2.90017
0
LINE
8
BLACK
6
CONTINUOUS
10
1.87625
20
-2.90017
11
1.85375
21
-2.90017
0
LINE
8
BLACK
6
CONTINUOUS
10
1.85375
20
-2.90017
11
1.85274
21
-2.89999
0
LINE
8
BLACK
6
CONTINUOUS
10
1.85274
20
-2.89999
11
1.85119
21
-2.89869
0
LINE
8
BLACK
6
CONTINUOUS
10
1.85119
20
-2.89869
11
1.85084
21
-2.8967
0
LINE
8
BLACK
6
CONTINUOUS
10
1.85084
20
-2.8967
11
1.85185
21
-2.89495
0
LINE
8
BLACK
6
CONTINUOUS
10
1.85185
20
-2.89495
11
1.85375
21
-2.89426
0
LINE
8
BLACK
6
CONTINUOUS
10
1.85375
20
-2.89426
11
1.86205
21
-2.89426
0
LINE
8
BLACK
6
CONTINUOUS
10
1.86205
20
-2.89426
11
1.86205
21
-2.86685
0
LINE
8
BLACK
6
CONTINUOUS
10
1.86205
20
-2.86685
11
1.85959
21
-2.8693
0
LINE
8
BLACK
6
CONTINUOUS
10
1.85959
20
-2.8693
11
1.85886
21
-2.86981
0
LINE
8
BLACK
6
CONTINUOUS
10
1.85886
20
-2.86981
11
1.85882
21
-2.86986
0
LINE
8
BLACK
6
CONTINUOUS
10
1.85882
20
-2.86986
11
1.85507
21
-2.87173
0
LINE
8
BLACK
6
CONTINUOUS
10
1.85507
20
-2.87173
11
1.85409
21
-2.87203
0
LINE
8
BLACK
6
CONTINUOUS
10
1.85409
20
-2.87203
11
1.85212
21
-2.87156
0
LINE
8
BLACK
6
CONTINUOUS
10
1.85212
20
-2.87156
11
1.85092
21
-2.86993
0
LINE
8
BLACK
6
CONTINUOUS
10
1.85092
20
-2.86993
11
1.85104
21
-2.86792
0
LINE
8
BLACK
6
CONTINUOUS
10
1.85104
20
-2.86792
11
1.85243
21
-2.86645
0
LINE
8
BLACK
6
CONTINUOUS
10
1.85243
20
-2.86645
11
1.85575
21
-2.86479
0
LINE
8
BLACK
6
CONTINUOUS
10
1.85575
20
-2.86479
11
1.85895
21
-2.86159
0
LINE
8
BLACK
6
CONTINUOUS
10
1.85895
20
-2.86159
11
1.86254
21
-2.85621
0
LINE
8
BLACK
6
CONTINUOUS
10
1.86254
20
-2.85621
11
1.86325
21
-2.85546
0
LINE
8
BLACK
6
CONTINUOUS
10
1.86325
20
-2.85546
11
1.86341
21
-2.85542
0
LINE
8
BLACK
6
CONTINUOUS
10
1.86341
20
-2.85542
11
1.86352
21
-2.85529
0
LINE
8
BLACK
6
CONTINUOUS
10
1.86352
20
-2.85529
11
1.86437
21
-2.85514
0
LINE
8
BLACK
6
CONTINUOUS
10
1.86437
20
-2.85514
11
1.86519
21
-2.8549
0
LINE
8
BLACK
6
CONTINUOUS
10
1.86519
20
-2.8549
11
1.86534
21
-2.85496
0
LINE
8
BLACK
6
CONTINUOUS
10
1.96295
20
-2.851
11
1.96334
21
-2.85094
0
LINE
8
BLACK
6
CONTINUOUS
10
1.96334
20
-2.85094
11
1.9639
21
-2.85126
0
LINE
8
BLACK
6
CONTINUOUS
10
1.9639
20
-2.85126
11
1.96452
21
-2.85142
0
LINE
8
BLACK
6
CONTINUOUS
10
1.96452
20
-2.85142
11
1.96475
21
-2.85175
0
LINE
8
BLACK
6
CONTINUOUS
10
1.96475
20
-2.85175
11
1.96509
21
-2.85195
0
LINE
8
BLACK
6
CONTINUOUS
10
1.96509
20
-2.85195
11
1.96531
21
-2.85255
0
LINE
8
BLACK
6
CONTINUOUS
10
1.96531
20
-2.85255
11
1.96568
21
-2.85308
0
LINE
8
BLACK
6
CONTINUOUS
10
1.96568
20
-2.85308
11
1.96564
21
-2.85347
0
LINE
8
BLACK
6
CONTINUOUS
10
1.96564
20
-2.85347
11
1.96578
21
-2.85384
0
LINE
8
BLACK
6
CONTINUOUS
10
1.96578
20
-2.85384
11
1.96578
21
-2.89321
0
LINE
8
BLACK
6
CONTINUOUS
10
1.96578
20
-2.89321
11
1.9656
21
-2.89422
0
LINE
8
BLACK
6
CONTINUOUS
10
1.9656
20
-2.89422
11
1.9643
21
-2.89577
0
LINE
8
BLACK
6
CONTINUOUS
10
1.9643
20
-2.89577
11
1.96231
21
-2.89612
0
LINE
8
BLACK
6
CONTINUOUS
10
1.96231
20
-2.89612
11
1.96057
21
-2.89511
0
LINE
8
BLACK
6
CONTINUOUS
10
1.96057
20
-2.89511
11
1.95987
21
-2.89321
0
LINE
8
BLACK
6
CONTINUOUS
10
1.95987
20
-2.89321
11
1.95987
21
-2.86715
0
LINE
8
BLACK
6
CONTINUOUS
10
1.95987
20
-2.86715
11
1.95238
21
-2.88321
0
LINE
8
BLACK
6
CONTINUOUS
10
1.95238
20
-2.88321
11
1.95216
21
-2.88353
0
LINE
8
BLACK
6
CONTINUOUS
10
1.95216
20
-2.88353
11
1.95212
21
-2.88366
0
LINE
8
BLACK
6
CONTINUOUS
10
1.95212
20
-2.88366
11
1.95202
21
-2.88373
0
LINE
8
BLACK
6
CONTINUOUS
10
1.95202
20
-2.88373
11
1.95179
21
-2.88405
0
LINE
8
BLACK
6
CONTINUOUS
10
1.95179
20
-2.88405
11
1.9511
21
-2.88438
0
LINE
8
BLACK
6
CONTINUOUS
10
1.9511
20
-2.88438
11
1.95047
21
-2.88482
0
LINE
8
BLACK
6
CONTINUOUS
10
1.95047
20
-2.88482
11
1.9502
21
-2.88479
0
LINE
8
BLACK
6
CONTINUOUS
10
1.9502
20
-2.88479
11
1.94996
21
-2.88491
0
LINE
8
BLACK
6
CONTINUOUS
10
1.94996
20
-2.88491
11
1.94922
21
-2.88471
0
LINE
8
BLACK
6
CONTINUOUS
10
1.94922
20
-2.88471
11
1.94846
21
-2.88464
0
LINE
8
BLACK
6
CONTINUOUS
10
1.94846
20
-2.88464
11
1.94827
21
-2.88445
0
LINE
8
BLACK
6
CONTINUOUS
10
1.94827
20
-2.88445
11
1.94801
21
-2.88438
0
LINE
8
BLACK
6
CONTINUOUS
10
1.94801
20
-2.88438
11
1.94757
21
-2.88376
0
LINE
8
BLACK
6
CONTINUOUS
10
1.94757
20
-2.88376
11
1.94703
21
-2.88321
0
LINE
8
BLACK
6
CONTINUOUS
10
1.94703
20
-2.88321
11
1.93953
21
-2.86715
0
LINE
8
BLACK
6
CONTINUOUS
10
1.93953
20
-2.86715
11
1.93953
21
-2.89321
0
LINE
8
BLACK
6
CONTINUOUS
10
1.93953
20
-2.89321
11
1.93936
21
-2.89422
0
LINE
8
BLACK
6
CONTINUOUS
10
1.93936
20
-2.89422
11
1.93806
21
-2.89577
0
LINE
8
BLACK
6
CONTINUOUS
10
1.93806
20
-2.89577
11
1.93607
21
-2.89612
0
LINE
8
BLACK
6
CONTINUOUS
10
1.93607
20
-2.89612
11
1.93432
21
-2.89511
0
LINE
8
BLACK
6
CONTINUOUS
10
1.93432
20
-2.89511
11
1.93363
21
-2.89321
0
LINE
8
BLACK
6
CONTINUOUS
10
1.93363
20
-2.89321
11
1.93363
21
-2.85384
0
LINE
8
BLACK
6
CONTINUOUS
10
1.93363
20
-2.85384
11
1.93381
21
-2.85283
0
LINE
8
BLACK
6
CONTINUOUS
10
1.93381
20
-2.85283
11
1.93406
21
-2.85253
0
LINE
8
BLACK
6
CONTINUOUS
10
1.93406
20
-2.85253
11
1.93416
21
-2.85215
0
LINE
8
BLACK
6
CONTINUOUS
10
1.93416
20
-2.85215
11
1.93469
21
-2.85178
0
LINE
8
BLACK
6
CONTINUOUS
10
1.93469
20
-2.85178
11
1.9351
21
-2.85129
0
LINE
8
BLACK
6
CONTINUOUS
10
1.9351
20
-2.85129
11
1.93549
21
-2.85122
0
LINE
8
BLACK
6
CONTINUOUS
10
1.93549
20
-2.85122
11
1.93582
21
-2.85099
0
LINE
8
BLACK
6
CONTINUOUS
10
1.93582
20
-2.85099
11
1.93646
21
-2.85105
0
LINE
8
BLACK
6
CONTINUOUS
10
1.93646
20
-2.85105
11
1.93709
21
-2.85094
0
LINE
8
BLACK
6
CONTINUOUS
10
1.93709
20
-2.85094
11
1.93743
21
-2.85113
0
LINE
8
BLACK
6
CONTINUOUS
10
1.93743
20
-2.85113
11
1.93783
21
-2.85117
0
LINE
8
BLACK
6
CONTINUOUS
10
1.93783
20
-2.85117
11
1.93828
21
-2.85162
0
LINE
8
BLACK
6
CONTINUOUS
10
1.93828
20
-2.85162
11
1.93884
21
-2.85195
0
LINE
8
BLACK
6
CONTINUOUS
10
1.93884
20
-2.85195
11
1.93898
21
-2.85232
0
LINE
8
BLACK
6
CONTINUOUS
10
1.93898
20
-2.85232
11
1.93926
21
-2.85259
0
LINE
8
BLACK
6
CONTINUOUS
10
1.93926
20
-2.85259
11
1.9497
21
-2.87498
0
LINE
8
BLACK
6
CONTINUOUS
10
1.9497
20
-2.87498
11
1.96015
21
-2.85259
0
LINE
8
BLACK
6
CONTINUOUS
10
1.96015
20
-2.85259
11
1.96074
21
-2.85175
0
LINE
8
BLACK
6
CONTINUOUS
10
1.96074
20
-2.85175
11
1.9611
21
-2.85159
0
LINE
8
BLACK
6
CONTINUOUS
10
1.9611
20
-2.85159
11
1.96135
21
-2.85129
0
LINE
8
BLACK
6
CONTINUOUS
10
1.96135
20
-2.85129
11
1.96199
21
-2.85117
0
LINE
8
BLACK
6
CONTINUOUS
10
1.96199
20
-2.85117
11
1.96257
21
-2.8509
0
LINE
8
BLACK
6
CONTINUOUS
10
1.96257
20
-2.8509
11
1.96295
21
-2.851
0
LINE
8
BLACK
6
CONTINUOUS
10
1.99383
20
-2.86419
11
1.99397
21
-2.86431
0
LINE
8
BLACK
6
CONTINUOUS
10
1.99397
20
-2.86431
11
1.99414
21
-2.86433
0
LINE
8
BLACK
6
CONTINUOUS
10
1.99414
20
-2.86433
11
1.99789
21
-2.8662
0
LINE
8
BLACK
6
CONTINUOUS
10
1.99789
20
-2.8662
11
1.9986
21
-2.86673
0
LINE
8
BLACK
6
CONTINUOUS
10
1.9986
20
-2.86673
11
1.99866
21
-2.86675
0
LINE
8
BLACK
6
CONTINUOUS
10
1.99866
20
-2.86675
11
2.00054
21
-2.86863
0
LINE
8
BLACK
6
CONTINUOUS
10
2.00054
20
-2.86863
11
2.00104
21
-2.86935
0
LINE
8
BLACK
6
CONTINUOUS
10
2.00104
20
-2.86935
11
2.00109
21
-2.8694
0
LINE
8
BLACK
6
CONTINUOUS
10
2.00109
20
-2.8694
11
2.00296
21
-2.87315
0
LINE
8
BLACK
6
CONTINUOUS
10
2.00296
20
-2.87315
11
2.00326
21
-2.87413
0
LINE
8
BLACK
6
CONTINUOUS
10
2.00326
20
-2.87413
11
2.00321
21
-2.8743
0
LINE
8
BLACK
6
CONTINUOUS
10
2.00321
20
-2.8743
11
2.00328
21
-2.87447
0
LINE
8
BLACK
6
CONTINUOUS
10
2.00328
20
-2.87447
11
2.00328
21
-2.88571
0
LINE
8
BLACK
6
CONTINUOUS
10
2.00328
20
-2.88571
11
2.0031
21
-2.88672
0
LINE
8
BLACK
6
CONTINUOUS
10
2.0031
20
-2.88672
11
2.00298
21
-2.88686
0
LINE
8
BLACK
6
CONTINUOUS
10
2.00298
20
-2.88686
11
2.00296
21
-2.88703
0
LINE
8
BLACK
6
CONTINUOUS
10
2.00296
20
-2.88703
11
2.00109
21
-2.89078
0
LINE
8
BLACK
6
CONTINUOUS
10
2.00109
20
-2.89078
11
2.00056
21
-2.89149
0
LINE
8
BLACK
6
CONTINUOUS
10
2.00056
20
-2.89149
11
2.00054
21
-2.89155
0
LINE
8
BLACK
6
CONTINUOUS
10
2.00054
20
-2.89155
11
1.99866
21
-2.89343
0
LINE
8
BLACK
6
CONTINUOUS
10
1.99866
20
-2.89343
11
1.99794
21
-2.89393
0
LINE
8
BLACK
6
CONTINUOUS
10
1.99794
20
-2.89393
11
1.99789
21
-2.89398
0
LINE
8
BLACK
6
CONTINUOUS
10
1.99789
20
-2.89398
11
1.99414
21
-2.89585
0
LINE
8
BLACK
6
CONTINUOUS
10
1.99414
20
-2.89585
11
1.99316
21
-2.89615
0
LINE
8
BLACK
6
CONTINUOUS
10
1.99316
20
-2.89615
11
1.99299
21
-2.89611
0
LINE
8
BLACK
6
CONTINUOUS
10
1.99299
20
-2.89611
11
1.99282
21
-2.89617
0
LINE
8
BLACK
6
CONTINUOUS
10
1.99282
20
-2.89617
11
1.9872
21
-2.89617
0
LINE
8
BLACK
6
CONTINUOUS
10
1.9872
20
-2.89617
11
1.98619
21
-2.89599
0
LINE
8
BLACK
6
CONTINUOUS
10
1.98619
20
-2.89599
11
1.98605
21
-2.89587
0
LINE
8
BLACK
6
CONTINUOUS
10
1.98605
20
-2.89587
11
1.98588
21
-2.89585
0
LINE
8
BLACK
6
CONTINUOUS
10
1.98588
20
-2.89585
11
1.98213
21
-2.89398
0
LINE
8
BLACK
6
CONTINUOUS
10
1.98213
20
-2.89398
11
1.98142
21
-2.89345
0
LINE
8
BLACK
6
CONTINUOUS
10
1.98142
20
-2.89345
11
1.98136
21
-2.89343
0
LINE
8
BLACK
6
CONTINUOUS
10
1.98136
20
-2.89343
11
1.97949
21
-2.89155
0
LINE
8
BLACK
6
CONTINUOUS
10
1.97949
20
-2.89155
11
1.97898
21
-2.89083
0
LINE
8
BLACK
6
CONTINUOUS
10
1.97898
20
-2.89083
11
1.97893
21
-2.89078
0
LINE
8
BLACK
6
CONTINUOUS
10
1.97893
20
-2.89078
11
1.97706
21
-2.88703
0
LINE
8
BLACK
6
CONTINUOUS
10
1.97706
20
-2.88703
11
1.97677
21
-2.88605
0
LINE
8
BLACK
6
CONTINUOUS
10
1.97677
20
-2.88605
11
1.97681
21
-2.88588
0
LINE
8
BLACK
6
CONTINUOUS
10
1.97681
20
-2.88588
11
1.97675
21
-2.88571
0
LINE
8
BLACK
6
CONTINUOUS
10
1.97675
20
-2.88571
11
1.97675
21
-2.87447
0
LINE
8
BLACK
6
CONTINUOUS
10
1.97675
20
-2.87447
11
1.97693
21
-2.87346
0
LINE
8
BLACK
6
CONTINUOUS
10
1.97693
20
-2.87346
11
1.97704
21
-2.87332
0
LINE
8
BLACK
6
CONTINUOUS
10
1.97704
20
-2.87332
11
1.97706
21
-2.87315
0
LINE
8
BLACK
6
CONTINUOUS
10
1.97706
20
-2.87315
11
1.97893
21
-2.8694
0
LINE
8
BLACK
6
CONTINUOUS
10
1.97893
20
-2.8694
11
1.97946
21
-2.86869
0
LINE
8
BLACK
6
CONTINUOUS
10
1.97946
20
-2.86869
11
1.97949
21
-2.86863
0
LINE
8
BLACK
6
CONTINUOUS
10
1.97949
20
-2.86863
11
1.98136
21
-2.86675
0
LINE
8
BLACK
6
CONTINUOUS
10
1.98136
20
-2.86675
11
1.98208
21
-2.86625
0
LINE
8
BLACK
6
CONTINUOUS
10
1.98208
20
-2.86625
11
1.98213
21
-2.8662
0
LINE
8
BLACK
6
CONTINUOUS
10
1.98213
20
-2.8662
11
1.98588
21
-2.86433
0
LINE
8
BLACK
6
CONTINUOUS
10
1.98588
20
-2.86433
11
1.98686
21
-2.86403
0
LINE
8
BLACK
6
CONTINUOUS
10
1.98686
20
-2.86403
11
1.98703
21
-2.86407
0
LINE
8
BLACK
6
CONTINUOUS
10
1.98703
20
-2.86407
11
1.9872
21
-2.86401
0
LINE
8
BLACK
6
CONTINUOUS
10
1.9872
20
-2.86401
11
1.99282
21
-2.86401
0
LINE
8
BLACK
6
CONTINUOUS
10
1.99282
20
-2.86401
11
1.99383
21
-2.86419
0
LINE
8
BLACK
6
CONTINUOUS
10
1.9852
20
-2.87127
11
1.984
21
-2.87247
0
LINE
8
BLACK
6
CONTINUOUS
10
1.984
20
-2.87247
11
1.98265
21
-2.87516
0
LINE
8
BLACK
6
CONTINUOUS
10
1.98265
20
-2.87516
11
1.98265
21
-2.88502
0
LINE
8
BLACK
6
CONTINUOUS
10
1.98265
20
-2.88502
11
1.984
21
-2.88771
0
LINE
8
BLACK
6
CONTINUOUS
10
1.984
20
-2.88771
11
1.9852
21
-2.88891
0
LINE
8
BLACK
6
CONTINUOUS
10
1.9852
20
-2.88891
11
1.9879
21
-2.89026
0
LINE
8
BLACK
6
CONTINUOUS
10
1.9879
20
-2.89026
11
1.99213
21
-2.89026
0
LINE
8
BLACK
6
CONTINUOUS
10
1.99213
20
-2.89026
11
1.99482
21
-2.88891
0
LINE
8
BLACK
6
CONTINUOUS
10
1.99482
20
-2.88891
11
1.99602
21
-2.88771
0
LINE
8
BLACK
6
CONTINUOUS
10
1.99602
20
-2.88771
11
1.99737
21
-2.88502
0
LINE
8
BLACK
6
CONTINUOUS
10
1.99737
20
-2.88502
11
1.99737
21
-2.87516
0
LINE
8
BLACK
6
CONTINUOUS
10
1.99737
20
-2.87516
11
1.99602
21
-2.87247
0
LINE
8
BLACK
6
CONTINUOUS
10
1.99602
20
-2.87247
11
1.99482
21
-2.87127
0
LINE
8
BLACK
6
CONTINUOUS
10
1.99482
20
-2.87127
11
1.99213
21
-2.86992
0
LINE
8
BLACK
6
CONTINUOUS
10
1.99213
20
-2.86992
11
1.9879
21
-2.86992
0
LINE
8
BLACK
6
CONTINUOUS
10
1.9879
20
-2.86992
11
1.9852
21
-2.87127
0
LINE
8
BLACK
6
CONTINUOUS
10
2.0632
20
-2.86419
11
2.06333
21
-2.86431
0
LINE
8
BLACK
6
CONTINUOUS
10
2.06333
20
-2.86431
11
2.06351
21
-2.86433
0
LINE
8
BLACK
6
CONTINUOUS
10
2.06351
20
-2.86433
11
2.06726
21
-2.8662
0
LINE
8
BLACK
6
CONTINUOUS
10
2.06726
20
-2.8662
11
2.06808
21
-2.86681
0
LINE
8
BLACK
6
CONTINUOUS
10
2.06808
20
-2.86681
11
2.06889
21
-2.86866
0
LINE
8
BLACK
6
CONTINUOUS
10
2.06889
20
-2.86866
11
2.06831
21
-2.8706
0
LINE
8
BLACK
6
CONTINUOUS
10
2.06831
20
-2.8706
11
2.06663
21
-2.87171
0
LINE
8
BLACK
6
CONTINUOUS
10
2.06663
20
-2.87171
11
2.06462
21
-2.87148
0
LINE
8
BLACK
6
CONTINUOUS
10
2.06462
20
-2.87148
11
2.06149
21
-2.86992
0
LINE
8
BLACK
6
CONTINUOUS
10
2.06149
20
-2.86992
11
2.05726
21
-2.86992
0
LINE
8
BLACK
6
CONTINUOUS
10
2.05726
20
-2.86992
11
2.05502
21
-2.87104
0
LINE
8
BLACK
6
CONTINUOUS
10
2.05502
20
-2.87104
11
2.05389
21
-2.87329
0
LINE
8
BLACK
6
CONTINUOUS
10
2.05389
20
-2.87329
11
2.05389
21
-2.87377
0
LINE
8
BLACK
6
CONTINUOUS
10
2.05389
20
-2.87377
11
2.05502
21
-2.87601
0
LINE
8
BLACK
6
CONTINUOUS
10
2.05502
20
-2.87601
11
2.05726
21
-2.87714
0
LINE
8
BLACK
6
CONTINUOUS
10
2.05726
20
-2.87714
11
2.06219
21
-2.87714
0
LINE
8
BLACK
6
CONTINUOUS
10
2.06219
20
-2.87714
11
2.0632
21
-2.87732
0
LINE
8
BLACK
6
CONTINUOUS
10
2.0632
20
-2.87732
11
2.06333
21
-2.87743
0
LINE
8
BLACK
6
CONTINUOUS
10
2.06333
20
-2.87743
11
2.06351
21
-2.87745
0
LINE
8
BLACK
6
CONTINUOUS
10
2.06351
20
-2.87745
11
2.06726
21
-2.87932
0
LINE
8
BLACK
6
CONTINUOUS
10
2.06726
20
-2.87932
11
2.06808
21
-2.87993
0
LINE
8
BLACK
6
CONTINUOUS
10
2.06808
20
-2.87993
11
2.06826
21
-2.88034
0
LINE
8
BLACK
6
CONTINUOUS
10
2.06826
20
-2.88034
11
2.06858
21
-2.88064
0
LINE
8
BLACK
6
CONTINUOUS
10
2.06858
20
-2.88064
11
2.07045
21
-2.88439
0
LINE
8
BLACK
6
CONTINUOUS
10
2.07045
20
-2.88439
11
2.07075
21
-2.88538
0
LINE
8
BLACK
6
CONTINUOUS
10
2.07075
20
-2.88538
11
2.07071
21
-2.88555
0
LINE
8
BLACK
6
CONTINUOUS
10
2.07071
20
-2.88555
11
2.07077
21
-2.88571
0
LINE
8
BLACK
6
CONTINUOUS
10
2.07077
20
-2.88571
11
2.07077
21
-2.88759
0
LINE
8
BLACK
6
CONTINUOUS
10
2.07077
20
-2.88759
11
2.07059
21
-2.8886
0
LINE
8
BLACK
6
CONTINUOUS
10
2.07059
20
-2.8886
11
2.07048
21
-2.88873
0
LINE
8
BLACK
6
CONTINUOUS
10
2.07048
20
-2.88873
11
2.07045
21
-2.88891
0
LINE
8
BLACK
6
CONTINUOUS
10
2.07045
20
-2.88891
11
2.06858
21
-2.89266
0
LINE
8
BLACK
6
CONTINUOUS
10
2.06858
20
-2.89266
11
2.06797
21
-2.89348
0
LINE
8
BLACK
6
CONTINUOUS
10
2.06797
20
-2.89348
11
2.06756
21
-2.89366
0
LINE
8
BLACK
6
CONTINUOUS
10
2.06756
20
-2.89366
11
2.06726
21
-2.89398
0
LINE
8
BLACK
6
CONTINUOUS
10
2.06726
20
-2.89398
11
2.06351
21
-2.89585
0
LINE
8
BLACK
6
CONTINUOUS
10
2.06351
20
-2.89585
11
2.06253
21
-2.89615
0
LINE
8
BLACK
6
CONTINUOUS
10
2.06253
20
-2.89615
11
2.06236
21
-2.89611
0
LINE
8
BLACK
6
CONTINUOUS
10
2.06236
20
-2.89611
11
2.06219
21
-2.89617
0
LINE
8
BLACK
6
CONTINUOUS
10
2.06219
20
-2.89617
11
2.05469
21
-2.89617
0
LINE
8
BLACK
6
CONTINUOUS
10
2.05469
20
-2.89617
11
2.05368
21
-2.89599
0
LINE
8
BLACK
6
CONTINUOUS
10
2.05368
20
-2.89599
11
2.05355
21
-2.89587
0
LINE
8
BLACK
6
CONTINUOUS
10
2.05355
20
-2.89587
11
2.05337
21
-2.89585
0
LINE
8
BLACK
6
CONTINUOUS
10
2.05337
20
-2.89585
11
2.04962
21
-2.89398
0
LINE
8
BLACK
6
CONTINUOUS
10
2.04962
20
-2.89398
11
2.0488
21
-2.89337
0
LINE
8
BLACK
6
CONTINUOUS
10
2.0488
20
-2.89337
11
2.04799
21
-2.89152
0
LINE
8
BLACK
6
CONTINUOUS
10
2.04799
20
-2.89152
11
2.04857
21
-2.88958
0
LINE
8
BLACK
6
CONTINUOUS
10
2.04857
20
-2.88958
11
2.05026
21
-2.88847
0
LINE
8
BLACK
6
CONTINUOUS
10
2.05026
20
-2.88847
11
2.05226
21
-2.8887
0
LINE
8
BLACK
6
CONTINUOUS
10
2.05226
20
-2.8887
11
2.05539
21
-2.89026
0
LINE
8
BLACK
6
CONTINUOUS
10
2.05539
20
-2.89026
11
2.06149
21
-2.89026
0
LINE
8
BLACK
6
CONTINUOUS
10
2.06149
20
-2.89026
11
2.06374
21
-2.88914
0
LINE
8
BLACK
6
CONTINUOUS
10
2.06374
20
-2.88914
11
2.06486
21
-2.88689
0
LINE
8
BLACK
6
CONTINUOUS
10
2.06486
20
-2.88689
11
2.06486
21
-2.88641
0
LINE
8
BLACK
6
CONTINUOUS
10
2.06486
20
-2.88641
11
2.06374
21
-2.88417
0
LINE
8
BLACK
6
CONTINUOUS
10
2.06374
20
-2.88417
11
2.06149
21
-2.88304
0
LINE
8
BLACK
6
CONTINUOUS
10
2.06149
20
-2.88304
11
2.05657
21
-2.88304
0
LINE
8
BLACK
6
CONTINUOUS
10
2.05657
20
-2.88304
11
2.05556
21
-2.88286
0
LINE
8
BLACK
6
CONTINUOUS
10
2.05556
20
-2.88286
11
2.05542
21
-2.88275
0
LINE
8
BLACK
6
CONTINUOUS
10
2.05542
20
-2.88275
11
2.05524
21
-2.88273
0
LINE
8
BLACK
6
CONTINUOUS
10
2.05524
20
-2.88273
11
2.0515
21
-2.88086
0
LINE
8
BLACK
6
CONTINUOUS
10
2.0515
20
-2.88086
11
2.05067
21
-2.88025
0
LINE
8
BLACK
6
CONTINUOUS
10
2.05067
20
-2.88025
11
2.0505
21
-2.87984
0
LINE
8
BLACK
6
CONTINUOUS
10
2.0505
20
-2.87984
11
2.05017
21
-2.87954
0
LINE
8
BLACK
6
CONTINUOUS
10
2.05017
20
-2.87954
11
2.0483
21
-2.87579
0
LINE
8
BLACK
6
CONTINUOUS
10
2.0483
20
-2.87579
11
2.04801
21
-2.8748
0
LINE
8
BLACK
6
CONTINUOUS
10
2.04801
20
-2.8748
11
2.04805
21
-2.87463
0
LINE
8
BLACK
6
CONTINUOUS
10
2.04805
20
-2.87463
11
2.04799
21
-2.87447
0
LINE
8
BLACK
6
CONTINUOUS
10
2.04799
20
-2.87447
11
2.04799
21
-2.87259
0
LINE
8
BLACK
6
CONTINUOUS
10
2.04799
20
-2.87259
11
2.04817
21
-2.87158
0
LINE
8
BLACK
6
CONTINUOUS
10
2.04817
20
-2.87158
11
2.04828
21
-2.87145
0
LINE
8
BLACK
6
CONTINUOUS
10
2.04828
20
-2.87145
11
2.0483
21
-2.87127
0
LINE
8
BLACK
6
CONTINUOUS
10
2.0483
20
-2.87127
11
2.05017
21
-2.86752
0
LINE
8
BLACK
6
CONTINUOUS
10
2.05017
20
-2.86752
11
2.05079
21
-2.8667
0
LINE
8
BLACK
6
CONTINUOUS
10
2.05079
20
-2.8667
11
2.05119
21
-2.86652
0
LINE
8
BLACK
6
CONTINUOUS
10
2.05119
20
-2.86652
11
2.0515
21
-2.8662
0
LINE
8
BLACK
6
CONTINUOUS
10
2.0515
20
-2.8662
11
2.05524
21
-2.86433
0
LINE
8
BLACK
6
CONTINUOUS
10
2.05524
20
-2.86433
11
2.05623
21
-2.86403
0
LINE
8
BLACK
6
CONTINUOUS
10
2.05623
20
-2.86403
11
2.0564
21
-2.86407
0
LINE
8
BLACK
6
CONTINUOUS
10
2.0564
20
-2.86407
11
2.05657
21
-2.86401
0
LINE
8
BLACK
6
CONTINUOUS
10
2.05657
20
-2.86401
11
2.06219
21
-2.86401
0
LINE
8
BLACK
6
CONTINUOUS
10
2.06219
20
-2.86401
11
2.0632
21
-2.86419
0
LINE
8
BLACK
6
CONTINUOUS
10
2.09695
20
-2.86419
11
2.09708
21
-2.86431
0
LINE
8
BLACK
6
CONTINUOUS
10
2.09708
20
-2.86431
11
2.09726
21
-2.86433
0
LINE
8
BLACK
6
CONTINUOUS
10
2.09726
20
-2.86433
11
2.10101
21
-2.8662
0
LINE
8
BLACK
6
CONTINUOUS
10
2.10101
20
-2.8662
11
2.10183
21
-2.86681
0
LINE
8
BLACK
6
CONTINUOUS
10
2.10183
20
-2.86681
11
2.10201
21
-2.86722
0
LINE
8
BLACK
6
CONTINUOUS
10
2.10201
20
-2.86722
11
2.10233
21
-2.86752
0
LINE
8
BLACK
6
CONTINUOUS
10
2.10233
20
-2.86752
11
2.1042
21
-2.87127
0
LINE
8
BLACK
6
CONTINUOUS
10
2.1042
20
-2.87127
11
2.10449
21
-2.87225
0
LINE
8
BLACK
6
CONTINUOUS
10
2.10449
20
-2.87225
11
2.10445
21
-2.87242
0
LINE
8
BLACK
6
CONTINUOUS
10
2.10445
20
-2.87242
11
2.10451
21
-2.87259
0
LINE
8
BLACK
6
CONTINUOUS
10
2.10451
20
-2.87259
11
2.10451
21
-2.87634
0
LINE
8
BLACK
6
CONTINUOUS
10
2.10451
20
-2.87634
11
2.10433
21
-2.87735
0
LINE
8
BLACK
6
CONTINUOUS
10
2.10433
20
-2.87735
11
2.10402
21
-2.87772
0
LINE
8
BLACK
6
CONTINUOUS
10
2.10402
20
-2.87772
11
2.10386
21
-2.87819
0
LINE
8
BLACK
6
CONTINUOUS
10
2.10386
20
-2.87819
11
2.10339
21
-2.87847
0
LINE
8
BLACK
6
CONTINUOUS
10
2.10339
20
-2.87847
11
2.10304
21
-2.8789
0
LINE
8
BLACK
6
CONTINUOUS
10
2.10304
20
-2.8789
11
2.10256
21
-2.87898
0
LINE
8
BLACK
6
CONTINUOUS
10
2.10256
20
-2.87898
11
2.10214
21
-2.87924
0
LINE
8
BLACK
6
CONTINUOUS
10
2.10214
20
-2.87924
11
2.08576
21
-2.88251
0
LINE
8
BLACK
6
CONTINUOUS
10
2.08576
20
-2.88251
11
2.08576
21
-2.88689
0
LINE
8
BLACK
6
CONTINUOUS
10
2.08576
20
-2.88689
11
2.08689
21
-2.88914
0
LINE
8
BLACK
6
CONTINUOUS
10
2.08689
20
-2.88914
11
2.08913
21
-2.89026
0
LINE
8
BLACK
6
CONTINUOUS
10
2.08913
20
-2.89026
11
2.09524
21
-2.89026
0
LINE
8
BLACK
6
CONTINUOUS
10
2.09524
20
-2.89026
11
2.09836
21
-2.8887
0
LINE
8
BLACK
6
CONTINUOUS
10
2.09836
20
-2.8887
11
2.09935
21
-2.88841
0
LINE
8
BLACK
6
CONTINUOUS
10
2.09935
20
-2.88841
11
2.10131
21
-2.88887
0
LINE
8
BLACK
6
CONTINUOUS
10
2.10131
20
-2.88887
11
2.10252
21
-2.8905
0
LINE
8
BLACK
6
CONTINUOUS
10
2.10252
20
-2.8905
11
2.10239
21
-2.89251
0
LINE
8
BLACK
6
CONTINUOUS
10
2.10239
20
-2.89251
11
2.10101
21
-2.89398
0
LINE
8
BLACK
6
CONTINUOUS
10
2.10101
20
-2.89398
11
2.09726
21
-2.89585
0
LINE
8
BLACK
6
CONTINUOUS
10
2.09726
20
-2.89585
11
2.09627
21
-2.89615
0
LINE
8
BLACK
6
CONTINUOUS
10
2.09627
20
-2.89615
11
2.0961
21
-2.89611
0
LINE
8
BLACK
6
CONTINUOUS
10
2.0961
20
-2.89611
11
2.09594
21
-2.89617
0
LINE
8
BLACK
6
CONTINUOUS
10
2.09594
20
-2.89617
11
2.08844
21
-2.89617
0
LINE
8
BLACK
6
CONTINUOUS
10
2.08844
20
-2.89617
11
2.08743
21
-2.89599
0
LINE
8
BLACK
6
CONTINUOUS
10
2.08743
20
-2.89599
11
2.08729
21
-2.89587
0
LINE
8
BLACK
6
CONTINUOUS
10
2.08729
20
-2.89587
11
2.08712
21
-2.89585
0
LINE
8
BLACK
6
CONTINUOUS
10
2.08712
20
-2.89585
11
2.08337
21
-2.89398
0
LINE
8
BLACK
6
CONTINUOUS
10
2.08337
20
-2.89398
11
2.08254
21
-2.89337
0
LINE
8
BLACK
6
CONTINUOUS
10
2.08254
20
-2.89337
11
2.08237
21
-2.89296
0
LINE
8
BLACK
6
CONTINUOUS
10
2.08237
20
-2.89296
11
2.08205
21
-2.89266
0
LINE
8
BLACK
6
CONTINUOUS
10
2.08205
20
-2.89266
11
2.08017
21
-2.88891
0
LINE
8
BLACK
6
CONTINUOUS
10
2.08017
20
-2.88891
11
2.07988
21
-2.88793
0
LINE
8
BLACK
6
CONTINUOUS
10
2.07988
20
-2.88793
11
2.07992
21
-2.88775
0
LINE
8
BLACK
6
CONTINUOUS
10
2.07992
20
-2.88775
11
2.07986
21
-2.88759
0
LINE
8
BLACK
6
CONTINUOUS
10
2.07986
20
-2.88759
11
2.07986
21
-2.87259
0
LINE
8
BLACK
6
CONTINUOUS
10
2.07986
20
-2.87259
11
2.08004
21
-2.87158
0
LINE
8
BLACK
6
CONTINUOUS
10
2.08004
20
-2.87158
11
2.08015
21
-2.87145
0
LINE
8
BLACK
6
CONTINUOUS
10
2.08015
20
-2.87145
11
2.08017
21
-2.87127
0
LINE
8
BLACK
6
CONTINUOUS
10
2.08017
20
-2.87127
11
2.08205
21
-2.86752
0
LINE
8
BLACK
6
CONTINUOUS
10
2.08205
20
-2.86752
11
2.08266
21
-2.8667
0
LINE
8
BLACK
6
CONTINUOUS
10
2.08266
20
-2.8667
11
2.08306
21
-2.86652
0
LINE
8
BLACK
6
CONTINUOUS
10
2.08306
20
-2.86652
11
2.08337
21
-2.8662
0
LINE
8
BLACK
6
CONTINUOUS
10
2.08337
20
-2.8662
11
2.08712
21
-2.86433
0
LINE
8
BLACK
6
CONTINUOUS
10
2.08712
20
-2.86433
11
2.0881
21
-2.86403
0
LINE
8
BLACK
6
CONTINUOUS
10
2.0881
20
-2.86403
11
2.08827
21
-2.86407
0
LINE
8
BLACK
6
CONTINUOUS
10
2.08827
20
-2.86407
11
2.08844
21
-2.86401
0
LINE
8
BLACK
6
CONTINUOUS
10
2.08844
20
-2.86401
11
2.09594
21
-2.86401
0
LINE
8
BLACK
6
CONTINUOUS
10
2.09594
20
-2.86401
11
2.09695
21
-2.86419
0
LINE
8
BLACK
6
CONTINUOUS
10
2.08689
20
-2.87104
11
2.08576
21
-2.87329
0
LINE
8
BLACK
6
CONTINUOUS
10
2.08576
20
-2.87329
11
2.08576
21
-2.87649
0
LINE
8
BLACK
6
CONTINUOUS
10
2.08576
20
-2.87649
11
2.09861
21
-2.87392
0
LINE
8
BLACK
6
CONTINUOUS
10
2.09861
20
-2.87392
11
2.09861
21
-2.87329
0
LINE
8
BLACK
6
CONTINUOUS
10
2.09861
20
-2.87329
11
2.09748
21
-2.87104
0
LINE
8
BLACK
6
CONTINUOUS
10
2.09748
20
-2.87104
11
2.09524
21
-2.86992
0
LINE
8
BLACK
6
CONTINUOUS
10
2.09524
20
-2.86992
11
2.08913
21
-2.86992
0
LINE
8
BLACK
6
CONTINUOUS
10
2.08913
20
-2.86992
11
2.08689
21
-2.87104
0
LINE
8
BLACK
6
CONTINUOUS
10
2.14006
20
-2.89419
11
2.14161
21
-2.89549
0
LINE
8
BLACK
6
CONTINUOUS
10
2.14161
20
-2.89549
11
2.14196
21
-2.89748
0
LINE
8
BLACK
6
CONTINUOUS
10
2.14196
20
-2.89748
11
2.14095
21
-2.89922
0
LINE
8
BLACK
6
CONTINUOUS
10
2.14095
20
-2.89922
11
2.13906
21
-2.89992
0
LINE
8
BLACK
6
CONTINUOUS
10
2.13906
20
-2.89992
11
2.10906
21
-2.89992
0
LINE
8
BLACK
6
CONTINUOUS
10
2.10906
20
-2.89992
11
2.10805
21
-2.89974
0
LINE
8
BLACK
6
CONTINUOUS
10
2.10805
20
-2.89974
11
2.1065
21
-2.89844
0
LINE
8
BLACK
6
CONTINUOUS
10
2.1065
20
-2.89844
11
2.10615
21
-2.89645
0
LINE
8
BLACK
6
CONTINUOUS
10
2.10615
20
-2.89645
11
2.10716
21
-2.8947
0
LINE
8
BLACK
6
CONTINUOUS
10
2.10716
20
-2.8947
11
2.10906
21
-2.89401
0
LINE
8
BLACK
6
CONTINUOUS
10
2.10906
20
-2.89401
11
2.13906
21
-2.89401
0
LINE
8
BLACK
6
CONTINUOUS
10
2.13906
20
-2.89401
11
2.14006
21
-2.89419
0
LINE
8
BLACK
6
CONTINUOUS
10
2.03633
20
-2.86507
11
2.03702
21
-2.86697
0
LINE
8
BLACK
6
CONTINUOUS
10
2.03702
20
-2.86697
11
2.03702
21
-2.89321
0
LINE
8
BLACK
6
CONTINUOUS
10
2.03702
20
-2.89321
11
2.03684
21
-2.89422
0
LINE
8
BLACK
6
CONTINUOUS
10
2.03684
20
-2.89422
11
2.03554
21
-2.89577
0
LINE
8
BLACK
6
CONTINUOUS
10
2.03554
20
-2.89577
11
2.03356
21
-2.89612
0
LINE
8
BLACK
6
CONTINUOUS
10
2.03356
20
-2.89612
11
2.03181
21
-2.89511
0
LINE
8
BLACK
6
CONTINUOUS
10
2.03181
20
-2.89511
11
2.03172
21
-2.89488
0
LINE
8
BLACK
6
CONTINUOUS
10
2.03172
20
-2.89488
11
2.02976
21
-2.89585
0
LINE
8
BLACK
6
CONTINUOUS
10
2.02976
20
-2.89585
11
2.02878
21
-2.89615
0
LINE
8
BLACK
6
CONTINUOUS
10
2.02878
20
-2.89615
11
2.02861
21
-2.89611
0
LINE
8
BLACK
6
CONTINUOUS
10
2.02861
20
-2.89611
11
2.02844
21
-2.89617
0
LINE
8
BLACK
6
CONTINUOUS
10
2.02844
20
-2.89617
11
2.02282
21
-2.89617
0
LINE
8
BLACK
6
CONTINUOUS
10
2.02282
20
-2.89617
11
2.02181
21
-2.89599
0
LINE
8
BLACK
6
CONTINUOUS
10
2.02181
20
-2.89599
11
2.02167
21
-2.89587
0
LINE
8
BLACK
6
CONTINUOUS
10
2.02167
20
-2.89587
11
2.0215
21
-2.89585
0
LINE
8
BLACK
6
CONTINUOUS
10
2.0215
20
-2.89585
11
2.01775
21
-2.89398
0
LINE
8
BLACK
6
CONTINUOUS
10
2.01775
20
-2.89398
11
2.01693
21
-2.89337
0
LINE
8
BLACK
6
CONTINUOUS
10
2.01693
20
-2.89337
11
2.01675
21
-2.89296
0
LINE
8
BLACK
6
CONTINUOUS
10
2.01675
20
-2.89296
11
2.01643
21
-2.89266
0
LINE
8
BLACK
6
CONTINUOUS
10
2.01643
20
-2.89266
11
2.01455
21
-2.88891
0
LINE
8
BLACK
6
CONTINUOUS
10
2.01455
20
-2.88891
11
2.01426
21
-2.88793
0
LINE
8
BLACK
6
CONTINUOUS
10
2.01426
20
-2.88793
11
2.0143
21
-2.88775
0
LINE
8
BLACK
6
CONTINUOUS
10
2.0143
20
-2.88775
11
2.01424
21
-2.88759
0
LINE
8
BLACK
6
CONTINUOUS
10
2.01424
20
-2.88759
11
2.01424
21
-2.86697
0
LINE
8
BLACK
6
CONTINUOUS
10
2.01424
20
-2.86697
11
2.01442
21
-2.86596
0
LINE
8
BLACK
6
CONTINUOUS
10
2.01442
20
-2.86596
11
2.01572
21
-2.86441
0
LINE
8
BLACK
6
CONTINUOUS
10
2.01572
20
-2.86441
11
2.01771
21
-2.86406
0
LINE
8
BLACK
6
CONTINUOUS
10
2.01771
20
-2.86406
11
2.01946
21
-2.86507
0
LINE
8
BLACK
6
CONTINUOUS
10
2.01946
20
-2.86507
11
2.02015
21
-2.86697
0
LINE
8
BLACK
6
CONTINUOUS
10
2.02015
20
-2.86697
11
2.02015
21
-2.88689
0
LINE
8
BLACK
6
CONTINUOUS
10
2.02015
20
-2.88689
11
2.02127
21
-2.88914
0
LINE
8
BLACK
6
CONTINUOUS
10
2.02127
20
-2.88914
11
2.02352
21
-2.89026
0
LINE
8
BLACK
6
CONTINUOUS
10
2.02352
20
-2.89026
11
2.02775
21
-2.89026
0
LINE
8
BLACK
6
CONTINUOUS
10
2.02775
20
-2.89026
11
2.03044
21
-2.88891
0
LINE
8
BLACK
6
CONTINUOUS
10
2.03044
20
-2.88891
11
2.03112
21
-2.88824
0
LINE
8
BLACK
6
CONTINUOUS
10
2.03112
20
-2.88824
11
2.03112
21
-2.86697
0
LINE
8
BLACK
6
CONTINUOUS
10
2.03112
20
-2.86697
11
2.03129
21
-2.86596
0
LINE
8
BLACK
6
CONTINUOUS
10
2.03129
20
-2.86596
11
2.03259
21
-2.86441
0
LINE
8
BLACK
6
CONTINUOUS
10
2.03259
20
-2.86441
11
2.03458
21
-2.86406
0
LINE
8
BLACK
6
CONTINUOUS
10
2.03458
20
-2.86406
11
2.03633
21
-2.86507
0
LINE
8
BLACK
6
CONTINUOUS
10
2.16069
20
-2.86419
11
2.16082
21
-2.86431
0
LINE
8
BLACK
6
CONTINUOUS
10
2.16082
20
-2.86431
11
2.161
21
-2.86433
0
LINE
8
BLACK
6
CONTINUOUS
10
2.161
20
-2.86433
11
2.16475
21
-2.8662
0
LINE
8
BLACK
6
CONTINUOUS
10
2.16475
20
-2.8662
11
2.16546
21
-2.86673
0
LINE
8
BLACK
6
CONTINUOUS
10
2.16546
20
-2.86673
11
2.16551
21
-2.86675
0
LINE
8
BLACK
6
CONTINUOUS
10
2.16551
20
-2.86675
11
2.16739
21
-2.86863
0
LINE
8
BLACK
6
CONTINUOUS
10
2.16739
20
-2.86863
11
2.1679
21
-2.86935
0
LINE
8
BLACK
6
CONTINUOUS
10
2.1679
20
-2.86935
11
2.16794
21
-2.8694
0
LINE
8
BLACK
6
CONTINUOUS
10
2.16794
20
-2.8694
11
2.16982
21
-2.87315
0
LINE
8
BLACK
6
CONTINUOUS
10
2.16982
20
-2.87315
11
2.17011
21
-2.87413
0
LINE
8
BLACK
6
CONTINUOUS
10
2.17011
20
-2.87413
11
2.17007
21
-2.8743
0
LINE
8
BLACK
6
CONTINUOUS
10
2.17007
20
-2.8743
11
2.17013
21
-2.87447
0
LINE
8
BLACK
6
CONTINUOUS
10
2.17013
20
-2.87447
11
2.17013
21
-2.88571
0
LINE
8
BLACK
6
CONTINUOUS
10
2.17013
20
-2.88571
11
2.16995
21
-2.88672
0
LINE
8
BLACK
6
CONTINUOUS
10
2.16995
20
-2.88672
11
2.16984
21
-2.88686
0
LINE
8
BLACK
6
CONTINUOUS
10
2.16984
20
-2.88686
11
2.16982
21
-2.88703
0
LINE
8
BLACK
6
CONTINUOUS
10
2.16982
20
-2.88703
11
2.16794
21
-2.89078
0
LINE
8
BLACK
6
CONTINUOUS
10
2.16794
20
-2.89078
11
2.16742
21
-2.89149
0
LINE
8
BLACK
6
CONTINUOUS
10
2.16742
20
-2.89149
11
2.16739
21
-2.89155
0
LINE
8
BLACK
6
CONTINUOUS
10
2.16739
20
-2.89155
11
2.16552
21
-2.89343
0
LINE
8
BLACK
6
CONTINUOUS
10
2.16552
20
-2.89343
11
2.16479
21
-2.89393
0
LINE
8
BLACK
6
CONTINUOUS
10
2.16479
20
-2.89393
11
2.16475
21
-2.89398
0
LINE
8
BLACK
6
CONTINUOUS
10
2.16475
20
-2.89398
11
2.161
21
-2.89585
0
LINE
8
BLACK
6
CONTINUOUS
10
2.161
20
-2.89585
11
2.16002
21
-2.89615
0
LINE
8
BLACK
6
CONTINUOUS
10
2.16002
20
-2.89615
11
2.15984
21
-2.89611
0
LINE
8
BLACK
6
CONTINUOUS
10
2.15984
20
-2.89611
11
2.15968
21
-2.89617
0
LINE
8
BLACK
6
CONTINUOUS
10
2.15968
20
-2.89617
11
2.15405
21
-2.89617
0
LINE
8
BLACK
6
CONTINUOUS
10
2.15405
20
-2.89617
11
2.15304
21
-2.89599
0
LINE
8
BLACK
6
CONTINUOUS
10
2.15304
20
-2.89599
11
2.15291
21
-2.89587
0
LINE
8
BLACK
6
CONTINUOUS
10
2.15291
20
-2.89587
11
2.15273
21
-2.89585
0
LINE
8
BLACK
6
CONTINUOUS
10
2.15273
20
-2.89585
11
2.14898
21
-2.89398
0
LINE
8
BLACK
6
CONTINUOUS
10
2.14898
20
-2.89398
11
2.14827
21
-2.89345
0
LINE
8
BLACK
6
CONTINUOUS
10
2.14827
20
-2.89345
11
2.14822
21
-2.89343
0
LINE
8
BLACK
6
CONTINUOUS
10
2.14822
20
-2.89343
11
2.14634
21
-2.89155
0
LINE
8
BLACK
6
CONTINUOUS
10
2.14634
20
-2.89155
11
2.14583
21
-2.89083
0
LINE
8
BLACK
6
CONTINUOUS
10
2.14583
20
-2.89083
11
2.14579
21
-2.89078
0
LINE
8
BLACK
6
CONTINUOUS
10
2.14579
20
-2.89078
11
2.14391
21
-2.88703
0
LINE
8
BLACK
6
CONTINUOUS
10
2.14391
20
-2.88703
11
2.14362
21
-2.88605
0
LINE
8
BLACK
6
CONTINUOUS
10
2.14362
20
-2.88605
11
2.14366
21
-2.88588
0
LINE
8
BLACK
6
CONTINUOUS
10
2.14366
20
-2.88588
11
2.1436
21
-2.88571
0
LINE
8
BLACK
6
CONTINUOUS
10
2.1436
20
-2.88571
11
2.1436
21
-2.87447
0
LINE
8
BLACK
6
CONTINUOUS
10
2.1436
20
-2.87447
11
2.14378
21
-2.87346
0
LINE
8
BLACK
6
CONTINUOUS
10
2.14378
20
-2.87346
11
2.14389
21
-2.87332
0
LINE
8
BLACK
6
CONTINUOUS
10
2.14389
20
-2.87332
11
2.14391
21
-2.87315
0
LINE
8
BLACK
6
CONTINUOUS
10
2.14391
20
-2.87315
11
2.14579
21
-2.8694
0
LINE
8
BLACK
6
CONTINUOUS
10
2.14579
20
-2.8694
11
2.14631
21
-2.86869
0
LINE
8
BLACK
6
CONTINUOUS
10
2.14631
20
-2.86869
11
2.14634
21
-2.86863
0
LINE
8
BLACK
6
CONTINUOUS
10
2.14634
20
-2.86863
11
2.14822
21
-2.86675
0
LINE
8
BLACK
6
CONTINUOUS
10
2.14822
20
-2.86675
11
2.14894
21
-2.86625
0
LINE
8
BLACK
6
CONTINUOUS
10
2.14894
20
-2.86625
11
2.14898
21
-2.8662
0
LINE
8
BLACK
6
CONTINUOUS
10
2.14898
20
-2.8662
11
2.15273
21
-2.86433
0
LINE
8
BLACK
6
CONTINUOUS
10
2.15273
20
-2.86433
11
2.15372
21
-2.86403
0
LINE
8
BLACK
6
CONTINUOUS
10
2.15372
20
-2.86403
11
2.15389
21
-2.86407
0
LINE
8
BLACK
6
CONTINUOUS
10
2.15389
20
-2.86407
11
2.15405
21
-2.86401
0
LINE
8
BLACK
6
CONTINUOUS
10
2.15405
20
-2.86401
11
2.15968
21
-2.86401
0
LINE
8
BLACK
6
CONTINUOUS
10
2.15968
20
-2.86401
11
2.16069
21
-2.86419
0
LINE
8
BLACK
6
CONTINUOUS
10
2.15205
20
-2.87127
11
2.15086
21
-2.87247
0
LINE
8
BLACK
6
CONTINUOUS
10
2.15086
20
-2.87247
11
2.14951
21
-2.87516
0
LINE
8
BLACK
6
CONTINUOUS
10
2.14951
20
-2.87516
11
2.14951
21
-2.88502
0
LINE
8
BLACK
6
CONTINUOUS
10
2.14951
20
-2.88502
11
2.15086
21
-2.88771
0
LINE
8
BLACK
6
CONTINUOUS
10
2.15086
20
-2.88771
11
2.15205
21
-2.88891
0
LINE
8
BLACK
6
CONTINUOUS
10
2.15205
20
-2.88891
11
2.15475
21
-2.89026
0
LINE
8
BLACK
6
CONTINUOUS
10
2.15475
20
-2.89026
11
2.15898
21
-2.89026
0
LINE
8
BLACK
6
CONTINUOUS
10
2.15898
20
-2.89026
11
2.16168
21
-2.88891
0
LINE
8
BLACK
6
CONTINUOUS
10
2.16168
20
-2.88891
11
2.16288
21
-2.88771
0
LINE
8
BLACK
6
CONTINUOUS
10
2.16288
20
-2.88771
11
2.16422
21
-2.88502
0
LINE
8
BLACK
6
CONTINUOUS
10
2.16422
20
-2.88502
11
2.16422
21
-2.87516
0
LINE
8
BLACK
6
CONTINUOUS
10
2.16422
20
-2.87516
11
2.16288
21
-2.87247
0
LINE
8
BLACK
6
CONTINUOUS
10
2.16288
20
-2.87247
11
2.16168
21
-2.87127
0
LINE
8
BLACK
6
CONTINUOUS
10
2.16168
20
-2.87127
11
2.15898
21
-2.86992
0
LINE
8
BLACK
6
CONTINUOUS
10
2.15898
20
-2.86992
11
2.15475
21
-2.86992
0
LINE
8
BLACK
6
CONTINUOUS
10
2.15475
20
-2.86992
11
2.15205
21
-2.87127
0
LINE
8
BLACK
6
CONTINUOUS
10
2.20318
20
-2.86507
11
2.20388
21
-2.86697
0
LINE
8
BLACK
6
CONTINUOUS
10
2.20388
20
-2.86697
11
2.20388
21
-2.89321
0
LINE
8
BLACK
6
CONTINUOUS
10
2.20388
20
-2.89321
11
2.2037
21
-2.89422
0
LINE
8
BLACK
6
CONTINUOUS
10
2.2037
20
-2.89422
11
2.2024
21
-2.89577
0
LINE
8
BLACK
6
CONTINUOUS
10
2.2024
20
-2.89577
11
2.20041
21
-2.89612
0
LINE
8
BLACK
6
CONTINUOUS
10
2.20041
20
-2.89612
11
2.19866
21
-2.89511
0
LINE
8
BLACK
6
CONTINUOUS
10
2.19866
20
-2.89511
11
2.19857
21
-2.89488
0
LINE
8
BLACK
6
CONTINUOUS
10
2.19857
20
-2.89488
11
2.19662
21
-2.89585
0
LINE
8
BLACK
6
CONTINUOUS
10
2.19662
20
-2.89585
11
2.19564
21
-2.89615
0
LINE
8
BLACK
6
CONTINUOUS
10
2.19564
20
-2.89615
11
2.19546
21
-2.89611
0
LINE
8
BLACK
6
CONTINUOUS
10
2.19546
20
-2.89611
11
2.1953
21
-2.89617
0
LINE
8
BLACK
6
CONTINUOUS
10
2.1953
20
-2.89617
11
2.18967
21
-2.89617
0
LINE
8
BLACK
6
CONTINUOUS
10
2.18967
20
-2.89617
11
2.18866
21
-2.89599
0
LINE
8
BLACK
6
CONTINUOUS
10
2.18866
20
-2.89599
11
2.18853
21
-2.89587
0
LINE
8
BLACK
6
CONTINUOUS
10
2.18853
20
-2.89587
11
2.18835
21
-2.89585
0
LINE
8
BLACK
6
CONTINUOUS
10
2.18835
20
-2.89585
11
2.1846
21
-2.89398
0
LINE
8
BLACK
6
CONTINUOUS
10
2.1846
20
-2.89398
11
2.18378
21
-2.89337
0
LINE
8
BLACK
6
CONTINUOUS
10
2.18378
20
-2.89337
11
2.1836
21
-2.89296
0
LINE
8
BLACK
6
CONTINUOUS
10
2.1836
20
-2.89296
11
2.18328
21
-2.89266
0
LINE
8
BLACK
6
CONTINUOUS
10
2.18328
20
-2.89266
11
2.18141
21
-2.88891
0
LINE
8
BLACK
6
CONTINUOUS
10
2.18141
20
-2.88891
11
2.18112
21
-2.88793
0
LINE
8
BLACK
6
CONTINUOUS
10
2.18112
20
-2.88793
11
2.18116
21
-2.88775
0
LINE
8
BLACK
6
CONTINUOUS
10
2.18116
20
-2.88775
11
2.1811
21
-2.88759
0
LINE
8
BLACK
6
CONTINUOUS
10
2.1811
20
-2.88759
11
2.1811
21
-2.86697
0
LINE
8
BLACK
6
CONTINUOUS
10
2.1811
20
-2.86697
11
2.18127
21
-2.86596
0
LINE
8
BLACK
6
CONTINUOUS
10
2.18127
20
-2.86596
11
2.18257
21
-2.86441
0
LINE
8
BLACK
6
CONTINUOUS
10
2.18257
20
-2.86441
11
2.18456
21
-2.86406
0
LINE
8
BLACK
6
CONTINUOUS
10
2.18456
20
-2.86406
11
2.18631
21
-2.86507
0
LINE
8
BLACK
6
CONTINUOUS
10
2.18631
20
-2.86507
11
2.187
21
-2.86697
0
LINE
8
BLACK
6
CONTINUOUS
10
2.187
20
-2.86697
11
2.187
21
-2.88689
0
LINE
8
BLACK
6
CONTINUOUS
10
2.187
20
-2.88689
11
2.18813
21
-2.88914
0
LINE
8
BLACK
6
CONTINUOUS
10
2.18813
20
-2.88914
11
2.19037
21
-2.89026
0
LINE
8
BLACK
6
CONTINUOUS
10
2.19037
20
-2.89026
11
2.1946
21
-2.89026
0
LINE
8
BLACK
6
CONTINUOUS
10
2.1946
20
-2.89026
11
2.1973
21
-2.88891
0
LINE
8
BLACK
6
CONTINUOUS
10
2.1973
20
-2.88891
11
2.19797
21
-2.88824
0
LINE
8
BLACK
6
CONTINUOUS
10
2.19797
20
-2.88824
11
2.19797
21
-2.86697
0
LINE
8
BLACK
6
CONTINUOUS
10
2.19797
20
-2.86697
11
2.19815
21
-2.86596
0
LINE
8
BLACK
6
CONTINUOUS
10
2.19815
20
-2.86596
11
2.19945
21
-2.86441
0
LINE
8
BLACK
6
CONTINUOUS
10
2.19945
20
-2.86441
11
2.20144
21
-2.86406
0
LINE
8
BLACK
6
CONTINUOUS
10
2.20144
20
-2.86406
11
2.20318
21
-2.86507
0
LINE
8
BLACK
6
CONTINUOUS
10
2.22193
20
-2.85195
11
2.22262
21
-2.85384
0
LINE
8
BLACK
6
CONTINUOUS
10
2.22262
20
-2.85384
11
2.22262
21
-2.86401
0
LINE
8
BLACK
6
CONTINUOUS
10
2.22262
20
-2.86401
11
2.22904
21
-2.86401
0
LINE
8
BLACK
6
CONTINUOUS
10
2.22904
20
-2.86401
11
2.23005
21
-2.86419
0
LINE
8
BLACK
6
CONTINUOUS
10
2.23005
20
-2.86419
11
2.2316
21
-2.86549
0
LINE
8
BLACK
6
CONTINUOUS
10
2.2316
20
-2.86549
11
2.23195
21
-2.86748
0
LINE
8
BLACK
6
CONTINUOUS
10
2.23195
20
-2.86748
11
2.23094
21
-2.86923
0
LINE
8
BLACK
6
CONTINUOUS
10
2.23094
20
-2.86923
11
2.22904
21
-2.86992
0
LINE
8
BLACK
6
CONTINUOUS
10
2.22904
20
-2.86992
11
2.22262
21
-2.86992
0
LINE
8
BLACK
6
CONTINUOUS
10
2.22262
20
-2.86992
11
2.22262
21
-2.88689
0
LINE
8
BLACK
6
CONTINUOUS
10
2.22262
20
-2.88689
11
2.22375
21
-2.88914
0
LINE
8
BLACK
6
CONTINUOUS
10
2.22375
20
-2.88914
11
2.22599
21
-2.89026
0
LINE
8
BLACK
6
CONTINUOUS
10
2.22599
20
-2.89026
11
2.22904
21
-2.89026
0
LINE
8
BLACK
6
CONTINUOUS
10
2.22904
20
-2.89026
11
2.23005
21
-2.89044
0
LINE
8
BLACK
6
CONTINUOUS
10
2.23005
20
-2.89044
11
2.2316
21
-2.89174
0
LINE
8
BLACK
6
CONTINUOUS
10
2.2316
20
-2.89174
11
2.23195
21
-2.89373
0
LINE
8
BLACK
6
CONTINUOUS
10
2.23195
20
-2.89373
11
2.23094
21
-2.89548
0
LINE
8
BLACK
6
CONTINUOUS
10
2.23094
20
-2.89548
11
2.22904
21
-2.89617
0
LINE
8
BLACK
6
CONTINUOUS
10
2.22904
20
-2.89617
11
2.22529
21
-2.89617
0
LINE
8
BLACK
6
CONTINUOUS
10
2.22529
20
-2.89617
11
2.22428
21
-2.89599
0
LINE
8
BLACK
6
CONTINUOUS
10
2.22428
20
-2.89599
11
2.22415
21
-2.89587
0
LINE
8
BLACK
6
CONTINUOUS
10
2.22415
20
-2.89587
11
2.22397
21
-2.89585
0
LINE
8
BLACK
6
CONTINUOUS
10
2.22397
20
-2.89585
11
2.22022
21
-2.89398
0
LINE
8
BLACK
6
CONTINUOUS
10
2.22022
20
-2.89398
11
2.2194
21
-2.89337
0
LINE
8
BLACK
6
CONTINUOUS
10
2.2194
20
-2.89337
11
2.21922
21
-2.89296
0
LINE
8
BLACK
6
CONTINUOUS
10
2.21922
20
-2.89296
11
2.2189
21
-2.89266
0
LINE
8
BLACK
6
CONTINUOUS
10
2.2189
20
-2.89266
11
2.21703
21
-2.88891
0
LINE
8
BLACK
6
CONTINUOUS
10
2.21703
20
-2.88891
11
2.21674
21
-2.88793
0
LINE
8
BLACK
6
CONTINUOUS
10
2.21674
20
-2.88793
11
2.21678
21
-2.88775
0
LINE
8
BLACK
6
CONTINUOUS
10
2.21678
20
-2.88775
11
2.21672
21
-2.88759
0
LINE
8
BLACK
6
CONTINUOUS
10
2.21672
20
-2.88759
11
2.21672
21
-2.86992
0
LINE
8
BLACK
6
CONTINUOUS
10
2.21672
20
-2.86992
11
2.21405
21
-2.86992
0
LINE
8
BLACK
6
CONTINUOUS
10
2.21405
20
-2.86992
11
2.21304
21
-2.86974
0
LINE
8
BLACK
6
CONTINUOUS
10
2.21304
20
-2.86974
11
2.21149
21
-2.86844
0
LINE
8
BLACK
6
CONTINUOUS
10
2.21149
20
-2.86844
11
2.21114
21
-2.86645
0
LINE
8
BLACK
6
CONTINUOUS
10
2.21114
20
-2.86645
11
2.21215
21
-2.8647
0
LINE
8
BLACK
6
CONTINUOUS
10
2.21215
20
-2.8647
11
2.21405
21
-2.86401
0
LINE
8
BLACK
6
CONTINUOUS
10
2.21405
20
-2.86401
11
2.21672
21
-2.86401
0
LINE
8
BLACK
6
CONTINUOUS
10
2.21672
20
-2.86401
11
2.21672
21
-2.85384
0
LINE
8
BLACK
6
CONTINUOUS
10
2.21672
20
-2.85384
11
2.2169
21
-2.85283
0
LINE
8
BLACK
6
CONTINUOUS
10
2.2169
20
-2.85283
11
2.21819
21
-2.85129
0
LINE
8
BLACK
6
CONTINUOUS
10
2.21819
20
-2.85129
11
2.22018
21
-2.85094
0
LINE
8
BLACK
6
CONTINUOUS
10
2.22018
20
-2.85094
11
2.22193
21
-2.85195
0
LINE
8
BLACK
6
CONTINUOUS
10
2
20
-2.77124
11
2.07677
21
-2.77124
0
LINE
8
BLACK
6
CONTINUOUS
10
2.07677
20
-2.77124
11
2.07844
21
-2.77194
0
LINE
8
BLACK
6
CONTINUOUS
10
2.07844
20
-2.77194
11
2.07913
21
-2.77361
0
LINE
8
BLACK
6
CONTINUOUS
10
2.07913
20
-2.77361
11
2.07844
21
-2.77528
0
LINE
8
BLACK
6
CONTINUOUS
10
2.07844
20
-2.77528
11
2.07677
21
-2.77597
0
LINE
8
BLACK
6
CONTINUOUS
10
2.07677
20
-2.77597
11
2
21
-2.77597
0
LINE
8
BLACK
6
CONTINUOUS
10
2
20
-2.77597
11
1.92323
21
-2.77597
0
LINE
8
BLACK
6
CONTINUOUS
10
1.92323
20
-2.77597
11
1.92156
21
-2.77528
0
LINE
8
BLACK
6
CONTINUOUS
10
1.92156
20
-2.77528
11
1.92087
21
-2.77361
0
LINE
8
BLACK
6
CONTINUOUS
10
1.92087
20
-2.77361
11
1.92156
21
-2.77194
0
LINE
8
BLACK
6
CONTINUOUS
10
1.92156
20
-2.77194
11
1.92323
21
-2.77124
0
LINE
8
BLACK
6
CONTINUOUS
10
1.92323
20
-2.77124
11
2
21
-2.77124
0
LINE
8
BLACK
6
CONTINUOUS
10
2.29681
20
-2.45304
11
2.29687
21
-2.45304
0
LINE
8
BLACK
6
CONTINUOUS
10
2.29687
20
-2.45304
11
2.3025
21
-2.45492
0
LINE
8
BLACK
6
CONTINUOUS
10
2.3025
20
-2.45492
11
2.3034
21
-2.45541
0
LINE
8
BLACK
6
CONTINUOUS
10
2.3034
20
-2.45541
11
2.30349
21
-2.45556
0
LINE
8
BLACK
6
CONTINUOUS
10
2.30349
20
-2.45556
11
2.30365
21
-2.45563
0
LINE
8
BLACK
6
CONTINUOUS
10
2.30365
20
-2.45563
11
2.30553
21
-2.4575
0
LINE
8
BLACK
6
CONTINUOUS
10
2.30553
20
-2.4575
11
2.30611
21
-2.45834
0
LINE
8
BLACK
6
CONTINUOUS
10
2.30611
20
-2.45834
11
2.30629
21
-2.46036
0
LINE
8
BLACK
6
CONTINUOUS
10
2.30629
20
-2.46036
11
2.30513
21
-2.46201
0
LINE
8
BLACK
6
CONTINUOUS
10
2.30513
20
-2.46201
11
2.30318
21
-2.46253
0
LINE
8
BLACK
6
CONTINUOUS
10
2.30318
20
-2.46253
11
2.30135
21
-2.46168
0
LINE
8
BLACK
6
CONTINUOUS
10
2.30135
20
-2.46168
11
2.29997
21
-2.4603
0
LINE
8
BLACK
6
CONTINUOUS
10
2.29997
20
-2.4603
11
2.29546
21
-2.4588
0
LINE
8
BLACK
6
CONTINUOUS
10
2.29546
20
-2.4588
11
2.29267
21
-2.4588
0
LINE
8
BLACK
6
CONTINUOUS
10
2.29267
20
-2.4588
11
2.28816
21
-2.4603
0
LINE
8
BLACK
6
CONTINUOUS
10
2.28816
20
-2.4603
11
2.28524
21
-2.46322
0
LINE
8
BLACK
6
CONTINUOUS
10
2.28524
20
-2.46322
11
2.28373
21
-2.46625
0
LINE
8
BLACK
6
CONTINUOUS
10
2.28373
20
-2.46625
11
2.28202
21
-2.47308
0
LINE
8
BLACK
6
CONTINUOUS
10
2.28202
20
-2.47308
11
2.28202
21
-2.47798
0
LINE
8
BLACK
6
CONTINUOUS
10
2.28202
20
-2.47798
11
2.28373
21
-2.48481
0
LINE
8
BLACK
6
CONTINUOUS
10
2.28373
20
-2.48481
11
2.28524
21
-2.48784
0
LINE
8
BLACK
6
CONTINUOUS
10
2.28524
20
-2.48784
11
2.28816
21
-2.49076
0
LINE
8
BLACK
6
CONTINUOUS
10
2.28816
20
-2.49076
11
2.29267
21
-2.49226
0
LINE
8
BLACK
6
CONTINUOUS
10
2.29267
20
-2.49226
11
2.29546
21
-2.49226
0
LINE
8
BLACK
6
CONTINUOUS
10
2.29546
20
-2.49226
11
2.29997
21
-2.49076
0
LINE
8
BLACK
6
CONTINUOUS
10
2.29997
20
-2.49076
11
2.30135
21
-2.48938
0
LINE
8
BLACK
6
CONTINUOUS
10
2.30135
20
-2.48938
11
2.30219
21
-2.48879
0
LINE
8
BLACK
6
CONTINUOUS
10
2.30219
20
-2.48879
11
2.3042
21
-2.48861
0
LINE
8
BLACK
6
CONTINUOUS
10
2.3042
20
-2.48861
11
2.30586
21
-2.48977
0
LINE
8
BLACK
6
CONTINUOUS
10
2.30586
20
-2.48977
11
2.30638
21
-2.49172
0
LINE
8
BLACK
6
CONTINUOUS
10
2.30638
20
-2.49172
11
2.30553
21
-2.49355
0
LINE
8
BLACK
6
CONTINUOUS
10
2.30553
20
-2.49355
11
2.30365
21
-2.49543
0
LINE
8
BLACK
6
CONTINUOUS
10
2.30365
20
-2.49543
11
2.30281
21
-2.49601
0
LINE
8
BLACK
6
CONTINUOUS
10
2.30281
20
-2.49601
11
2.30264
21
-2.49603
0
LINE
8
BLACK
6
CONTINUOUS
10
2.30264
20
-2.49603
11
2.3025
21
-2.49614
0
LINE
8
BLACK
6
CONTINUOUS
10
2.3025
20
-2.49614
11
2.29687
21
-2.49801
0
LINE
8
BLACK
6
CONTINUOUS
10
2.29687
20
-2.49801
11
2.296
21
-2.49814
0
LINE
8
BLACK
6
CONTINUOUS
10
2.296
20
-2.49814
11
2.29594
21
-2.49817
0
LINE
8
BLACK
6
CONTINUOUS
10
2.29594
20
-2.49817
11
2.29219
21
-2.49817
0
LINE
8
BLACK
6
CONTINUOUS
10
2.29219
20
-2.49817
11
2.29132
21
-2.49801
0
LINE
8
BLACK
6
CONTINUOUS
10
2.29132
20
-2.49801
11
2.29126
21
-2.49801
0
LINE
8
BLACK
6
CONTINUOUS
10
2.29126
20
-2.49801
11
2.28563
21
-2.49614
0
LINE
8
BLACK
6
CONTINUOUS
10
2.28563
20
-2.49614
11
2.28473
21
-2.49565
0
LINE
8
BLACK
6
CONTINUOUS
10
2.28473
20
-2.49565
11
2.28464
21
-2.4955
0
LINE
8
BLACK
6
CONTINUOUS
10
2.28464
20
-2.4955
11
2.28448
21
-2.49543
0
LINE
8
BLACK
6
CONTINUOUS
10
2.28448
20
-2.49543
11
2.28073
21
-2.49168
0
LINE
8
BLACK
6
CONTINUOUS
10
2.28073
20
-2.49168
11
2.28022
21
-2.49095
0
LINE
8
BLACK
6
CONTINUOUS
10
2.28022
20
-2.49095
11
2.28017
21
-2.49091
0
LINE
8
BLACK
6
CONTINUOUS
10
2.28017
20
-2.49091
11
2.2783
21
-2.48716
0
LINE
8
BLACK
6
CONTINUOUS
10
2.2783
20
-2.48716
11
2.27815
21
-2.48667
0
LINE
8
BLACK
6
CONTINUOUS
10
2.27815
20
-2.48667
11
2.27808
21
-2.48656
0
LINE
8
BLACK
6
CONTINUOUS
10
2.27808
20
-2.48656
11
2.2762
21
-2.47906
0
LINE
8
BLACK
6
CONTINUOUS
10
2.2762
20
-2.47906
11
2.27616
21
-2.47847
0
LINE
8
BLACK
6
CONTINUOUS
10
2.27616
20
-2.47847
11
2.27611
21
-2.47834
0
LINE
8
BLACK
6
CONTINUOUS
10
2.27611
20
-2.47834
11
2.27611
21
-2.47272
0
LINE
8
BLACK
6
CONTINUOUS
10
2.27611
20
-2.47272
11
2.27622
21
-2.47214
0
LINE
8
BLACK
6
CONTINUOUS
10
2.27622
20
-2.47214
11
2.2762
21
-2.472
0
LINE
8
BLACK
6
CONTINUOUS
10
2.2762
20
-2.472
11
2.27808
21
-2.4645
0
LINE
8
BLACK
6
CONTINUOUS
10
2.27808
20
-2.4645
11
2.27828
21
-2.46404
0
LINE
8
BLACK
6
CONTINUOUS
10
2.27828
20
-2.46404
11
2.2783
21
-2.4639
0
LINE
8
BLACK
6
CONTINUOUS
10
2.2783
20
-2.4639
11
2.28017
21
-2.46015
0
LINE
8
BLACK
6
CONTINUOUS
10
2.28017
20
-2.46015
11
2.2807
21
-2.45944
0
LINE
8
BLACK
6
CONTINUOUS
10
2.2807
20
-2.45944
11
2.28073
21
-2.45938
0
LINE
8
BLACK
6
CONTINUOUS
10
2.28073
20
-2.45938
11
2.28448
21
-2.45563
0
LINE
8
BLACK
6
CONTINUOUS
10
2.28448
20
-2.45563
11
2.28532
21
-2.45504
0
LINE
8
BLACK
6
CONTINUOUS
10
2.28532
20
-2.45504
11
2.28549
21
-2.45503
0
LINE
8
BLACK
6
CONTINUOUS
10
2.28549
20
-2.45503
11
2.28563
21
-2.45492
0
LINE
8
BLACK
6
CONTINUOUS
10
2.28563
20
-2.45492
11
2.29126
21
-2.45304
0
LINE
8
BLACK
6
CONTINUOUS
10
2.29126
20
-2.45304
11
2.29213
21
-2.45291
0
LINE
8
BLACK
6
CONTINUOUS
10
2.29213
20
-2.45291
11
2.29219
21
-2.45289
0
LINE
8
BLACK
6
CONTINUOUS
10
2.29219
20
-2.45289
11
2.29594
21
-2.45289
0
LINE
8
BLACK
6
CONTINUOUS
10
2.29594
20
-2.45289
11
2.29681
21
-2.45304
0
LINE
8
BLACK
6
CONTINUOUS
10
2.33003
20
-2.45296
11
2.3302
21
-2.45294
0
LINE
8
BLACK
6
CONTINUOUS
10
2.3302
20
-2.45294
11
2.33094
21
-2.45336
0
LINE
8
BLACK
6
CONTINUOUS
10
2.33094
20
-2.45336
11
2.33172
21
-2.45371
0
LINE
8
BLACK
6
CONTINUOUS
10
2.33172
20
-2.45371
11
2.3318
21
-2.45386
0
LINE
8
BLACK
6
CONTINUOUS
10
2.3318
20
-2.45386
11
2.33195
21
-2.45395
0
LINE
8
BLACK
6
CONTINUOUS
10
2.33195
20
-2.45395
11
2.33224
21
-2.45475
0
LINE
8
BLACK
6
CONTINUOUS
10
2.33224
20
-2.45475
11
2.33262
21
-2.45552
0
LINE
8
BLACK
6
CONTINUOUS
10
2.33262
20
-2.45552
11
2.33258
21
-2.45568
0
LINE
8
BLACK
6
CONTINUOUS
10
2.33258
20
-2.45568
11
2.33264
21
-2.45584
0
LINE
8
BLACK
6
CONTINUOUS
10
2.33264
20
-2.45584
11
2.33264
21
-2.49226
0
LINE
8
BLACK
6
CONTINUOUS
10
2.33264
20
-2.49226
11
2.34093
21
-2.49226
0
LINE
8
BLACK
6
CONTINUOUS
10
2.34093
20
-2.49226
11
2.34194
21
-2.49244
0
LINE
8
BLACK
6
CONTINUOUS
10
2.34194
20
-2.49244
11
2.34349
21
-2.49374
0
LINE
8
BLACK
6
CONTINUOUS
10
2.34349
20
-2.49374
11
2.34384
21
-2.49573
0
LINE
8
BLACK
6
CONTINUOUS
10
2.34384
20
-2.49573
11
2.34283
21
-2.49748
0
LINE
8
BLACK
6
CONTINUOUS
10
2.34283
20
-2.49748
11
2.34093
21
-2.49817
0
LINE
8
BLACK
6
CONTINUOUS
10
2.34093
20
-2.49817
11
2.31844
21
-2.49817
0
LINE
8
BLACK
6
CONTINUOUS
10
2.31844
20
-2.49817
11
2.31743
21
-2.49799
0
LINE
8
BLACK
6
CONTINUOUS
10
2.31743
20
-2.49799
11
2.31588
21
-2.49669
0
LINE
8
BLACK
6
CONTINUOUS
10
2.31588
20
-2.49669
11
2.31553
21
-2.4947
0
LINE
8
BLACK
6
CONTINUOUS
10
2.31553
20
-2.4947
11
2.31654
21
-2.49295
0
LINE
8
BLACK
6
CONTINUOUS
10
2.31654
20
-2.49295
11
2.31844
21
-2.49226
0
LINE
8
BLACK
6
CONTINUOUS
10
2.31844
20
-2.49226
11
2.32673
21
-2.49226
0
LINE
8
BLACK
6
CONTINUOUS
10
2.32673
20
-2.49226
11
2.32673
21
-2.46485
0
LINE
8
BLACK
6
CONTINUOUS
10
2.32673
20
-2.46485
11
2.32427
21
-2.46731
0
LINE
8
BLACK
6
CONTINUOUS
10
2.32427
20
-2.46731
11
2.32355
21
-2.46781
0
LINE
8
BLACK
6
CONTINUOUS
10
2.32355
20
-2.46781
11
2.32351
21
-2.46786
0
LINE
8
BLACK
6
CONTINUOUS
10
2.32351
20
-2.46786
11
2.31976
21
-2.46973
0
LINE
8
BLACK
6
CONTINUOUS
10
2.31976
20
-2.46973
11
2.31877
21
-2.47003
0
LINE
8
BLACK
6
CONTINUOUS
10
2.31877
20
-2.47003
11
2.31681
21
-2.46956
0
LINE
8
BLACK
6
CONTINUOUS
10
2.31681
20
-2.46956
11
2.31561
21
-2.46793
0
LINE
8
BLACK
6
CONTINUOUS
10
2.31561
20
-2.46793
11
2.31573
21
-2.46592
0
LINE
8
BLACK
6
CONTINUOUS
10
2.31573
20
-2.46592
11
2.31712
21
-2.46445
0
LINE
8
BLACK
6
CONTINUOUS
10
2.31712
20
-2.46445
11
2.32044
21
-2.46279
0
LINE
8
BLACK
6
CONTINUOUS
10
2.32044
20
-2.46279
11
2.32364
21
-2.45959
0
LINE
8
BLACK
6
CONTINUOUS
10
2.32364
20
-2.45959
11
2.32723
21
-2.45421
0
LINE
8
BLACK
6
CONTINUOUS
10
2.32723
20
-2.45421
11
2.32794
21
-2.45346
0
LINE
8
BLACK
6
CONTINUOUS
10
2.32794
20
-2.45346
11
2.3281
21
-2.45342
0
LINE
8
BLACK
6
CONTINUOUS
10
2.3281
20
-2.45342
11
2.32821
21
-2.45329
0
LINE
8
BLACK
6
CONTINUOUS
10
2.32821
20
-2.45329
11
2.32905
21
-2.45314
0
LINE
8
BLACK
6
CONTINUOUS
10
2.32905
20
-2.45314
11
2.32988
21
-2.4529
0
LINE
8
BLACK
6
CONTINUOUS
10
2.32988
20
-2.4529
11
2.33003
21
-2.45296
0
LINE
8
BLACK
6
CONTINUOUS
10
2.19773
20
-2.46504
11
2.19843
21
-2.46671
0
LINE
8
BLACK
6
CONTINUOUS
10
2.19843
20
-2.46671
11
2.19843
21
-2.48729
0
LINE
8
BLACK
6
CONTINUOUS
10
2.19843
20
-2.48729
11
2.19773
21
-2.48896
0
LINE
8
BLACK
6
CONTINUOUS
10
2.19773
20
-2.48896
11
2.19606
21
-2.48965
0
LINE
8
BLACK
6
CONTINUOUS
10
2.19606
20
-2.48965
11
2.19439
21
-2.48896
0
LINE
8
BLACK
6
CONTINUOUS
10
2.19439
20
-2.48896
11
2.1937
21
-2.48729
0
LINE
8
BLACK
6
CONTINUOUS
10
2.1937
20
-2.48729
11
2.1937
21
-2.46671
0
LINE
8
BLACK
6
CONTINUOUS
10
2.1937
20
-2.46671
11
2.19439
21
-2.46504
0
LINE
8
BLACK
6
CONTINUOUS
10
2.19439
20
-2.46504
11
2.19606
21
-2.46435
0
LINE
8
BLACK
6
CONTINUOUS
10
2.19606
20
-2.46435
11
2.19773
21
-2.46504
0
LINE
8
BLACK
6
CONTINUOUS
10
2.25561
20
-2.46504
11
2.2563
21
-2.46671
0
LINE
8
BLACK
6
CONTINUOUS
10
2.2563
20
-2.46671
11
2.2563
21
-2.48729
0
LINE
8
BLACK
6
CONTINUOUS
10
2.2563
20
-2.48729
11
2.25561
21
-2.48896
0
LINE
8
BLACK
6
CONTINUOUS
10
2.25561
20
-2.48896
11
2.25394
21
-2.48965
0
LINE
8
BLACK
6
CONTINUOUS
10
2.25394
20
-2.48965
11
2.25227
21
-2.48896
0
LINE
8
BLACK
6
CONTINUOUS
10
2.25227
20
-2.48896
11
2.25157
21
-2.48729
0
LINE
8
BLACK
6
CONTINUOUS
10
2.25157
20
-2.48729
11
2.25157
21
-2.46671
0
LINE
8
BLACK
6
CONTINUOUS
10
2.25157
20
-2.46671
11
2.25227
21
-2.46504
0
LINE
8
BLACK
6
CONTINUOUS
10
2.25227
20
-2.46504
11
2.25394
21
-2.46435
0
LINE
8
BLACK
6
CONTINUOUS
10
2.25394
20
-2.46435
11
2.25561
21
-2.46504
0
LINE
8
BLACK
6
CONTINUOUS
10
2
20
-2.42203
11
2.07677
21
-2.42203
0
LINE
8
BLACK
6
CONTINUOUS
10
2.07677
20
-2.42203
11
2.07844
21
-2.42272
0
LINE
8
BLACK
6
CONTINUOUS
10
2.07844
20
-2.42272
11
2.07913
21
-2.42439
0
LINE
8
BLACK
6
CONTINUOUS
10
2.07913
20
-2.42439
11
2.07844
21
-2.42606
0
LINE
8
BLACK
6
CONTINUOUS
10
2.07844
20
-2.42606
11
2.07677
21
-2.42676
0
LINE
8
BLACK
6
CONTINUOUS
10
2.07677
20
-2.42676
11
2
21
-2.42676
0
LINE
8
BLACK
6
CONTINUOUS
10
2
20
-2.42676
11
1.86417
21
-2.42676
0
LINE
8
BLACK
6
CONTINUOUS
10
1.86417
20
-2.42676
11
1.8625
21
-2.42606
0
LINE
8
BLACK
6
CONTINUOUS
10
1.8625
20
-2.42606
11
1.86181
21
-2.42439
0
LINE
8
BLACK
6
CONTINUOUS
10
1.86181
20
-2.42439
11
1.8625
21
-2.42272
0
LINE
8
BLACK
6
CONTINUOUS
10
1.8625
20
-2.42272
11
1.86417
21
-2.42203
0
LINE
8
BLACK
6
CONTINUOUS
10
1.86417
20
-2.42203
11
2
21
-2.42203
0
LINE
8
BLACK
6
CONTINUOUS
10
1.89476
20
-2.36807
11
1.89545
21
-2.36997
0
LINE
8
BLACK
6
CONTINUOUS
10
1.89545
20
-2.36997
11
1.89545
21
-2.40184
0
LINE
8
BLACK
6
CONTINUOUS
10
1.89545
20
-2.40184
11
1.89528
21
-2.40285
0
LINE
8
BLACK
6
CONTINUOUS
10
1.89528
20
-2.40285
11
1.89516
21
-2.40299
0
LINE
8
BLACK
6
CONTINUOUS
10
1.89516
20
-2.40299
11
1.89514
21
-2.40316
0
LINE
8
BLACK
6
CONTINUOUS
10
1.89514
20
-2.40316
11
1.89327
21
-2.40691
0
LINE
8
BLACK
6
CONTINUOUS
10
1.89327
20
-2.40691
11
1.89274
21
-2.40762
0
LINE
8
BLACK
6
CONTINUOUS
10
1.89274
20
-2.40762
11
1.89271
21
-2.40768
0
LINE
8
BLACK
6
CONTINUOUS
10
1.89271
20
-2.40768
11
1.89084
21
-2.40955
0
LINE
8
BLACK
6
CONTINUOUS
10
1.89084
20
-2.40955
11
1.89012
21
-2.41006
0
LINE
8
BLACK
6
CONTINUOUS
10
1.89012
20
-2.41006
11
1.89007
21
-2.41011
0
LINE
8
BLACK
6
CONTINUOUS
10
1.89007
20
-2.41011
11
1.88632
21
-2.41198
0
LINE
8
BLACK
6
CONTINUOUS
10
1.88632
20
-2.41198
11
1.88534
21
-2.41227
0
LINE
8
BLACK
6
CONTINUOUS
10
1.88534
20
-2.41227
11
1.88517
21
-2.41223
0
LINE
8
BLACK
6
CONTINUOUS
10
1.88517
20
-2.41223
11
1.885
21
-2.41229
0
LINE
8
BLACK
6
CONTINUOUS
10
1.885
20
-2.41229
11
1.8775
21
-2.41229
0
LINE
8
BLACK
6
CONTINUOUS
10
1.8775
20
-2.41229
11
1.87649
21
-2.41211
0
LINE
8
BLACK
6
CONTINUOUS
10
1.87649
20
-2.41211
11
1.87636
21
-2.412
0
LINE
8
BLACK
6
CONTINUOUS
10
1.87636
20
-2.412
11
1.87618
21
-2.41198
0
LINE
8
BLACK
6
CONTINUOUS
10
1.87618
20
-2.41198
11
1.87243
21
-2.41011
0
LINE
8
BLACK
6
CONTINUOUS
10
1.87243
20
-2.41011
11
1.87172
21
-2.40958
0
LINE
8
BLACK
6
CONTINUOUS
10
1.87172
20
-2.40958
11
1.87167
21
-2.40955
0
LINE
8
BLACK
6
CONTINUOUS
10
1.87167
20
-2.40955
11
1.86979
21
-2.40768
0
LINE
8
BLACK
6
CONTINUOUS
10
1.86979
20
-2.40768
11
1.86928
21
-2.40695
0
LINE
8
BLACK
6
CONTINUOUS
10
1.86928
20
-2.40695
11
1.86924
21
-2.40691
0
LINE
8
BLACK
6
CONTINUOUS
10
1.86924
20
-2.40691
11
1.86736
21
-2.40316
0
LINE
8
BLACK
6
CONTINUOUS
10
1.86736
20
-2.40316
11
1.86707
21
-2.40218
0
LINE
8
BLACK
6
CONTINUOUS
10
1.86707
20
-2.40218
11
1.86711
21
-2.40201
0
LINE
8
BLACK
6
CONTINUOUS
10
1.86711
20
-2.40201
11
1.86705
21
-2.40184
0
LINE
8
BLACK
6
CONTINUOUS
10
1.86705
20
-2.40184
11
1.86705
21
-2.36997
0
LINE
8
BLACK
6
CONTINUOUS
10
1.86705
20
-2.36997
11
1.86723
21
-2.36896
0
LINE
8
BLACK
6
CONTINUOUS
10
1.86723
20
-2.36896
11
1.86853
21
-2.36741
0
LINE
8
BLACK
6
CONTINUOUS
10
1.86853
20
-2.36741
11
1.87052
21
-2.36706
0
LINE
8
BLACK
6
CONTINUOUS
10
1.87052
20
-2.36706
11
1.87227
21
-2.36807
0
LINE
8
BLACK
6
CONTINUOUS
10
1.87227
20
-2.36807
11
1.87296
21
-2.36997
0
LINE
8
BLACK
6
CONTINUOUS
10
1.87296
20
-2.36997
11
1.87296
21
-2.40114
0
LINE
8
BLACK
6
CONTINUOUS
10
1.87296
20
-2.40114
11
1.87431
21
-2.40384
0
LINE
8
BLACK
6
CONTINUOUS
10
1.87431
20
-2.40384
11
1.8755
21
-2.40504
0
LINE
8
BLACK
6
CONTINUOUS
10
1.8755
20
-2.40504
11
1.8782
21
-2.40639
0
LINE
8
BLACK
6
CONTINUOUS
10
1.8782
20
-2.40639
11
1.8843
21
-2.40639
0
LINE
8
BLACK
6
CONTINUOUS
10
1.8843
20
-2.40639
11
1.887
21
-2.40504
0
LINE
8
BLACK
6
CONTINUOUS
10
1.887
20
-2.40504
11
1.8882
21
-2.40384
0
LINE
8
BLACK
6
CONTINUOUS
10
1.8882
20
-2.40384
11
1.88955
21
-2.40114
0
LINE
8
BLACK
6
CONTINUOUS
10
1.88955
20
-2.40114
11
1.88955
21
-2.36997
0
LINE
8
BLACK
6
CONTINUOUS
10
1.88955
20
-2.36997
11
1.88973
21
-2.36896
0
LINE
8
BLACK
6
CONTINUOUS
10
1.88973
20
-2.36896
11
1.89102
21
-2.36741
0
LINE
8
BLACK
6
CONTINUOUS
10
1.89102
20
-2.36741
11
1.89301
21
-2.36706
0
LINE
8
BLACK
6
CONTINUOUS
10
1.89301
20
-2.36706
11
1.89476
21
-2.36807
0
LINE
8
BLACK
6
CONTINUOUS
10
1.92097
20
-2.36709
11
1.92114
21
-2.36706
0
LINE
8
BLACK
6
CONTINUOUS
10
1.92114
20
-2.36706
11
1.92188
21
-2.36749
0
LINE
8
BLACK
6
CONTINUOUS
10
1.92188
20
-2.36749
11
1.92266
21
-2.36783
0
LINE
8
BLACK
6
CONTINUOUS
10
1.92266
20
-2.36783
11
1.92274
21
-2.36799
0
LINE
8
BLACK
6
CONTINUOUS
10
1.92274
20
-2.36799
11
1.92288
21
-2.36807
0
LINE
8
BLACK
6
CONTINUOUS
10
1.92288
20
-2.36807
11
1.92318
21
-2.36888
0
LINE
8
BLACK
6
CONTINUOUS
10
1.92318
20
-2.36888
11
1.92356
21
-2.36964
0
LINE
8
BLACK
6
CONTINUOUS
10
1.92356
20
-2.36964
11
1.92352
21
-2.36981
0
LINE
8
BLACK
6
CONTINUOUS
10
1.92352
20
-2.36981
11
1.92358
21
-2.36997
0
LINE
8
BLACK
6
CONTINUOUS
10
1.92358
20
-2.36997
11
1.92358
21
-2.40639
0
LINE
8
BLACK
6
CONTINUOUS
10
1.92358
20
-2.40639
11
1.93187
21
-2.40639
0
LINE
8
BLACK
6
CONTINUOUS
10
1.93187
20
-2.40639
11
1.93288
21
-2.40656
0
LINE
8
BLACK
6
CONTINUOUS
10
1.93288
20
-2.40656
11
1.93443
21
-2.40786
0
LINE
8
BLACK
6
CONTINUOUS
10
1.93443
20
-2.40786
11
1.93478
21
-2.40985
0
LINE
8
BLACK
6
CONTINUOUS
10
1.93478
20
-2.40985
11
1.93377
21
-2.4116
0
LINE
8
BLACK
6
CONTINUOUS
10
1.93377
20
-2.4116
11
1.93187
21
-2.41229
0
LINE
8
BLACK
6
CONTINUOUS
10
1.93187
20
-2.41229
11
1.90937
21
-2.41229
0
LINE
8
BLACK
6
CONTINUOUS
10
1.90937
20
-2.41229
11
1.90836
21
-2.41211
0
LINE
8
BLACK
6
CONTINUOUS
10
1.90836
20
-2.41211
11
1.90682
21
-2.41082
0
LINE
8
BLACK
6
CONTINUOUS
10
1.90682
20
-2.41082
11
1.90647
21
-2.40883
0
LINE
8
BLACK
6
CONTINUOUS
10
1.90647
20
-2.40883
11
1.90748
21
-2.40708
0
LINE
8
BLACK
6
CONTINUOUS
10
1.90748
20
-2.40708
11
1.90937
21
-2.40639
0
LINE
8
BLACK
6
CONTINUOUS
10
1.90937
20
-2.40639
11
1.91767
21
-2.40639
0
LINE
8
BLACK
6
CONTINUOUS
10
1.91767
20
-2.40639
11
1.91767
21
-2.37897
0
LINE
8
BLACK
6
CONTINUOUS
10
1.91767
20
-2.37897
11
1.91521
21
-2.38143
0
LINE
8
BLACK
6
CONTINUOUS
10
1.91521
20
-2.38143
11
1.91449
21
-2.38194
0
LINE
8
BLACK
6
CONTINUOUS
10
1.91449
20
-2.38194
11
1.91444
21
-2.38198
0
LINE
8
BLACK
6
CONTINUOUS
10
1.91444
20
-2.38198
11
1.91069
21
-2.38386
0
LINE
8
BLACK
6
CONTINUOUS
10
1.91069
20
-2.38386
11
1.90971
21
-2.38415
0
LINE
8
BLACK
6
CONTINUOUS
10
1.90971
20
-2.38415
11
1.90775
21
-2.38368
0
LINE
8
BLACK
6
CONTINUOUS
10
1.90775
20
-2.38368
11
1.90654
21
-2.38206
0
LINE
8
BLACK
6
CONTINUOUS
10
1.90654
20
-2.38206
11
1.90666
21
-2.38004
0
LINE
8
BLACK
6
CONTINUOUS
10
1.90666
20
-2.38004
11
1.90805
21
-2.37858
0
LINE
8
BLACK
6
CONTINUOUS
10
1.90805
20
-2.37858
11
1.91137
21
-2.37692
0
LINE
8
BLACK
6
CONTINUOUS
10
1.91137
20
-2.37692
11
1.91458
21
-2.37371
0
LINE
8
BLACK
6
CONTINUOUS
10
1.91458
20
-2.37371
11
1.91817
21
-2.36833
0
LINE
8
BLACK
6
CONTINUOUS
10
1.91817
20
-2.36833
11
1.91887
21
-2.36759
0
LINE
8
BLACK
6
CONTINUOUS
10
1.91887
20
-2.36759
11
1.91904
21
-2.36754
0
LINE
8
BLACK
6
CONTINUOUS
10
1.91904
20
-2.36754
11
1.91915
21
-2.36741
0
LINE
8
BLACK
6
CONTINUOUS
10
1.91915
20
-2.36741
11
1.91999
21
-2.36726
0
LINE
8
BLACK
6
CONTINUOUS
10
1.91999
20
-2.36726
11
1.92081
21
-2.36702
0
LINE
8
BLACK
6
CONTINUOUS
10
1.92081
20
-2.36702
11
1.92097
21
-2.36709
0
LINE
8
BLACK
6
CONTINUOUS
10
1.78657
20
-2.26861
11
1.79007
21
-2.27155
0
LINE
8
BLACK
6
CONTINUOUS
10
1.79007
20
-2.27155
11
1.79236
21
-2.2755
0
LINE
8
BLACK
6
CONTINUOUS
10
1.79236
20
-2.2755
11
1.79315
21
-2.28
0
LINE
8
BLACK
6
CONTINUOUS
10
1.79315
20
-2.28
11
1.79236
21
-2.2845
0
LINE
8
BLACK
6
CONTINUOUS
10
1.79236
20
-2.2845
11
1.79007
21
-2.28845
0
LINE
8
BLACK
6
CONTINUOUS
10
1.79007
20
-2.28845
11
1.78657
21
-2.29139
0
LINE
8
BLACK
6
CONTINUOUS
10
1.78657
20
-2.29139
11
1.78228
21
-2.29295
0
LINE
8
BLACK
6
CONTINUOUS
10
1.78228
20
-2.29295
11
1.77772
21
-2.29295
0
LINE
8
BLACK
6
CONTINUOUS
10
1.77772
20
-2.29295
11
1.77343
21
-2.29139
0
LINE
8
BLACK
6
CONTINUOUS
10
1.77343
20
-2.29139
11
1.76993
21
-2.28845
0
LINE
8
BLACK
6
CONTINUOUS
10
1.76993
20
-2.28845
11
1.76764
21
-2.2845
0
LINE
8
BLACK
6
CONTINUOUS
10
1.76764
20
-2.2845
11
1.76685
21
-2.28
0
LINE
8
BLACK
6
CONTINUOUS
10
1.76685
20
-2.28
11
1.76764
21
-2.2755
0
LINE
8
BLACK
6
CONTINUOUS
10
1.76764
20
-2.2755
11
1.76993
21
-2.27155
0
LINE
8
BLACK
6
CONTINUOUS
10
1.76993
20
-2.27155
11
1.77343
21
-2.26861
0
LINE
8
BLACK
6
CONTINUOUS
10
1.77343
20
-2.26861
11
1.77772
21
-2.26705
0
LINE
8
BLACK
6
CONTINUOUS
10
1.77772
20
-2.26705
11
1.78228
21
-2.26705
0
LINE
8
BLACK
6
CONTINUOUS
10
1.78228
20
-2.26705
11
1.78657
21
-2.26861
0
LINE
8
BLACK
6
CONTINUOUS
10
1.85976
20
-2.27607
11
1.85989
21
-2.27618
0
LINE
8
BLACK
6
CONTINUOUS
10
1.85989
20
-2.27618
11
1.86007
21
-2.2762
0
LINE
8
BLACK
6
CONTINUOUS
10
1.86007
20
-2.2762
11
1.86382
21
-2.27808
0
LINE
8
BLACK
6
CONTINUOUS
10
1.86382
20
-2.27808
11
1.86453
21
-2.2786
0
LINE
8
BLACK
6
CONTINUOUS
10
1.86453
20
-2.2786
11
1.86459
21
-2.27863
0
LINE
8
BLACK
6
CONTINUOUS
10
1.86459
20
-2.27863
11
1.86646
21
-2.2805
0
LINE
8
BLACK
6
CONTINUOUS
10
1.86646
20
-2.2805
11
1.86697
21
-2.28123
0
LINE
8
BLACK
6
CONTINUOUS
10
1.86697
20
-2.28123
11
1.86701
21
-2.28127
0
LINE
8
BLACK
6
CONTINUOUS
10
1.86701
20
-2.28127
11
1.86889
21
-2.28502
0
LINE
8
BLACK
6
CONTINUOUS
10
1.86889
20
-2.28502
11
1.86918
21
-2.286
0
LINE
8
BLACK
6
CONTINUOUS
10
1.86918
20
-2.286
11
1.86914
21
-2.28618
0
LINE
8
BLACK
6
CONTINUOUS
10
1.86914
20
-2.28618
11
1.8692
21
-2.28634
0
LINE
8
BLACK
6
CONTINUOUS
10
1.8692
20
-2.28634
11
1.8692
21
-2.29009
0
LINE
8
BLACK
6
CONTINUOUS
10
1.8692
20
-2.29009
11
1.86905
21
-2.29096
0
LINE
8
BLACK
6
CONTINUOUS
10
1.86905
20
-2.29096
11
1.86905
21
-2.29103
0
LINE
8
BLACK
6
CONTINUOUS
10
1.86905
20
-2.29103
11
1.86717
21
-2.29665
0
LINE
8
BLACK
6
CONTINUOUS
10
1.86717
20
-2.29665
11
1.86668
21
-2.29755
0
LINE
8
BLACK
6
CONTINUOUS
10
1.86668
20
-2.29755
11
1.86653
21
-2.29764
0
LINE
8
BLACK
6
CONTINUOUS
10
1.86653
20
-2.29764
11
1.86646
21
-2.2978
0
LINE
8
BLACK
6
CONTINUOUS
10
1.86646
20
-2.2978
11
1.849
21
-2.31526
0
LINE
8
BLACK
6
CONTINUOUS
10
1.849
20
-2.31526
11
1.86625
21
-2.31526
0
LINE
8
BLACK
6
CONTINUOUS
10
1.86625
20
-2.31526
11
1.86726
21
-2.31544
0
LINE
8
BLACK
6
CONTINUOUS
10
1.86726
20
-2.31544
11
1.8688
21
-2.31674
0
LINE
8
BLACK
6
CONTINUOUS
10
1.8688
20
-2.31674
11
1.86915
21
-2.31873
0
LINE
8
BLACK
6
CONTINUOUS
10
1.86915
20
-2.31873
11
1.86814
21
-2.32048
0
LINE
8
BLACK
6
CONTINUOUS
10
1.86814
20
-2.32048
11
1.86625
21
-2.32117
0
LINE
8
BLACK
6
CONTINUOUS
10
1.86625
20
-2.32117
11
1.84187
21
-2.32117
0
LINE
8
BLACK
6
CONTINUOUS
10
1.84187
20
-2.32117
11
1.84124
21
-2.32105
0
LINE
8
BLACK
6
CONTINUOUS
10
1.84124
20
-2.32105
11
1.84111
21
-2.32107
0
LINE
8
BLACK
6
CONTINUOUS
10
1.84111
20
-2.32107
11
1.84105
21
-2.32102
0
LINE
8
BLACK
6
CONTINUOUS
10
1.84105
20
-2.32102
11
1.84086
21
-2.32099
0
LINE
8
BLACK
6
CONTINUOUS
10
1.84086
20
-2.32099
11
1.84018
21
-2.32042
0
LINE
8
BLACK
6
CONTINUOUS
10
1.84018
20
-2.32042
11
1.83946
21
-2.31991
0
LINE
8
BLACK
6
CONTINUOUS
10
1.83946
20
-2.31991
11
1.83942
21
-2.31978
0
LINE
8
BLACK
6
CONTINUOUS
10
1.83942
20
-2.31978
11
1.83932
21
-2.31969
0
LINE
8
BLACK
6
CONTINUOUS
10
1.83932
20
-2.31969
11
1.83916
21
-2.31881
0
LINE
8
BLACK
6
CONTINUOUS
10
1.83916
20
-2.31881
11
1.83893
21
-2.31796
0
LINE
8
BLACK
6
CONTINUOUS
10
1.83893
20
-2.31796
11
1.83899
21
-2.31783
0
LINE
8
BLACK
6
CONTINUOUS
10
1.83899
20
-2.31783
11
1.83897
21
-2.3177
0
LINE
8
BLACK
6
CONTINUOUS
10
1.83897
20
-2.3177
11
1.83941
21
-2.31693
0
LINE
8
BLACK
6
CONTINUOUS
10
1.83941
20
-2.31693
11
1.83979
21
-2.31613
0
LINE
8
BLACK
6
CONTINUOUS
10
1.83979
20
-2.31613
11
1.86179
21
-2.29412
0
LINE
8
BLACK
6
CONTINUOUS
10
1.86179
20
-2.29412
11
1.86329
21
-2.28961
0
LINE
8
BLACK
6
CONTINUOUS
10
1.86329
20
-2.28961
11
1.86329
21
-2.28704
0
LINE
8
BLACK
6
CONTINUOUS
10
1.86329
20
-2.28704
11
1.86195
21
-2.28434
0
LINE
8
BLACK
6
CONTINUOUS
10
1.86195
20
-2.28434
11
1.86075
21
-2.28314
0
LINE
8
BLACK
6
CONTINUOUS
10
1.86075
20
-2.28314
11
1.85805
21
-2.2818
0
LINE
8
BLACK
6
CONTINUOUS
10
1.85805
20
-2.2818
11
1.85007
21
-2.2818
0
LINE
8
BLACK
6
CONTINUOUS
10
1.85007
20
-2.2818
11
1.84737
21
-2.28314
0
LINE
8
BLACK
6
CONTINUOUS
10
1.84737
20
-2.28314
11
1.84584
21
-2.28468
0
LINE
8
BLACK
6
CONTINUOUS
10
1.84584
20
-2.28468
11
1.845
21
-2.28527
0
LINE
8
BLACK
6
CONTINUOUS
10
1.845
20
-2.28527
11
1.84299
21
-2.28544
0
LINE
8
BLACK
6
CONTINUOUS
10
1.84299
20
-2.28544
11
1.84133
21
-2.28429
0
LINE
8
BLACK
6
CONTINUOUS
10
1.84133
20
-2.28429
11
1.84081
21
-2.28234
0
LINE
8
BLACK
6
CONTINUOUS
10
1.84081
20
-2.28234
11
1.84166
21
-2.2805
0
LINE
8
BLACK
6
CONTINUOUS
10
1.84166
20
-2.2805
11
1.84354
21
-2.27863
0
LINE
8
BLACK
6
CONTINUOUS
10
1.84354
20
-2.27863
11
1.84426
21
-2.27812
0
LINE
8
BLACK
6
CONTINUOUS
10
1.84426
20
-2.27812
11
1.8443
21
-2.27808
0
LINE
8
BLACK
6
CONTINUOUS
10
1.8443
20
-2.27808
11
1.84805
21
-2.2762
0
LINE
8
BLACK
6
CONTINUOUS
10
1.84805
20
-2.2762
11
1.84904
21
-2.27591
0
LINE
8
BLACK
6
CONTINUOUS
10
1.84904
20
-2.27591
11
1.84921
21
-2.27595
0
LINE
8
BLACK
6
CONTINUOUS
10
1.84921
20
-2.27595
11
1.84937
21
-2.27589
0
LINE
8
BLACK
6
CONTINUOUS
10
1.84937
20
-2.27589
11
1.85875
21
-2.27589
0
LINE
8
BLACK
6
CONTINUOUS
10
1.85875
20
-2.27589
11
1.85976
21
-2.27607
0
LINE
8
BLACK
6
CONTINUOUS
10
2.00264
20
-2.276
11
2.00302
21
-2.27594
0
LINE
8
BLACK
6
CONTINUOUS
10
2.00302
20
-2.27594
11
2.00358
21
-2.27626
0
LINE
8
BLACK
6
CONTINUOUS
10
2.00358
20
-2.27626
11
2.00421
21
-2.27643
0
LINE
8
BLACK
6
CONTINUOUS
10
2.00421
20
-2.27643
11
2.00443
21
-2.27675
0
LINE
8
BLACK
6
CONTINUOUS
10
2.00443
20
-2.27675
11
2.00477
21
-2.27695
0
LINE
8
BLACK
6
CONTINUOUS
10
2.00477
20
-2.27695
11
2.00499
21
-2.27755
0
LINE
8
BLACK
6
CONTINUOUS
10
2.00499
20
-2.27755
11
2.00536
21
-2.27808
0
LINE
8
BLACK
6
CONTINUOUS
10
2.00536
20
-2.27808
11
2.00533
21
-2.27847
0
LINE
8
BLACK
6
CONTINUOUS
10
2.00533
20
-2.27847
11
2.00546
21
-2.27884
0
LINE
8
BLACK
6
CONTINUOUS
10
2.00546
20
-2.27884
11
2.00546
21
-2.31821
0
LINE
8
BLACK
6
CONTINUOUS
10
2.00546
20
-2.31821
11
2.00529
21
-2.31922
0
LINE
8
BLACK
6
CONTINUOUS
10
2.00529
20
-2.31922
11
2.00399
21
-2.32077
0
LINE
8
BLACK
6
CONTINUOUS
10
2.00399
20
-2.32077
11
2.002
21
-2.32112
0
LINE
8
BLACK
6
CONTINUOUS
10
2.002
20
-2.32112
11
2.00025
21
-2.32011
0
LINE
8
BLACK
6
CONTINUOUS
10
2.00025
20
-2.32011
11
1.99956
21
-2.31821
0
LINE
8
BLACK
6
CONTINUOUS
10
1.99956
20
-2.31821
11
1.99956
21
-2.29215
0
LINE
8
BLACK
6
CONTINUOUS
10
1.99956
20
-2.29215
11
1.99206
21
-2.30821
0
LINE
8
BLACK
6
CONTINUOUS
10
1.99206
20
-2.30821
11
1.99184
21
-2.30853
0
LINE
8
BLACK
6
CONTINUOUS
10
1.99184
20
-2.30853
11
1.99181
21
-2.30866
0
LINE
8
BLACK
6
CONTINUOUS
10
1.99181
20
-2.30866
11
1.9917
21
-2.30873
0
LINE
8
BLACK
6
CONTINUOUS
10
1.9917
20
-2.30873
11
1.99148
21
-2.30905
0
LINE
8
BLACK
6
CONTINUOUS
10
1.99148
20
-2.30905
11
1.99078
21
-2.30938
0
LINE
8
BLACK
6
CONTINUOUS
10
1.99078
20
-2.30938
11
1.99015
21
-2.30982
0
LINE
8
BLACK
6
CONTINUOUS
10
1.99015
20
-2.30982
11
1.98989
21
-2.30979
0
LINE
8
BLACK
6
CONTINUOUS
10
1.98989
20
-2.30979
11
1.98965
21
-2.30991
0
LINE
8
BLACK
6
CONTINUOUS
10
1.98965
20
-2.30991
11
1.98891
21
-2.30971
0
LINE
8
BLACK
6
CONTINUOUS
10
1.98891
20
-2.30971
11
1.98814
21
-2.30964
0
LINE
8
BLACK
6
CONTINUOUS
10
1.98814
20
-2.30964
11
1.98795
21
-2.30945
0
LINE
8
BLACK
6
CONTINUOUS
10
1.98795
20
-2.30945
11
1.98769
21
-2.30938
0
LINE
8
BLACK
6
CONTINUOUS
10
1.98769
20
-2.30938
11
1.98726
21
-2.30876
0
LINE
8
BLACK
6
CONTINUOUS
10
1.98726
20
-2.30876
11
1.98671
21
-2.30821
0
LINE
8
BLACK
6
CONTINUOUS
10
1.98671
20
-2.30821
11
1.97922
21
-2.29215
0
LINE
8
BLACK
6
CONTINUOUS
10
1.97922
20
-2.29215
11
1.97922
21
-2.31821
0
LINE
8
BLACK
6
CONTINUOUS
10
1.97922
20
-2.31821
11
1.97904
21
-2.31922
0
LINE
8
BLACK
6
CONTINUOUS
10
1.97904
20
-2.31922
11
1.97774
21
-2.32077
0
LINE
8
BLACK
6
CONTINUOUS
10
1.97774
20
-2.32077
11
1.97575
21
-2.32112
0
LINE
8
BLACK
6
CONTINUOUS
10
1.97575
20
-2.32112
11
1.974
21
-2.32011
0
LINE
8
BLACK
6
CONTINUOUS
10
1.974
20
-2.32011
11
1.97331
21
-2.31821
0
LINE
8
BLACK
6
CONTINUOUS
10
1.97331
20
-2.31821
11
1.97331
21
-2.27884
0
LINE
8
BLACK
6
CONTINUOUS
10
1.97331
20
-2.27884
11
1.97349
21
-2.27783
0
LINE
8
BLACK
6
CONTINUOUS
10
1.97349
20
-2.27783
11
1.97374
21
-2.27753
0
LINE
8
BLACK
6
CONTINUOUS
10
1.97374
20
-2.27753
11
1.97385
21
-2.27715
0
LINE
8
BLACK
6
CONTINUOUS
10
1.97385
20
-2.27715
11
1.97437
21
-2.27678
0
LINE
8
BLACK
6
CONTINUOUS
10
1.97437
20
-2.27678
11
1.97479
21
-2.27629
0
LINE
8
BLACK
6
CONTINUOUS
10
1.97479
20
-2.27629
11
1.97518
21
-2.27622
0
LINE
8
BLACK
6
CONTINUOUS
10
1.97518
20
-2.27622
11
1.9755
21
-2.27599
0
LINE
8
BLACK
6
CONTINUOUS
10
1.9755
20
-2.27599
11
1.97614
21
-2.27605
0
LINE
8
BLACK
6
CONTINUOUS
10
1.97614
20
-2.27605
11
1.97678
21
-2.27594
0
LINE
8
BLACK
6
CONTINUOUS
10
1.97678
20
-2.27594
11
1.97712
21
-2.27613
0
LINE
8
BLACK
6
CONTINUOUS
10
1.97712
20
-2.27613
11
1.97751
21
-2.27617
0
LINE
8
BLACK
6
CONTINUOUS
10
1.97751
20
-2.27617
11
1.97797
21
-2.27662
0
LINE
8
BLACK
6
CONTINUOUS
10
1.97797
20
-2.27662
11
1.97853
21
-2.27695
0
LINE
8
BLACK
6
CONTINUOUS
10
1.97853
20
-2.27695
11
1.97866
21
-2.27732
0
LINE
8
BLACK
6
CONTINUOUS
10
1.97866
20
-2.27732
11
1.97894
21
-2.27759
0
LINE
8
BLACK
6
CONTINUOUS
10
1.97894
20
-2.27759
11
1.98939
21
-2.29998
0
LINE
8
BLACK
6
CONTINUOUS
10
1.98939
20
-2.29998
11
1.99984
21
-2.27759
0
LINE
8
BLACK
6
CONTINUOUS
10
1.99984
20
-2.27759
11
2.00042
21
-2.27675
0
LINE
8
BLACK
6
CONTINUOUS
10
2.00042
20
-2.27675
11
2.00078
21
-2.27659
0
LINE
8
BLACK
6
CONTINUOUS
10
2.00078
20
-2.27659
11
2.00104
21
-2.27629
0
LINE
8
BLACK
6
CONTINUOUS
10
2.00104
20
-2.27629
11
2.00167
21
-2.27617
0
LINE
8
BLACK
6
CONTINUOUS
10
2.00167
20
-2.27617
11
2.00226
21
-2.2759
0
LINE
8
BLACK
6
CONTINUOUS
10
2.00226
20
-2.2759
11
2.00264
21
-2.276
0
LINE
8
BLACK
6
CONTINUOUS
10
2.03352
20
-2.28919
11
2.03365
21
-2.28931
0
LINE
8
BLACK
6
CONTINUOUS
10
2.03365
20
-2.28931
11
2.03383
21
-2.28933
0
LINE
8
BLACK
6
CONTINUOUS
10
2.03383
20
-2.28933
11
2.03758
21
-2.2912
0
LINE
8
BLACK
6
CONTINUOUS
10
2.03758
20
-2.2912
11
2.03829
21
-2.29173
0
LINE
8
BLACK
6
CONTINUOUS
10
2.03829
20
-2.29173
11
2.03835
21
-2.29175
0
LINE
8
BLACK
6
CONTINUOUS
10
2.03835
20
-2.29175
11
2.04022
21
-2.29363
0
LINE
8
BLACK
6
CONTINUOUS
10
2.04022
20
-2.29363
11
2.04073
21
-2.29435
0
LINE
8
BLACK
6
CONTINUOUS
10
2.04073
20
-2.29435
11
2.04077
21
-2.2944
0
LINE
8
BLACK
6
CONTINUOUS
10
2.04077
20
-2.2944
11
2.04265
21
-2.29815
0
LINE
8
BLACK
6
CONTINUOUS
10
2.04265
20
-2.29815
11
2.04294
21
-2.29913
0
LINE
8
BLACK
6
CONTINUOUS
10
2.04294
20
-2.29913
11
2.0429
21
-2.2993
0
LINE
8
BLACK
6
CONTINUOUS
10
2.0429
20
-2.2993
11
2.04296
21
-2.29947
0
LINE
8
BLACK
6
CONTINUOUS
10
2.04296
20
-2.29947
11
2.04296
21
-2.31071
0
LINE
8
BLACK
6
CONTINUOUS
10
2.04296
20
-2.31071
11
2.04278
21
-2.31172
0
LINE
8
BLACK
6
CONTINUOUS
10
2.04278
20
-2.31172
11
2.04267
21
-2.31186
0
LINE
8
BLACK
6
CONTINUOUS
10
2.04267
20
-2.31186
11
2.04265
21
-2.31203
0
LINE
8
BLACK
6
CONTINUOUS
10
2.04265
20
-2.31203
11
2.04077
21
-2.31578
0
LINE
8
BLACK
6
CONTINUOUS
10
2.04077
20
-2.31578
11
2.04025
21
-2.31649
0
LINE
8
BLACK
6
CONTINUOUS
10
2.04025
20
-2.31649
11
2.04022
21
-2.31655
0
LINE
8
BLACK
6
CONTINUOUS
10
2.04022
20
-2.31655
11
2.03835
21
-2.31843
0
LINE
8
BLACK
6
CONTINUOUS
10
2.03835
20
-2.31843
11
2.03762
21
-2.31893
0
LINE
8
BLACK
6
CONTINUOUS
10
2.03762
20
-2.31893
11
2.03758
21
-2.31898
0
LINE
8
BLACK
6
CONTINUOUS
10
2.03758
20
-2.31898
11
2.03383
21
-2.32085
0
LINE
8
BLACK
6
CONTINUOUS
10
2.03383
20
-2.32085
11
2.03285
21
-2.32115
0
LINE
8
BLACK
6
CONTINUOUS
10
2.03285
20
-2.32115
11
2.03267
21
-2.32111
0
LINE
8
BLACK
6
CONTINUOUS
10
2.03267
20
-2.32111
11
2.03251
21
-2.32117
0
LINE
8
BLACK
6
CONTINUOUS
10
2.03251
20
-2.32117
11
2.02688
21
-2.32117
0
LINE
8
BLACK
6
CONTINUOUS
10
2.02688
20
-2.32117
11
2.02587
21
-2.32099
0
LINE
8
BLACK
6
CONTINUOUS
10
2.02587
20
-2.32099
11
2.02574
21
-2.32087
0
LINE
8
BLACK
6
CONTINUOUS
10
2.02574
20
-2.32087
11
2.02556
21
-2.32085
0
LINE
8
BLACK
6
CONTINUOUS
10
2.02556
20
-2.32085
11
2.02181
21
-2.31898
0
LINE
8
BLACK
6
CONTINUOUS
10
2.02181
20
-2.31898
11
2.0211
21
-2.31845
0
LINE
8
BLACK
6
CONTINUOUS
10
2.0211
20
-2.31845
11
2.02105
21
-2.31843
0
LINE
8
BLACK
6
CONTINUOUS
10
2.02105
20
-2.31843
11
2.01917
21
-2.31655
0
LINE
8
BLACK
6
CONTINUOUS
10
2.01917
20
-2.31655
11
2.01867
21
-2.31583
0
LINE
8
BLACK
6
CONTINUOUS
10
2.01867
20
-2.31583
11
2.01862
21
-2.31578
0
LINE
8
BLACK
6
CONTINUOUS
10
2.01862
20
-2.31578
11
2.01674
21
-2.31203
0
LINE
8
BLACK
6
CONTINUOUS
10
2.01674
20
-2.31203
11
2.01645
21
-2.31105
0
LINE
8
BLACK
6
CONTINUOUS
10
2.01645
20
-2.31105
11
2.01649
21
-2.31088
0
LINE
8
BLACK
6
CONTINUOUS
10
2.01649
20
-2.31088
11
2.01643
21
-2.31071
0
LINE
8
BLACK
6
CONTINUOUS
10
2.01643
20
-2.31071
11
2.01643
21
-2.29947
0
LINE
8
BLACK
6
CONTINUOUS
10
2.01643
20
-2.29947
11
2.01661
21
-2.29846
0
LINE
8
BLACK
6
CONTINUOUS
10
2.01661
20
-2.29846
11
2.01672
21
-2.29832
0
LINE
8
BLACK
6
CONTINUOUS
10
2.01672
20
-2.29832
11
2.01674
21
-2.29815
0
LINE
8
BLACK
6
CONTINUOUS
10
2.01674
20
-2.29815
11
2.01862
21
-2.2944
0
LINE
8
BLACK
6
CONTINUOUS
10
2.01862
20
-2.2944
11
2.01914
21
-2.29369
0
LINE
8
BLACK
6
CONTINUOUS
10
2.01914
20
-2.29369
11
2.01917
21
-2.29363
0
LINE
8
BLACK
6
CONTINUOUS
10
2.01917
20
-2.29363
11
2.02105
21
-2.29175
0
LINE
8
BLACK
6
CONTINUOUS
10
2.02105
20
-2.29175
11
2.02177
21
-2.29125
0
LINE
8
BLACK
6
CONTINUOUS
10
2.02177
20
-2.29125
11
2.02181
21
-2.2912
0
LINE
8
BLACK
6
CONTINUOUS
10
2.02181
20
-2.2912
11
2.02556
21
-2.28933
0
LINE
8
BLACK
6
CONTINUOUS
10
2.02556
20
-2.28933
11
2.02655
21
-2.28903
0
LINE
8
BLACK
6
CONTINUOUS
10
2.02655
20
-2.28903
11
2.02672
21
-2.28907
0
LINE
8
BLACK
6
CONTINUOUS
10
2.02672
20
-2.28907
11
2.02688
21
-2.28901
0
LINE
8
BLACK
6
CONTINUOUS
10
2.02688
20
-2.28901
11
2.03251
21
-2.28901
0
LINE
8
BLACK
6
CONTINUOUS
10
2.03251
20
-2.28901
11
2.03352
21
-2.28919
0
LINE
8
BLACK
6
CONTINUOUS
10
2.02488
20
-2.29627
11
2.02369
21
-2.29747
0
LINE
8
BLACK
6
CONTINUOUS
10
2.02369
20
-2.29747
11
2.02234
21
-2.30016
0
LINE
8
BLACK
6
CONTINUOUS
10
2.02234
20
-2.30016
11
2.02234
21
-2.31002
0
LINE
8
BLACK
6
CONTINUOUS
10
2.02234
20
-2.31002
11
2.02369
21
-2.31271
0
LINE
8
BLACK
6
CONTINUOUS
10
2.02369
20
-2.31271
11
2.02488
21
-2.31391
0
LINE
8
BLACK
6
CONTINUOUS
10
2.02488
20
-2.31391
11
2.02758
21
-2.31526
0
LINE
8
BLACK
6
CONTINUOUS
10
2.02758
20
-2.31526
11
2.03181
21
-2.31526
0
LINE
8
BLACK
6
CONTINUOUS
10
2.03181
20
-2.31526
11
2.03451
21
-2.31391
0
LINE
8
BLACK
6
CONTINUOUS
10
2.03451
20
-2.31391
11
2.03571
21
-2.31271
0
LINE
8
BLACK
6
CONTINUOUS
10
2.03571
20
-2.31271
11
2.03705
21
-2.31002
0
LINE
8
BLACK
6
CONTINUOUS
10
2.03705
20
-2.31002
11
2.03705
21
-2.30016
0
LINE
8
BLACK
6
CONTINUOUS
10
2.03705
20
-2.30016
11
2.03571
21
-2.29747
0
LINE
8
BLACK
6
CONTINUOUS
10
2.03571
20
-2.29747
11
2.03451
21
-2.29627
0
LINE
8
BLACK
6
CONTINUOUS
10
2.03451
20
-2.29627
11
2.03181
21
-2.29492
0
LINE
8
BLACK
6
CONTINUOUS
10
2.03181
20
-2.29492
11
2.02758
21
-2.29492
0
LINE
8
BLACK
6
CONTINUOUS
10
2.02758
20
-2.29492
11
2.02488
21
-2.29627
0
LINE
8
BLACK
6
CONTINUOUS
10
2.10288
20
-2.28919
11
2.10302
21
-2.28931
0
LINE
8
BLACK
6
CONTINUOUS
10
2.10302
20
-2.28931
11
2.1032
21
-2.28933
0
LINE
8
BLACK
6
CONTINUOUS
10
2.1032
20
-2.28933
11
2.10694
21
-2.2912
0
LINE
8
BLACK
6
CONTINUOUS
10
2.10694
20
-2.2912
11
2.10777
21
-2.29181
0
LINE
8
BLACK
6
CONTINUOUS
10
2.10777
20
-2.29181
11
2.10857
21
-2.29366
0
LINE
8
BLACK
6
CONTINUOUS
10
2.10857
20
-2.29366
11
2.108
21
-2.2956
0
LINE
8
BLACK
6
CONTINUOUS
10
2.108
20
-2.2956
11
2.10631
21
-2.29671
0
LINE
8
BLACK
6
CONTINUOUS
10
2.10631
20
-2.29671
11
2.1043
21
-2.29648
0
LINE
8
BLACK
6
CONTINUOUS
10
2.1043
20
-2.29648
11
2.10118
21
-2.29492
0
LINE
8
BLACK
6
CONTINUOUS
10
2.10118
20
-2.29492
11
2.09695
21
-2.29492
0
LINE
8
BLACK
6
CONTINUOUS
10
2.09695
20
-2.29492
11
2.0947
21
-2.29604
0
LINE
8
BLACK
6
CONTINUOUS
10
2.0947
20
-2.29604
11
2.09358
21
-2.29829
0
LINE
8
BLACK
6
CONTINUOUS
10
2.09358
20
-2.29829
11
2.09358
21
-2.29877
0
LINE
8
BLACK
6
CONTINUOUS
10
2.09358
20
-2.29877
11
2.0947
21
-2.30101
0
LINE
8
BLACK
6
CONTINUOUS
10
2.0947
20
-2.30101
11
2.09695
21
-2.30214
0
LINE
8
BLACK
6
CONTINUOUS
10
2.09695
20
-2.30214
11
2.10187
21
-2.30214
0
LINE
8
BLACK
6
CONTINUOUS
10
2.10187
20
-2.30214
11
2.10288
21
-2.30232
0
LINE
8
BLACK
6
CONTINUOUS
10
2.10288
20
-2.30232
11
2.10302
21
-2.30243
0
LINE
8
BLACK
6
CONTINUOUS
10
2.10302
20
-2.30243
11
2.1032
21
-2.30245
0
LINE
8
BLACK
6
CONTINUOUS
10
2.1032
20
-2.30245
11
2.10694
21
-2.30432
0
LINE
8
BLACK
6
CONTINUOUS
10
2.10694
20
-2.30432
11
2.10777
21
-2.30493
0
LINE
8
BLACK
6
CONTINUOUS
10
2.10777
20
-2.30493
11
2.10794
21
-2.30534
0
LINE
8
BLACK
6
CONTINUOUS
10
2.10794
20
-2.30534
11
2.10827
21
-2.30564
0
LINE
8
BLACK
6
CONTINUOUS
10
2.10827
20
-2.30564
11
2.11014
21
-2.30939
0
LINE
8
BLACK
6
CONTINUOUS
10
2.11014
20
-2.30939
11
2.11043
21
-2.31038
0
LINE
8
BLACK
6
CONTINUOUS
10
2.11043
20
-2.31038
11
2.11039
21
-2.31055
0
LINE
8
BLACK
6
CONTINUOUS
10
2.11039
20
-2.31055
11
2.11045
21
-2.31071
0
LINE
8
BLACK
6
CONTINUOUS
10
2.11045
20
-2.31071
11
2.11045
21
-2.31259
0
LINE
8
BLACK
6
CONTINUOUS
10
2.11045
20
-2.31259
11
2.11027
21
-2.3136
0
LINE
8
BLACK
6
CONTINUOUS
10
2.11027
20
-2.3136
11
2.11016
21
-2.31373
0
LINE
8
BLACK
6
CONTINUOUS
10
2.11016
20
-2.31373
11
2.11014
21
-2.31391
0
LINE
8
BLACK
6
CONTINUOUS
10
2.11014
20
-2.31391
11
2.10827
21
-2.31766
0
LINE
8
BLACK
6
CONTINUOUS
10
2.10827
20
-2.31766
11
2.10765
21
-2.31848
0
LINE
8
BLACK
6
CONTINUOUS
10
2.10765
20
-2.31848
11
2.10725
21
-2.31866
0
LINE
8
BLACK
6
CONTINUOUS
10
2.10725
20
-2.31866
11
2.10694
21
-2.31898
0
LINE
8
BLACK
6
CONTINUOUS
10
2.10694
20
-2.31898
11
2.1032
21
-2.32085
0
LINE
8
BLACK
6
CONTINUOUS
10
2.1032
20
-2.32085
11
2.10221
21
-2.32115
0
LINE
8
BLACK
6
CONTINUOUS
10
2.10221
20
-2.32115
11
2.10204
21
-2.32111
0
LINE
8
BLACK
6
CONTINUOUS
10
2.10204
20
-2.32111
11
2.10187
21
-2.32117
0
LINE
8
BLACK
6
CONTINUOUS
10
2.10187
20
-2.32117
11
2.09438
21
-2.32117
0
LINE
8
BLACK
6
CONTINUOUS
10
2.09438
20
-2.32117
11
2.09337
21
-2.32099
0
LINE
8
BLACK
6
CONTINUOUS
10
2.09337
20
-2.32099
11
2.09323
21
-2.32087
0
LINE
8
BLACK
6
CONTINUOUS
10
2.09323
20
-2.32087
11
2.09306
21
-2.32085
0
LINE
8
BLACK
6
CONTINUOUS
10
2.09306
20
-2.32085
11
2.08931
21
-2.31898
0
LINE
8
BLACK
6
CONTINUOUS
10
2.08931
20
-2.31898
11
2.08848
21
-2.31837
0
LINE
8
BLACK
6
CONTINUOUS
10
2.08848
20
-2.31837
11
2.08768
21
-2.31652
0
LINE
8
BLACK
6
CONTINUOUS
10
2.08768
20
-2.31652
11
2.08825
21
-2.31458
0
LINE
8
BLACK
6
CONTINUOUS
10
2.08825
20
-2.31458
11
2.08994
21
-2.31347
0
LINE
8
BLACK
6
CONTINUOUS
10
2.08994
20
-2.31347
11
2.09195
21
-2.3137
0
LINE
8
BLACK
6
CONTINUOUS
10
2.09195
20
-2.3137
11
2.09507
21
-2.31526
0
LINE
8
BLACK
6
CONTINUOUS
10
2.09507
20
-2.31526
11
2.10118
21
-2.31526
0
LINE
8
BLACK
6
CONTINUOUS
10
2.10118
20
-2.31526
11
2.10342
21
-2.31414
0
LINE
8
BLACK
6
CONTINUOUS
10
2.10342
20
-2.31414
11
2.10455
21
-2.31189
0
LINE
8
BLACK
6
CONTINUOUS
10
2.10455
20
-2.31189
11
2.10455
21
-2.31141
0
LINE
8
BLACK
6
CONTINUOUS
10
2.10455
20
-2.31141
11
2.10342
21
-2.30917
0
LINE
8
BLACK
6
CONTINUOUS
10
2.10342
20
-2.30917
11
2.10118
21
-2.30804
0
LINE
8
BLACK
6
CONTINUOUS
10
2.10118
20
-2.30804
11
2.09625
21
-2.30804
0
LINE
8
BLACK
6
CONTINUOUS
10
2.09625
20
-2.30804
11
2.09524
21
-2.30786
0
LINE
8
BLACK
6
CONTINUOUS
10
2.09524
20
-2.30786
11
2.09511
21
-2.30775
0
LINE
8
BLACK
6
CONTINUOUS
10
2.09511
20
-2.30775
11
2.09493
21
-2.30773
0
LINE
8
BLACK
6
CONTINUOUS
10
2.09493
20
-2.30773
11
2.09118
21
-2.30586
0
LINE
8
BLACK
6
CONTINUOUS
10
2.09118
20
-2.30586
11
2.09036
21
-2.30525
0
LINE
8
BLACK
6
CONTINUOUS
10
2.09036
20
-2.30525
11
2.09018
21
-2.30484
0
LINE
8
BLACK
6
CONTINUOUS
10
2.09018
20
-2.30484
11
2.08986
21
-2.30454
0
LINE
8
BLACK
6
CONTINUOUS
10
2.08986
20
-2.30454
11
2.08799
21
-2.30079
0
LINE
8
BLACK
6
CONTINUOUS
10
2.08799
20
-2.30079
11
2.08769
21
-2.2998
0
LINE
8
BLACK
6
CONTINUOUS
10
2.08769
20
-2.2998
11
2.08773
21
-2.29963
0
LINE
8
BLACK
6
CONTINUOUS
10
2.08773
20
-2.29963
11
2.08767
21
-2.29947
0
LINE
8
BLACK
6
CONTINUOUS
10
2.08767
20
-2.29947
11
2.08767
21
-2.29759
0
LINE
8
BLACK
6
CONTINUOUS
10
2.08767
20
-2.29759
11
2.08785
21
-2.29658
0
LINE
8
BLACK
6
CONTINUOUS
10
2.08785
20
-2.29658
11
2.08796
21
-2.29645
0
LINE
8
BLACK
6
CONTINUOUS
10
2.08796
20
-2.29645
11
2.08799
21
-2.29627
0
LINE
8
BLACK
6
CONTINUOUS
10
2.08799
20
-2.29627
11
2.08986
21
-2.29252
0
LINE
8
BLACK
6
CONTINUOUS
10
2.08986
20
-2.29252
11
2.09047
21
-2.2917
0
LINE
8
BLACK
6
CONTINUOUS
10
2.09047
20
-2.2917
11
2.09088
21
-2.29152
0
LINE
8
BLACK
6
CONTINUOUS
10
2.09088
20
-2.29152
11
2.09118
21
-2.2912
0
LINE
8
BLACK
6
CONTINUOUS
10
2.09118
20
-2.2912
11
2.09493
21
-2.28933
0
LINE
8
BLACK
6
CONTINUOUS
10
2.09493
20
-2.28933
11
2.09591
21
-2.28903
0
LINE
8
BLACK
6
CONTINUOUS
10
2.09591
20
-2.28903
11
2.09608
21
-2.28907
0
LINE
8
BLACK
6
CONTINUOUS
10
2.09608
20
-2.28907
11
2.09625
21
-2.28901
0
LINE
8
BLACK
6
CONTINUOUS
10
2.09625
20
-2.28901
11
2.10187
21
-2.28901
0
LINE
8
BLACK
6
CONTINUOUS
10
2.10187
20
-2.28901
11
2.10288
21
-2.28919
0
LINE
8
BLACK
6
CONTINUOUS
10
2.13663
20
-2.28919
11
2.13677
21
-2.28931
0
LINE
8
BLACK
6
CONTINUOUS
10
2.13677
20
-2.28931
11
2.13694
21
-2.28933
0
LINE
8
BLACK
6
CONTINUOUS
10
2.13694
20
-2.28933
11
2.14069
21
-2.2912
0
LINE
8
BLACK
6
CONTINUOUS
10
2.14069
20
-2.2912
11
2.14151
21
-2.29181
0
LINE
8
BLACK
6
CONTINUOUS
10
2.14151
20
-2.29181
11
2.14169
21
-2.29222
0
LINE
8
BLACK
6
CONTINUOUS
10
2.14169
20
-2.29222
11
2.14201
21
-2.29252
0
LINE
8
BLACK
6
CONTINUOUS
10
2.14201
20
-2.29252
11
2.14389
21
-2.29627
0
LINE
8
BLACK
6
CONTINUOUS
10
2.14389
20
-2.29627
11
2.14418
21
-2.29725
0
LINE
8
BLACK
6
CONTINUOUS
10
2.14418
20
-2.29725
11
2.14414
21
-2.29743
0
LINE
8
BLACK
6
CONTINUOUS
10
2.14414
20
-2.29743
11
2.1442
21
-2.29759
0
LINE
8
BLACK
6
CONTINUOUS
10
2.1442
20
-2.29759
11
2.1442
21
-2.30134
0
LINE
8
BLACK
6
CONTINUOUS
10
2.1442
20
-2.30134
11
2.14402
21
-2.30235
0
LINE
8
BLACK
6
CONTINUOUS
10
2.14402
20
-2.30235
11
2.14371
21
-2.30272
0
LINE
8
BLACK
6
CONTINUOUS
10
2.14371
20
-2.30272
11
2.14355
21
-2.30319
0
LINE
8
BLACK
6
CONTINUOUS
10
2.14355
20
-2.30319
11
2.14308
21
-2.30347
0
LINE
8
BLACK
6
CONTINUOUS
10
2.14308
20
-2.30347
11
2.14272
21
-2.3039
0
LINE
8
BLACK
6
CONTINUOUS
10
2.14272
20
-2.3039
11
2.14224
21
-2.30398
0
LINE
8
BLACK
6
CONTINUOUS
10
2.14224
20
-2.30398
11
2.14182
21
-2.30424
0
LINE
8
BLACK
6
CONTINUOUS
10
2.14182
20
-2.30424
11
2.12545
21
-2.30751
0
LINE
8
BLACK
6
CONTINUOUS
10
2.12545
20
-2.30751
11
2.12545
21
-2.31189
0
LINE
8
BLACK
6
CONTINUOUS
10
2.12545
20
-2.31189
11
2.12657
21
-2.31414
0
LINE
8
BLACK
6
CONTINUOUS
10
2.12657
20
-2.31414
11
2.12882
21
-2.31526
0
LINE
8
BLACK
6
CONTINUOUS
10
2.12882
20
-2.31526
11
2.13492
21
-2.31526
0
LINE
8
BLACK
6
CONTINUOUS
10
2.13492
20
-2.31526
11
2.13805
21
-2.3137
0
LINE
8
BLACK
6
CONTINUOUS
10
2.13805
20
-2.3137
11
2.13903
21
-2.31341
0
LINE
8
BLACK
6
CONTINUOUS
10
2.13903
20
-2.31341
11
2.141
21
-2.31387
0
LINE
8
BLACK
6
CONTINUOUS
10
2.141
20
-2.31387
11
2.1422
21
-2.3155
0
LINE
8
BLACK
6
CONTINUOUS
10
2.1422
20
-2.3155
11
2.14208
21
-2.31751
0
LINE
8
BLACK
6
CONTINUOUS
10
2.14208
20
-2.31751
11
2.14069
21
-2.31898
0
LINE
8
BLACK
6
CONTINUOUS
10
2.14069
20
-2.31898
11
2.13694
21
-2.32085
0
LINE
8
BLACK
6
CONTINUOUS
10
2.13694
20
-2.32085
11
2.13596
21
-2.32115
0
LINE
8
BLACK
6
CONTINUOUS
10
2.13596
20
-2.32115
11
2.13579
21
-2.32111
0
LINE
8
BLACK
6
CONTINUOUS
10
2.13579
20
-2.32111
11
2.13562
21
-2.32117
0
LINE
8
BLACK
6
CONTINUOUS
10
2.13562
20
-2.32117
11
2.12812
21
-2.32117
0
LINE
8
BLACK
6
CONTINUOUS
10
2.12812
20
-2.32117
11
2.12711
21
-2.32099
0
LINE
8
BLACK
6
CONTINUOUS
10
2.12711
20
-2.32099
11
2.12698
21
-2.32087
0
LINE
8
BLACK
6
CONTINUOUS
10
2.12698
20
-2.32087
11
2.1268
21
-2.32085
0
LINE
8
BLACK
6
CONTINUOUS
10
2.1268
20
-2.32085
11
2.12305
21
-2.31898
0
LINE
8
BLACK
6
CONTINUOUS
10
2.12305
20
-2.31898
11
2.12223
21
-2.31837
0
LINE
8
BLACK
6
CONTINUOUS
10
2.12223
20
-2.31837
11
2.12205
21
-2.31796
0
LINE
8
BLACK
6
CONTINUOUS
10
2.12205
20
-2.31796
11
2.12173
21
-2.31766
0
LINE
8
BLACK
6
CONTINUOUS
10
2.12173
20
-2.31766
11
2.11986
21
-2.31391
0
LINE
8
BLACK
6
CONTINUOUS
10
2.11986
20
-2.31391
11
2.11956
21
-2.31293
0
LINE
8
BLACK
6
CONTINUOUS
10
2.11956
20
-2.31293
11
2.1196
21
-2.31275
0
LINE
8
BLACK
6
CONTINUOUS
10
2.1196
20
-2.31275
11
2.11954
21
-2.31259
0
LINE
8
BLACK
6
CONTINUOUS
10
2.11954
20
-2.31259
11
2.11954
21
-2.29759
0
LINE
8
BLACK
6
CONTINUOUS
10
2.11954
20
-2.29759
11
2.11972
21
-2.29658
0
LINE
8
BLACK
6
CONTINUOUS
10
2.11972
20
-2.29658
11
2.11984
21
-2.29645
0
LINE
8
BLACK
6
CONTINUOUS
10
2.11984
20
-2.29645
11
2.11986
21
-2.29627
0
LINE
8
BLACK
6
CONTINUOUS
10
2.11986
20
-2.29627
11
2.12173
21
-2.29252
0
LINE
8
BLACK
6
CONTINUOUS
10
2.12173
20
-2.29252
11
2.12234
21
-2.2917
0
LINE
8
BLACK
6
CONTINUOUS
10
2.12234
20
-2.2917
11
2.12275
21
-2.29152
0
LINE
8
BLACK
6
CONTINUOUS
10
2.12275
20
-2.29152
11
2.12305
21
-2.2912
0
LINE
8
BLACK
6
CONTINUOUS
10
2.12305
20
-2.2912
11
2.1268
21
-2.28933
0
LINE
8
BLACK
6
CONTINUOUS
10
2.1268
20
-2.28933
11
2.12778
21
-2.28903
0
LINE
8
BLACK
6
CONTINUOUS
10
2.12778
20
-2.28903
11
2.12796
21
-2.28907
0
LINE
8
BLACK
6
CONTINUOUS
10
2.12796
20
-2.28907
11
2.12812
21
-2.28901
0
LINE
8
BLACK
6
CONTINUOUS
10
2.12812
20
-2.28901
11
2.13562
21
-2.28901
0
LINE
8
BLACK
6
CONTINUOUS
10
2.13562
20
-2.28901
11
2.13663
21
-2.28919
0
LINE
8
BLACK
6
CONTINUOUS
10
2.12657
20
-2.29604
11
2.12545
21
-2.29829
0
LINE
8
BLACK
6
CONTINUOUS
10
2.12545
20
-2.29829
11
2.12545
21
-2.30149
0
LINE
8
BLACK
6
CONTINUOUS
10
2.12545
20
-2.30149
11
2.13829
21
-2.29892
0
LINE
8
BLACK
6
CONTINUOUS
10
2.13829
20
-2.29892
11
2.13829
21
-2.29829
0
LINE
8
BLACK
6
CONTINUOUS
10
2.13829
20
-2.29829
11
2.13717
21
-2.29604
0
LINE
8
BLACK
6
CONTINUOUS
10
2.13717
20
-2.29604
11
2.13492
21
-2.29492
0
LINE
8
BLACK
6
CONTINUOUS
10
2.13492
20
-2.29492
11
2.12882
21
-2.29492
0
LINE
8
BLACK
6
CONTINUOUS
10
2.12882
20
-2.29492
11
2.12657
21
-2.29604
0
LINE
8
BLACK
6
CONTINUOUS
10
2.17975
20
-2.31919
11
2.1813
21
-2.32049
0
LINE
8
BLACK
6
CONTINUOUS
10
2.1813
20
-2.32049
11
2.18165
21
-2.32248
0
LINE
8
BLACK
6
CONTINUOUS
10
2.18165
20
-2.32248
11
2.18064
21
-2.32422
0
LINE
8
BLACK
6
CONTINUOUS
10
2.18064
20
-2.32422
11
2.17874
21
-2.32492
0
LINE
8
BLACK
6
CONTINUOUS
10
2.17874
20
-2.32492
11
2.14874
21
-2.32492
0
LINE
8
BLACK
6
CONTINUOUS
10
2.14874
20
-2.32492
11
2.14773
21
-2.32474
0
LINE
8
BLACK
6
CONTINUOUS
10
2.14773
20
-2.32474
11
2.14619
21
-2.32344
0
LINE
8
BLACK
6
CONTINUOUS
10
2.14619
20
-2.32344
11
2.14584
21
-2.32145
0
LINE
8
BLACK
6
CONTINUOUS
10
2.14584
20
-2.32145
11
2.14685
21
-2.3197
0
LINE
8
BLACK
6
CONTINUOUS
10
2.14685
20
-2.3197
11
2.14874
21
-2.31901
0
LINE
8
BLACK
6
CONTINUOUS
10
2.14874
20
-2.31901
11
2.17874
21
-2.31901
0
LINE
8
BLACK
6
CONTINUOUS
10
2.17874
20
-2.31901
11
2.17975
21
-2.31919
0
LINE
8
BLACK
6
CONTINUOUS
10
1.82914
20
-2.27695
11
1.82983
21
-2.27884
0
LINE
8
BLACK
6
CONTINUOUS
10
1.82983
20
-2.27884
11
1.82983
21
-2.30696
0
LINE
8
BLACK
6
CONTINUOUS
10
1.82983
20
-2.30696
11
1.82968
21
-2.30783
0
LINE
8
BLACK
6
CONTINUOUS
10
1.82968
20
-2.30783
11
1.82968
21
-2.3079
0
LINE
8
BLACK
6
CONTINUOUS
10
1.82968
20
-2.3079
11
1.8278
21
-2.31352
0
LINE
8
BLACK
6
CONTINUOUS
10
1.8278
20
-2.31352
11
1.82731
21
-2.31442
0
LINE
8
BLACK
6
CONTINUOUS
10
1.82731
20
-2.31442
11
1.82716
21
-2.31452
0
LINE
8
BLACK
6
CONTINUOUS
10
1.82716
20
-2.31452
11
1.82709
21
-2.31468
0
LINE
8
BLACK
6
CONTINUOUS
10
1.82709
20
-2.31468
11
1.82334
21
-2.31843
0
LINE
8
BLACK
6
CONTINUOUS
10
1.82334
20
-2.31843
11
1.8225
21
-2.31901
0
LINE
8
BLACK
6
CONTINUOUS
10
1.8225
20
-2.31901
11
1.82232
21
-2.31903
0
LINE
8
BLACK
6
CONTINUOUS
10
1.82232
20
-2.31903
11
1.82219
21
-2.31914
0
LINE
8
BLACK
6
CONTINUOUS
10
1.82219
20
-2.31914
11
1.81656
21
-2.32101
0
LINE
8
BLACK
6
CONTINUOUS
10
1.81656
20
-2.32101
11
1.81569
21
-2.32114
0
LINE
8
BLACK
6
CONTINUOUS
10
1.81569
20
-2.32114
11
1.81563
21
-2.32117
0
LINE
8
BLACK
6
CONTINUOUS
10
1.81563
20
-2.32117
11
1.81188
21
-2.32117
0
LINE
8
BLACK
6
CONTINUOUS
10
1.81188
20
-2.32117
11
1.81087
21
-2.32099
0
LINE
8
BLACK
6
CONTINUOUS
10
1.81087
20
-2.32099
11
1.80932
21
-2.31969
0
LINE
8
BLACK
6
CONTINUOUS
10
1.80932
20
-2.31969
11
1.80897
21
-2.3177
0
LINE
8
BLACK
6
CONTINUOUS
10
1.80897
20
-2.3177
11
1.80998
21
-2.31595
0
LINE
8
BLACK
6
CONTINUOUS
10
1.80998
20
-2.31595
11
1.81188
21
-2.31526
0
LINE
8
BLACK
6
CONTINUOUS
10
1.81188
20
-2.31526
11
1.81515
21
-2.31526
0
LINE
8
BLACK
6
CONTINUOUS
10
1.81515
20
-2.31526
11
1.81966
21
-2.31376
0
LINE
8
BLACK
6
CONTINUOUS
10
1.81966
20
-2.31376
11
1.82242
21
-2.31099
0
LINE
8
BLACK
6
CONTINUOUS
10
1.82242
20
-2.31099
11
1.82392
21
-2.30649
0
LINE
8
BLACK
6
CONTINUOUS
10
1.82392
20
-2.30649
11
1.82392
21
-2.27884
0
LINE
8
BLACK
6
CONTINUOUS
10
1.82392
20
-2.27884
11
1.8241
21
-2.27783
0
LINE
8
BLACK
6
CONTINUOUS
10
1.8241
20
-2.27783
11
1.8254
21
-2.27629
0
LINE
8
BLACK
6
CONTINUOUS
10
1.8254
20
-2.27629
11
1.82739
21
-2.27594
0
LINE
8
BLACK
6
CONTINUOUS
10
1.82739
20
-2.27594
11
1.82914
21
-2.27695
0
LINE
8
BLACK
6
CONTINUOUS
10
2.07602
20
-2.29007
11
2.07671
21
-2.29197
0
LINE
8
BLACK
6
CONTINUOUS
10
2.07671
20
-2.29197
11
2.07671
21
-2.31821
0
LINE
8
BLACK
6
CONTINUOUS
10
2.07671
20
-2.31821
11
2.07653
21
-2.31922
0
LINE
8
BLACK
6
CONTINUOUS
10
2.07653
20
-2.31922
11
2.07523
21
-2.32077
0
LINE
8
BLACK
6
CONTINUOUS
10
2.07523
20
-2.32077
11
2.07324
21
-2.32112
0
LINE
8
BLACK
6
CONTINUOUS
10
2.07324
20
-2.32112
11
2.07149
21
-2.32011
0
LINE
8
BLACK
6
CONTINUOUS
10
2.07149
20
-2.32011
11
2.07141
21
-2.31988
0
LINE
8
BLACK
6
CONTINUOUS
10
2.07141
20
-2.31988
11
2.06945
21
-2.32085
0
LINE
8
BLACK
6
CONTINUOUS
10
2.06945
20
-2.32085
11
2.06847
21
-2.32115
0
LINE
8
BLACK
6
CONTINUOUS
10
2.06847
20
-2.32115
11
2.06829
21
-2.32111
0
LINE
8
BLACK
6
CONTINUOUS
10
2.06829
20
-2.32111
11
2.06813
21
-2.32117
0
LINE
8
BLACK
6
CONTINUOUS
10
2.06813
20
-2.32117
11
2.0625
21
-2.32117
0
LINE
8
BLACK
6
CONTINUOUS
10
2.0625
20
-2.32117
11
2.06149
21
-2.32099
0
LINE
8
BLACK
6
CONTINUOUS
10
2.06149
20
-2.32099
11
2.06136
21
-2.32087
0
LINE
8
BLACK
6
CONTINUOUS
10
2.06136
20
-2.32087
11
2.06118
21
-2.32085
0
LINE
8
BLACK
6
CONTINUOUS
10
2.06118
20
-2.32085
11
2.05743
21
-2.31898
0
LINE
8
BLACK
6
CONTINUOUS
10
2.05743
20
-2.31898
11
2.05661
21
-2.31837
0
LINE
8
BLACK
6
CONTINUOUS
10
2.05661
20
-2.31837
11
2.05644
21
-2.31796
0
LINE
8
BLACK
6
CONTINUOUS
10
2.05644
20
-2.31796
11
2.05611
21
-2.31766
0
LINE
8
BLACK
6
CONTINUOUS
10
2.05611
20
-2.31766
11
2.05424
21
-2.31391
0
LINE
8
BLACK
6
CONTINUOUS
10
2.05424
20
-2.31391
11
2.05395
21
-2.31293
0
LINE
8
BLACK
6
CONTINUOUS
10
2.05395
20
-2.31293
11
2.05399
21
-2.31275
0
LINE
8
BLACK
6
CONTINUOUS
10
2.05399
20
-2.31275
11
2.05393
21
-2.31259
0
LINE
8
BLACK
6
CONTINUOUS
10
2.05393
20
-2.31259
11
2.05393
21
-2.29197
0
LINE
8
BLACK
6
CONTINUOUS
10
2.05393
20
-2.29197
11
2.05411
21
-2.29096
0
LINE
8
BLACK
6
CONTINUOUS
10
2.05411
20
-2.29096
11
2.0554
21
-2.28941
0
LINE
8
BLACK
6
CONTINUOUS
10
2.0554
20
-2.28941
11
2.05739
21
-2.28906
0
LINE
8
BLACK
6
CONTINUOUS
10
2.05739
20
-2.28906
11
2.05914
21
-2.29007
0
LINE
8
BLACK
6
CONTINUOUS
10
2.05914
20
-2.29007
11
2.05983
21
-2.29197
0
LINE
8
BLACK
6
CONTINUOUS
10
2.05983
20
-2.29197
11
2.05983
21
-2.31189
0
LINE
8
BLACK
6
CONTINUOUS
10
2.05983
20
-2.31189
11
2.06096
21
-2.31414
0
LINE
8
BLACK
6
CONTINUOUS
10
2.06096
20
-2.31414
11
2.0632
21
-2.31526
0
LINE
8
BLACK
6
CONTINUOUS
10
2.0632
20
-2.31526
11
2.06743
21
-2.31526
0
LINE
8
BLACK
6
CONTINUOUS
10
2.06743
20
-2.31526
11
2.07013
21
-2.31391
0
LINE
8
BLACK
6
CONTINUOUS
10
2.07013
20
-2.31391
11
2.0708
21
-2.31324
0
LINE
8
BLACK
6
CONTINUOUS
10
2.0708
20
-2.31324
11
2.0708
21
-2.29197
0
LINE
8
BLACK
6
CONTINUOUS
10
2.0708
20
-2.29197
11
2.07098
21
-2.29096
0
LINE
8
BLACK
6
CONTINUOUS
10
2.07098
20
-2.29096
11
2.07228
21
-2.28941
0
LINE
8
BLACK
6
CONTINUOUS
10
2.07228
20
-2.28941
11
2.07427
21
-2.28906
0
LINE
8
BLACK
6
CONTINUOUS
10
2.07427
20
-2.28906
11
2.07602
21
-2.29007
0
LINE
8
BLACK
6
CONTINUOUS
10
2.19038
20
-2.29007
11
2.19107
21
-2.29197
0
LINE
8
BLACK
6
CONTINUOUS
10
2.19107
20
-2.29197
11
2.19107
21
-2.31821
0
LINE
8
BLACK
6
CONTINUOUS
10
2.19107
20
-2.31821
11
2.19089
21
-2.31922
0
LINE
8
BLACK
6
CONTINUOUS
10
2.19089
20
-2.31922
11
2.18959
21
-2.32077
0
LINE
8
BLACK
6
CONTINUOUS
10
2.18959
20
-2.32077
11
2.1876
21
-2.32112
0
LINE
8
BLACK
6
CONTINUOUS
10
2.1876
20
-2.32112
11
2.18585
21
-2.32011
0
LINE
8
BLACK
6
CONTINUOUS
10
2.18585
20
-2.32011
11
2.18516
21
-2.31821
0
LINE
8
BLACK
6
CONTINUOUS
10
2.18516
20
-2.31821
11
2.18516
21
-2.29197
0
LINE
8
BLACK
6
CONTINUOUS
10
2.18516
20
-2.29197
11
2.18534
21
-2.29096
0
LINE
8
BLACK
6
CONTINUOUS
10
2.18534
20
-2.29096
11
2.18664
21
-2.28941
0
LINE
8
BLACK
6
CONTINUOUS
10
2.18664
20
-2.28941
11
2.18863
21
-2.28906
0
LINE
8
BLACK
6
CONTINUOUS
10
2.18863
20
-2.28906
11
2.19038
21
-2.29007
0
LINE
8
BLACK
6
CONTINUOUS
10
2.21912
20
-2.28919
11
2.21926
21
-2.28931
0
LINE
8
BLACK
6
CONTINUOUS
10
2.21926
20
-2.28931
11
2.21943
21
-2.28933
0
LINE
8
BLACK
6
CONTINUOUS
10
2.21943
20
-2.28933
11
2.22318
21
-2.2912
0
LINE
8
BLACK
6
CONTINUOUS
10
2.22318
20
-2.2912
11
2.224
21
-2.29181
0
LINE
8
BLACK
6
CONTINUOUS
10
2.224
20
-2.29181
11
2.22418
21
-2.29222
0
LINE
8
BLACK
6
CONTINUOUS
10
2.22418
20
-2.29222
11
2.2245
21
-2.29252
0
LINE
8
BLACK
6
CONTINUOUS
10
2.2245
20
-2.29252
11
2.22638
21
-2.29627
0
LINE
8
BLACK
6
CONTINUOUS
10
2.22638
20
-2.29627
11
2.22667
21
-2.29725
0
LINE
8
BLACK
6
CONTINUOUS
10
2.22667
20
-2.29725
11
2.22663
21
-2.29743
0
LINE
8
BLACK
6
CONTINUOUS
10
2.22663
20
-2.29743
11
2.22669
21
-2.29759
0
LINE
8
BLACK
6
CONTINUOUS
10
2.22669
20
-2.29759
11
2.22669
21
-2.31821
0
LINE
8
BLACK
6
CONTINUOUS
10
2.22669
20
-2.31821
11
2.22651
21
-2.31922
0
LINE
8
BLACK
6
CONTINUOUS
10
2.22651
20
-2.31922
11
2.22521
21
-2.32077
0
LINE
8
BLACK
6
CONTINUOUS
10
2.22521
20
-2.32077
11
2.22322
21
-2.32112
0
LINE
8
BLACK
6
CONTINUOUS
10
2.22322
20
-2.32112
11
2.22147
21
-2.32011
0
LINE
8
BLACK
6
CONTINUOUS
10
2.22147
20
-2.32011
11
2.22078
21
-2.31821
0
LINE
8
BLACK
6
CONTINUOUS
10
2.22078
20
-2.31821
11
2.22078
21
-2.29829
0
LINE
8
BLACK
6
CONTINUOUS
10
2.22078
20
-2.29829
11
2.21966
21
-2.29604
0
LINE
8
BLACK
6
CONTINUOUS
10
2.21966
20
-2.29604
11
2.21741
21
-2.29492
0
LINE
8
BLACK
6
CONTINUOUS
10
2.21741
20
-2.29492
11
2.21318
21
-2.29492
0
LINE
8
BLACK
6
CONTINUOUS
10
2.21318
20
-2.29492
11
2.21049
21
-2.29627
0
LINE
8
BLACK
6
CONTINUOUS
10
2.21049
20
-2.29627
11
2.20981
21
-2.29694
0
LINE
8
BLACK
6
CONTINUOUS
10
2.20981
20
-2.29694
11
2.20981
21
-2.31821
0
LINE
8
BLACK
6
CONTINUOUS
10
2.20981
20
-2.31821
11
2.20964
21
-2.31922
0
LINE
8
BLACK
6
CONTINUOUS
10
2.20964
20
-2.31922
11
2.20834
21
-2.32077
0
LINE
8
BLACK
6
CONTINUOUS
10
2.20834
20
-2.32077
11
2.20635
21
-2.32112
0
LINE
8
BLACK
6
CONTINUOUS
10
2.20635
20
-2.32112
11
2.2046
21
-2.32011
0
LINE
8
BLACK
6
CONTINUOUS
10
2.2046
20
-2.32011
11
2.20391
21
-2.31821
0
LINE
8
BLACK
6
CONTINUOUS
10
2.20391
20
-2.31821
11
2.20391
21
-2.29197
0
LINE
8
BLACK
6
CONTINUOUS
10
2.20391
20
-2.29197
11
2.20409
21
-2.29096
0
LINE
8
BLACK
6
CONTINUOUS
10
2.20409
20
-2.29096
11
2.20539
21
-2.28941
0
LINE
8
BLACK
6
CONTINUOUS
10
2.20539
20
-2.28941
11
2.20737
21
-2.28906
0
LINE
8
BLACK
6
CONTINUOUS
10
2.20737
20
-2.28906
11
2.20912
21
-2.29007
0
LINE
8
BLACK
6
CONTINUOUS
10
2.20912
20
-2.29007
11
2.20921
21
-2.2903
0
LINE
8
BLACK
6
CONTINUOUS
10
2.20921
20
-2.2903
11
2.21117
21
-2.28933
0
LINE
8
BLACK
6
CONTINUOUS
10
2.21117
20
-2.28933
11
2.21215
21
-2.28903
0
LINE
8
BLACK
6
CONTINUOUS
10
2.21215
20
-2.28903
11
2.21232
21
-2.28907
0
LINE
8
BLACK
6
CONTINUOUS
10
2.21232
20
-2.28907
11
2.21249
21
-2.28901
0
LINE
8
BLACK
6
CONTINUOUS
10
2.21249
20
-2.28901
11
2.21811
21
-2.28901
0
LINE
8
BLACK
6
CONTINUOUS
10
2.21811
20
-2.28901
11
2.21912
21
-2.28919
0
LINE
8
BLACK
6
CONTINUOUS
10
2.18849
20
-2.27596
11
2.18863
21
-2.27594
0
LINE
8
BLACK
6
CONTINUOUS
10
2.18863
20
-2.27594
11
2.18874
21
-2.276
0
LINE
8
BLACK
6
CONTINUOUS
10
2.18874
20
-2.276
11
2.18888
21
-2.27599
0
LINE
8
BLACK
6
CONTINUOUS
10
2.18888
20
-2.27599
11
2.18951
21
-2.27643
0
LINE
8
BLACK
6
CONTINUOUS
10
2.18951
20
-2.27643
11
2.1902
21
-2.27676
0
LINE
8
BLACK
6
CONTINUOUS
10
2.1902
20
-2.27676
11
2.19208
21
-2.27863
0
LINE
8
BLACK
6
CONTINUOUS
10
2.19208
20
-2.27863
11
2.1923
21
-2.27895
0
LINE
8
BLACK
6
CONTINUOUS
10
2.1923
20
-2.27895
11
2.19241
21
-2.27902
0
LINE
8
BLACK
6
CONTINUOUS
10
2.19241
20
-2.27902
11
2.19244
21
-2.27915
0
LINE
8
BLACK
6
CONTINUOUS
10
2.19244
20
-2.27915
11
2.19266
21
-2.27947
0
LINE
8
BLACK
6
CONTINUOUS
10
2.19266
20
-2.27947
11
2.19273
21
-2.28023
0
LINE
8
BLACK
6
CONTINUOUS
10
2.19273
20
-2.28023
11
2.19293
21
-2.28098
0
LINE
8
BLACK
6
CONTINUOUS
10
2.19293
20
-2.28098
11
2.19282
21
-2.28122
0
LINE
8
BLACK
6
CONTINUOUS
10
2.19282
20
-2.28122
11
2.19284
21
-2.28148
0
LINE
8
BLACK
6
CONTINUOUS
10
2.19284
20
-2.28148
11
2.1924
21
-2.28211
0
LINE
8
BLACK
6
CONTINUOUS
10
2.1924
20
-2.28211
11
2.19208
21
-2.28281
0
LINE
8
BLACK
6
CONTINUOUS
10
2.19208
20
-2.28281
11
2.1902
21
-2.28468
0
LINE
8
BLACK
6
CONTINUOUS
10
2.1902
20
-2.28468
11
2.18988
21
-2.2849
0
LINE
8
BLACK
6
CONTINUOUS
10
2.18988
20
-2.2849
11
2.18981
21
-2.28501
0
LINE
8
BLACK
6
CONTINUOUS
10
2.18981
20
-2.28501
11
2.18968
21
-2.28505
0
LINE
8
BLACK
6
CONTINUOUS
10
2.18968
20
-2.28505
11
2.18967
21
-2.28505
0
LINE
8
BLACK
6
CONTINUOUS
10
2.18967
20
-2.28505
11
2.18959
21
-2.28515
0
LINE
8
BLACK
6
CONTINUOUS
10
2.18959
20
-2.28515
11
2.18951
21
-2.28516
0
LINE
8
BLACK
6
CONTINUOUS
10
2.18951
20
-2.28516
11
2.18936
21
-2.28527
0
LINE
8
BLACK
6
CONTINUOUS
10
2.18936
20
-2.28527
11
2.1886
21
-2.28534
0
LINE
8
BLACK
6
CONTINUOUS
10
2.1886
20
-2.28534
11
2.18786
21
-2.28553
0
LINE
8
BLACK
6
CONTINUOUS
10
2.18786
20
-2.28553
11
2.18773
21
-2.28548
0
LINE
8
BLACK
6
CONTINUOUS
10
2.18773
20
-2.28548
11
2.1876
21
-2.2855
0
LINE
8
BLACK
6
CONTINUOUS
10
2.1876
20
-2.2855
11
2.18748
21
-2.28543
0
LINE
8
BLACK
6
CONTINUOUS
10
2.18748
20
-2.28543
11
2.18735
21
-2.28544
0
LINE
8
BLACK
6
CONTINUOUS
10
2.18735
20
-2.28544
11
2.18672
21
-2.285
0
LINE
8
BLACK
6
CONTINUOUS
10
2.18672
20
-2.285
11
2.18603
21
-2.28468
0
LINE
8
BLACK
6
CONTINUOUS
10
2.18603
20
-2.28468
11
2.18415
21
-2.28281
0
LINE
8
BLACK
6
CONTINUOUS
10
2.18415
20
-2.28281
11
2.18393
21
-2.28249
0
LINE
8
BLACK
6
CONTINUOUS
10
2.18393
20
-2.28249
11
2.18382
21
-2.28241
0
LINE
8
BLACK
6
CONTINUOUS
10
2.18382
20
-2.28241
11
2.18379
21
-2.28228
0
LINE
8
BLACK
6
CONTINUOUS
10
2.18379
20
-2.28228
11
2.18356
21
-2.28197
0
LINE
8
BLACK
6
CONTINUOUS
10
2.18356
20
-2.28197
11
2.1835
21
-2.2812
0
LINE
8
BLACK
6
CONTINUOUS
10
2.1835
20
-2.2812
11
2.1833
21
-2.28046
0
LINE
8
BLACK
6
CONTINUOUS
10
2.1833
20
-2.28046
11
2.18341
21
-2.28022
0
LINE
8
BLACK
6
CONTINUOUS
10
2.18341
20
-2.28022
11
2.18339
21
-2.27995
0
LINE
8
BLACK
6
CONTINUOUS
10
2.18339
20
-2.27995
11
2.18383
21
-2.27933
0
LINE
8
BLACK
6
CONTINUOUS
10
2.18383
20
-2.27933
11
2.18415
21
-2.27863
0
LINE
8
BLACK
6
CONTINUOUS
10
2.18415
20
-2.27863
11
2.18603
21
-2.27676
0
LINE
8
BLACK
6
CONTINUOUS
10
2.18603
20
-2.27676
11
2.18635
21
-2.27653
0
LINE
8
BLACK
6
CONTINUOUS
10
2.18635
20
-2.27653
11
2.18642
21
-2.27642
0
LINE
8
BLACK
6
CONTINUOUS
10
2.18642
20
-2.27642
11
2.18655
21
-2.27639
0
LINE
8
BLACK
6
CONTINUOUS
10
2.18655
20
-2.27639
11
2.18655
21
-2.27639
0
LINE
8
BLACK
6
CONTINUOUS
10
2.18655
20
-2.27639
11
2.18664
21
-2.27629
0
LINE
8
BLACK
6
CONTINUOUS
10
2.18664
20
-2.27629
11
2.18672
21
-2.27627
0
LINE
8
BLACK
6
CONTINUOUS
10
2.18672
20
-2.27627
11
2.18687
21
-2.27617
0
LINE
8
BLACK
6
CONTINUOUS
10
2.18687
20
-2.27617
11
2.18763
21
-2.2761
0
LINE
8
BLACK
6
CONTINUOUS
10
2.18763
20
-2.2761
11
2.18837
21
-2.2759
0
LINE
8
BLACK
6
CONTINUOUS
10
2.18837
20
-2.2759
11
2.18849
21
-2.27596
  0
ENDSEC
  0
EOF
