%TF.GenerationSoftware,KiCad,Pcbnew,7.0.1-0*%
%TF.CreationDate,2023-04-20T22:45:14-04:00*%
%TF.ProjectId,Mousy,4d6f7573-792e-46b6-9963-61645f706362,rev?*%
%TF.SameCoordinates,Original*%
%TF.FileFunction,Legend,Bot*%
%TF.FilePolarity,Positive*%
%FSLAX46Y46*%
G04 Gerber Fmt 4.6, Leading zero omitted, Abs format (unit mm)*
G04 Created by KiCad (PCBNEW 7.0.1-0) date 2023-04-20 22:45:14*
%MOMM*%
%LPD*%
G01*
G04 APERTURE LIST*
%ADD10C,1.498600*%
%ADD11C,4.048000*%
G04 APERTURE END LIST*
%TO.C,Logo1*%
G36*
X201412051Y-69931493D02*
G01*
X201384096Y-70741333D01*
X201220514Y-71889820D01*
X200937834Y-72961293D01*
X200538564Y-73946166D01*
X200025213Y-74834854D01*
X199400292Y-75617772D01*
X199365267Y-75655823D01*
X199103146Y-76008304D01*
X198967243Y-76356380D01*
X198958858Y-76392668D01*
X198888044Y-76665353D01*
X198789591Y-77011169D01*
X198682113Y-77364311D01*
X198478219Y-78009750D01*
X190425110Y-78009750D01*
X190110339Y-78009772D01*
X188819791Y-78010260D01*
X187677379Y-78010906D01*
X186674455Y-78011076D01*
X185802374Y-78010135D01*
X185052488Y-78007449D01*
X184416150Y-78002383D01*
X183884714Y-77994301D01*
X183449532Y-77982570D01*
X183101959Y-77966554D01*
X182833346Y-77945620D01*
X182635047Y-77919131D01*
X182498416Y-77886454D01*
X182414805Y-77846954D01*
X182375568Y-77799995D01*
X182372058Y-77744944D01*
X182395628Y-77681166D01*
X182437630Y-77608025D01*
X182489419Y-77524888D01*
X182542348Y-77431119D01*
X182663996Y-77203694D01*
X182801842Y-76968603D01*
X183003041Y-76968603D01*
X183285272Y-77409801D01*
X183567504Y-77851000D01*
X187927082Y-77851000D01*
X192286660Y-77851000D01*
X192468861Y-77671624D01*
X192509989Y-77637539D01*
X192710279Y-77519608D01*
X192998073Y-77386931D01*
X193325750Y-77262260D01*
X193471928Y-77212204D01*
X193747676Y-77116369D01*
X193943400Y-77046366D01*
X194023909Y-77014675D01*
X194021134Y-76995287D01*
X193968245Y-76866383D01*
X193864008Y-76644849D01*
X193723437Y-76363236D01*
X193525378Y-75933981D01*
X193336766Y-75361797D01*
X193265821Y-74858849D01*
X193315712Y-74440081D01*
X193357741Y-74326306D01*
X193575680Y-73978191D01*
X193901506Y-73655006D01*
X194298680Y-73395577D01*
X194395696Y-73348204D01*
X194719049Y-73209562D01*
X195080352Y-73075242D01*
X195433931Y-72960460D01*
X195734110Y-72880432D01*
X195935216Y-72850375D01*
X196022916Y-72855015D01*
X196079147Y-72889428D01*
X195988874Y-72954749D01*
X195757509Y-73047848D01*
X195390461Y-73165594D01*
X194969493Y-73301864D01*
X194543090Y-73478855D01*
X194194410Y-73681938D01*
X193878555Y-73933928D01*
X193685028Y-74142579D01*
X193510796Y-74469035D01*
X193451508Y-74846744D01*
X193507669Y-75289725D01*
X193679783Y-75812001D01*
X193968357Y-76427591D01*
X194072435Y-76633802D01*
X194193643Y-76915280D01*
X194229805Y-77094075D01*
X194182996Y-77189048D01*
X194055285Y-77219061D01*
X194034837Y-77220585D01*
X193871051Y-77258985D01*
X193634513Y-77337403D01*
X193362359Y-77440533D01*
X193091723Y-77553069D01*
X192859739Y-77659705D01*
X192703541Y-77745136D01*
X192660264Y-77794055D01*
X192730969Y-77805698D01*
X192944774Y-77818007D01*
X193282807Y-77828903D01*
X193726660Y-77838018D01*
X194257924Y-77844985D01*
X194858191Y-77849434D01*
X195509051Y-77851000D01*
X198300894Y-77851000D01*
X198395868Y-77642555D01*
X198415937Y-77597022D01*
X198558533Y-77192529D01*
X198692038Y-76685016D01*
X198806321Y-76123366D01*
X198891250Y-75556463D01*
X198936694Y-75033187D01*
X198930025Y-74217556D01*
X198812024Y-73413225D01*
X198572005Y-72688096D01*
X198203689Y-72023713D01*
X197700795Y-71401621D01*
X197659935Y-71358748D01*
X197054234Y-70815993D01*
X196387172Y-70371065D01*
X195686305Y-70037271D01*
X194979184Y-69827914D01*
X194293364Y-69756299D01*
X194186595Y-69757767D01*
X193772029Y-69779685D01*
X193300867Y-69824223D01*
X192799947Y-69886752D01*
X192296103Y-69962646D01*
X191816174Y-70047278D01*
X191386994Y-70136020D01*
X191035401Y-70224245D01*
X190788231Y-70307326D01*
X190672320Y-70380636D01*
X190672030Y-70474204D01*
X190703198Y-70678490D01*
X190759418Y-70947186D01*
X190804916Y-71186655D01*
X190823317Y-71818818D01*
X190690501Y-72412541D01*
X190410281Y-72955554D01*
X189986466Y-73435589D01*
X189776357Y-73607066D01*
X189314145Y-73902260D01*
X188809911Y-74139768D01*
X188311991Y-74298548D01*
X187868719Y-74357557D01*
X187772727Y-74353204D01*
X187687068Y-74319320D01*
X187731186Y-74262451D01*
X187889525Y-74195304D01*
X188146532Y-74130589D01*
X188311723Y-74093950D01*
X188907860Y-73891987D01*
X189451288Y-73601963D01*
X189915581Y-73243323D01*
X190274311Y-72835515D01*
X190501051Y-72397985D01*
X190547554Y-72238515D01*
X190619636Y-71703172D01*
X190592032Y-71130402D01*
X190465968Y-70583756D01*
X190313820Y-70183223D01*
X190044179Y-69654068D01*
X189747059Y-69271505D01*
X189425623Y-69039245D01*
X189083035Y-68961000D01*
X188768735Y-69018542D01*
X188366772Y-69205651D01*
X187916401Y-69513708D01*
X187432966Y-69933671D01*
X187232612Y-70129477D01*
X186907113Y-70483976D01*
X186685278Y-70801740D01*
X186549155Y-71119094D01*
X186480791Y-71472364D01*
X186462234Y-71897875D01*
X186467504Y-72190371D01*
X186497564Y-72504637D01*
X186533987Y-72651937D01*
X186565870Y-72780879D01*
X186685433Y-73088500D01*
X186719513Y-73167734D01*
X186846312Y-73477378D01*
X186905822Y-73675365D01*
X186897791Y-73788500D01*
X186821966Y-73843588D01*
X186678094Y-73867435D01*
X186660470Y-73868950D01*
X186489169Y-73859335D01*
X186420125Y-73807904D01*
X186449928Y-73758820D01*
X186578875Y-73723500D01*
X186670883Y-73715515D01*
X186737625Y-73680650D01*
X186737527Y-73679018D01*
X186701562Y-73584284D01*
X186619430Y-73407379D01*
X186518351Y-73203331D01*
X186425549Y-73027170D01*
X186368244Y-72933927D01*
X186347871Y-72935803D01*
X186236011Y-73016928D01*
X186047936Y-73186655D01*
X185803666Y-73424420D01*
X185523224Y-73709662D01*
X185226632Y-74021816D01*
X184933910Y-74340320D01*
X184665081Y-74644610D01*
X184440167Y-74914125D01*
X184328067Y-75056615D01*
X184021012Y-75464477D01*
X183711369Y-75896001D01*
X183451639Y-76278707D01*
X183003041Y-76968603D01*
X182801842Y-76968603D01*
X182944943Y-76724550D01*
X183277411Y-76199899D01*
X183629536Y-75679285D01*
X183969451Y-75212253D01*
X184052793Y-75101304D01*
X184247834Y-74819841D01*
X184344983Y-74637383D01*
X184339262Y-74562672D01*
X183884479Y-74409186D01*
X183332419Y-74158045D01*
X182901623Y-73858660D01*
X182570095Y-73490252D01*
X182315838Y-73032042D01*
X182116856Y-72463250D01*
X182110424Y-72440058D01*
X182031848Y-72084468D01*
X181965197Y-71663331D01*
X181924302Y-71262875D01*
X181915532Y-71118979D01*
X181913443Y-71050568D01*
X182077005Y-71050568D01*
X182128324Y-71637239D01*
X182279382Y-72331911D01*
X182495244Y-72937860D01*
X182776849Y-73422069D01*
X183133156Y-73799724D01*
X183573124Y-74086007D01*
X183694746Y-74143930D01*
X183993743Y-74264776D01*
X184251874Y-74344017D01*
X184556564Y-74412476D01*
X185423077Y-73532207D01*
X186289591Y-72651937D01*
X186268862Y-71937562D01*
X186252053Y-71612322D01*
X186195804Y-71245642D01*
X186083526Y-70957821D01*
X185894933Y-70702573D01*
X185609741Y-70433613D01*
X185556141Y-70390220D01*
X185185377Y-70169105D01*
X184720262Y-69985870D01*
X184206203Y-69850374D01*
X183688604Y-69772475D01*
X183212870Y-69762029D01*
X182824407Y-69828895D01*
X182593493Y-69934338D01*
X182310720Y-70196180D01*
X182138180Y-70569236D01*
X182077005Y-71050568D01*
X181913443Y-71050568D01*
X181906362Y-70818738D01*
X181924026Y-70606178D01*
X181975747Y-70430114D01*
X182068749Y-70239361D01*
X182091680Y-70198771D01*
X182297314Y-69929720D01*
X182531491Y-69743267D01*
X182614629Y-69705312D01*
X182963854Y-69622252D01*
X183406427Y-69596153D01*
X183901955Y-69623423D01*
X184410049Y-69700474D01*
X184890317Y-69823714D01*
X185302368Y-69989555D01*
X185506398Y-70125563D01*
X185759416Y-70341204D01*
X186001495Y-70586746D01*
X186394627Y-71027830D01*
X186540917Y-70703415D01*
X186577016Y-70633833D01*
X186765035Y-70371067D01*
X187041717Y-70062586D01*
X187373654Y-69739623D01*
X187727442Y-69433410D01*
X188069675Y-69175180D01*
X188366945Y-68996167D01*
X188437929Y-68962831D01*
X188905333Y-68819649D01*
X189329051Y-68828733D01*
X189706431Y-68989043D01*
X190034823Y-69299539D01*
X190311576Y-69759181D01*
X190391823Y-69915288D01*
X190502735Y-70085488D01*
X190581290Y-70151624D01*
X190585243Y-70151494D01*
X190709466Y-70127881D01*
X190936331Y-70071449D01*
X191219781Y-69993599D01*
X191224204Y-69992336D01*
X191905049Y-69831967D01*
X192676278Y-69706665D01*
X193472192Y-69625113D01*
X194227094Y-69596000D01*
X194357123Y-69596427D01*
X194747520Y-69607334D01*
X195048394Y-69638868D01*
X195313780Y-69698886D01*
X195597714Y-69795242D01*
X195959870Y-69944012D01*
X196771410Y-70379957D01*
X197482501Y-70914081D01*
X198080529Y-71534158D01*
X198552877Y-72227960D01*
X198886931Y-72983259D01*
X199067562Y-73525062D01*
X199370723Y-72890062D01*
X199608938Y-72323304D01*
X199889479Y-71345189D01*
X200036388Y-70321969D01*
X200049953Y-69278357D01*
X199930463Y-68239063D01*
X199678206Y-67228799D01*
X199293471Y-66272277D01*
X199143056Y-66000449D01*
X198821997Y-65568004D01*
X198451751Y-65212768D01*
X198057142Y-64953097D01*
X197662994Y-64807347D01*
X197294131Y-64793874D01*
X197171645Y-64820971D01*
X196854413Y-64973250D01*
X196651956Y-65213688D01*
X196581869Y-65524241D01*
X196587523Y-65637257D01*
X196653831Y-65940764D01*
X196804575Y-66273678D01*
X197052227Y-66660114D01*
X197409259Y-67124190D01*
X197632901Y-67413685D01*
X197821415Y-67710243D01*
X197886680Y-67907071D01*
X197828706Y-68004077D01*
X197647498Y-68001171D01*
X197343065Y-67898261D01*
X197130263Y-67780699D01*
X196792209Y-67486953D01*
X196476247Y-67094186D01*
X196206003Y-66638583D01*
X196005100Y-66156326D01*
X195897161Y-65683600D01*
X195897979Y-65385498D01*
X196063913Y-65385498D01*
X196138715Y-65932517D01*
X196365592Y-66523145D01*
X196376768Y-66545531D01*
X196592090Y-66913954D01*
X196841237Y-67247845D01*
X197098681Y-67520009D01*
X197338895Y-67703251D01*
X197536350Y-67770375D01*
X197574567Y-67766965D01*
X197607952Y-67730184D01*
X197568922Y-67636292D01*
X197446521Y-67464722D01*
X197229792Y-67194906D01*
X197046389Y-66965807D01*
X196752012Y-66554966D01*
X196559021Y-66203884D01*
X196453461Y-65884485D01*
X196421375Y-65568698D01*
X196421741Y-65531050D01*
X196481467Y-65159249D01*
X196651862Y-64890954D01*
X196945137Y-64706052D01*
X197332839Y-64602076D01*
X197777208Y-64628074D01*
X198223208Y-64810752D01*
X198674394Y-65151022D01*
X199081877Y-65603993D01*
X199479769Y-66241568D01*
X199799638Y-66990228D01*
X200035510Y-67832419D01*
X200181414Y-68750587D01*
X200231375Y-69727177D01*
X200225472Y-70019651D01*
X200158766Y-70789221D01*
X200025203Y-71551731D01*
X199833999Y-72269972D01*
X199594369Y-72906739D01*
X199315529Y-73424822D01*
X199252742Y-73523584D01*
X199189276Y-73651671D01*
X199150930Y-73798045D01*
X199132796Y-73997798D01*
X199129969Y-74286022D01*
X199137542Y-74697809D01*
X199145239Y-75033187D01*
X199159813Y-75668187D01*
X199570624Y-75116464D01*
X200054281Y-74409032D01*
X200504557Y-73575541D01*
X200838542Y-72708226D01*
X201075627Y-71763889D01*
X201097851Y-71637769D01*
X201155091Y-71152591D01*
X201192382Y-70569654D01*
X201209692Y-69931493D01*
X201206992Y-69280649D01*
X201184251Y-68659659D01*
X201141439Y-68111060D01*
X201078526Y-67677392D01*
X201077658Y-67673090D01*
X200862388Y-66862594D01*
X200561284Y-66106029D01*
X200187512Y-65424105D01*
X199754239Y-64837535D01*
X199274632Y-64367027D01*
X198761856Y-64033294D01*
X198757661Y-64031230D01*
X198470266Y-63899285D01*
X198240877Y-63828651D01*
X197997580Y-63804871D01*
X197668463Y-63813488D01*
X197319075Y-63851945D01*
X196863558Y-63995427D01*
X196512086Y-64247250D01*
X196250703Y-64615307D01*
X196141089Y-64880473D01*
X196063913Y-65385498D01*
X195897979Y-65385498D01*
X195898619Y-65152064D01*
X196032879Y-64655376D01*
X196290752Y-64233583D01*
X196660483Y-63905687D01*
X197130313Y-63690688D01*
X197227238Y-63662816D01*
X197551160Y-63589321D01*
X197832245Y-63574242D01*
X198133318Y-63619164D01*
X198517206Y-63725672D01*
X198881971Y-63877766D01*
X199381757Y-64214951D01*
X199852031Y-64677961D01*
X200280753Y-65247659D01*
X200655880Y-65904910D01*
X200965372Y-66630577D01*
X201197187Y-67405524D01*
X201339283Y-68210613D01*
X201343925Y-68251659D01*
X201426069Y-69525418D01*
X201412051Y-69931493D01*
G37*
G36*
X187587720Y-75675722D02*
G01*
X187590900Y-75687965D01*
X187593327Y-75715986D01*
X187555232Y-76163872D01*
X187378119Y-76552137D01*
X187076556Y-76859140D01*
X186665111Y-77063241D01*
X186373187Y-77099125D01*
X186010970Y-77047333D01*
X185674360Y-76912347D01*
X185477307Y-76770845D01*
X185217828Y-76450722D01*
X185075644Y-76071030D01*
X185060769Y-75771348D01*
X185150422Y-75771348D01*
X185167213Y-75999980D01*
X185301270Y-76389764D01*
X185580233Y-76734763D01*
X185641072Y-76784114D01*
X185933285Y-76916542D01*
X186289401Y-76970599D01*
X186648984Y-76942208D01*
X186951594Y-76827291D01*
X187100329Y-76717761D01*
X187355018Y-76410761D01*
X187490456Y-76052535D01*
X187507984Y-75675722D01*
X187408947Y-75312960D01*
X187194685Y-74996888D01*
X186866544Y-74760146D01*
X186805478Y-74731499D01*
X186450775Y-74616656D01*
X186127986Y-74625710D01*
X185778850Y-74758576D01*
X185776293Y-74759884D01*
X185436309Y-75015054D01*
X185223953Y-75358225D01*
X185150422Y-75771348D01*
X185060769Y-75771348D01*
X185055583Y-75666879D01*
X185162474Y-75273379D01*
X185401145Y-74925637D01*
X185460706Y-74868072D01*
X185819710Y-74632202D01*
X186207210Y-74530264D01*
X186595169Y-74552499D01*
X186955553Y-74689147D01*
X187260326Y-74930447D01*
X187481453Y-75266639D01*
X187587720Y-75675722D01*
G37*
G36*
X189064486Y-69767035D02*
G01*
X189258196Y-69836351D01*
X189439943Y-69996693D01*
X189632600Y-70260983D01*
X189828687Y-70676381D01*
X189963446Y-71139551D01*
X190015226Y-71590514D01*
X190010112Y-71740885D01*
X189898254Y-72221751D01*
X189643951Y-72638813D01*
X189251982Y-72985888D01*
X188727126Y-73256795D01*
X188620997Y-73294775D01*
X188346958Y-73367905D01*
X188126688Y-73395536D01*
X188090202Y-73394693D01*
X188014662Y-73382064D01*
X188076708Y-73350489D01*
X188285438Y-73294158D01*
X188496035Y-73235418D01*
X189048318Y-73000284D01*
X189468266Y-72684484D01*
X189752029Y-72294721D01*
X189895757Y-71837698D01*
X189895601Y-71320116D01*
X189747709Y-70748676D01*
X189596127Y-70396702D01*
X189388526Y-70076079D01*
X189156052Y-69892593D01*
X188887303Y-69834125D01*
X188635429Y-69878017D01*
X188278698Y-70045394D01*
X187901157Y-70320762D01*
X187531836Y-70685878D01*
X187399877Y-70848986D01*
X187166218Y-71271806D01*
X187077962Y-71718874D01*
X187133508Y-72206676D01*
X187331256Y-72751700D01*
X187409825Y-72936116D01*
X187463399Y-73103386D01*
X187458123Y-73167875D01*
X187411770Y-73127547D01*
X187316527Y-72976236D01*
X187204806Y-72751156D01*
X187078748Y-72396205D01*
X187004710Y-71865963D01*
X187063280Y-71358008D01*
X187253563Y-70906163D01*
X187256845Y-70900909D01*
X187446019Y-70655707D01*
X187709841Y-70382150D01*
X187992269Y-70138481D01*
X188253978Y-69946762D01*
X188462310Y-69825755D01*
X188646031Y-69768917D01*
X188853391Y-69754750D01*
X189064486Y-69767035D01*
G37*
G36*
X186505024Y-74841256D02*
G01*
X186753134Y-74899287D01*
X186967338Y-75038289D01*
X187090737Y-75162555D01*
X187265501Y-75476997D01*
X187320006Y-75824771D01*
X187258110Y-76167737D01*
X187083671Y-76467758D01*
X186800549Y-76686697D01*
X186712246Y-76725830D01*
X186337878Y-76801192D01*
X185987455Y-76742772D01*
X185687120Y-76570626D01*
X185463012Y-76304809D01*
X185341273Y-75965374D01*
X185348045Y-75572378D01*
X185362530Y-75498349D01*
X185397806Y-75357003D01*
X185430678Y-75351838D01*
X185480534Y-75467509D01*
X185582910Y-75643091D01*
X185779218Y-75774923D01*
X186004468Y-75774081D01*
X186218793Y-75631698D01*
X186285936Y-75524084D01*
X186315108Y-75315198D01*
X186248821Y-75125224D01*
X186099011Y-75015553D01*
X186093370Y-75014060D01*
X185956463Y-74953913D01*
X185961644Y-74895845D01*
X186093011Y-74852057D01*
X186334660Y-74834750D01*
X186505024Y-74841256D01*
G37*
%TD*%
%LPC*%
D10*
%TO.C,J2*%
X198784999Y-64920000D03*
X196015000Y-64920000D03*
X193245000Y-64920000D03*
X190475000Y-64920000D03*
X187705001Y-64920000D03*
X197400001Y-62080001D03*
X194630001Y-62080001D03*
X191860002Y-62080001D03*
X189090002Y-62080001D03*
D11*
X180750000Y-63500000D03*
X205740000Y-63500000D03*
%TD*%
D10*
%TO.C,J1*%
X187500001Y-80520002D03*
X190270000Y-80520002D03*
X193040000Y-80520002D03*
X195810000Y-80520002D03*
X198579999Y-80520002D03*
X188884999Y-83360001D03*
X191654999Y-83360001D03*
X194424998Y-83360001D03*
X197194998Y-83360001D03*
D11*
X205535000Y-81940002D03*
X180545000Y-81940002D03*
%TD*%
M02*
