  0
SECTION
  2
HEADER
  9
$ANGBASE
  50
0.0
  9
$ANGDIR
  70
1
  9
$MEASUREMENT
  70
0
  0
ENDSEC
  0
SECTION
  2
TABLES
  0
TABLE
  2
LTYPE
  70
4
  0
LTYPE
  5
40F
  2
CONTINUOUS
  70
0
  3
Solid line
  72
65
  73
0
  40
0.0
  0
LTYPE
  5
410
  2
DASHDOT
 70
0
  3
Dash Dot ____ _ ____ _
 72
65
 73
4
 40
2.0
 49
1.25
 49
-0.25
 49
0.25
 49
-0.25
  0
LTYPE
  5
411
  2
DASHED
 70
0
  3
Dashed __ __ __ __ __
 72
65
 73
2
 40
0.75
 49
0.5
 49
-0.25
  0
LTYPE
  5
43B
  2
DOTTED
 70
0
  3
Dotted .  .  .  .
 72
65
 73
2
 40
0.2
 49
0.0
 49
-0.2
  0
ENDTAB
  0
TABLE
  2
STYLE
  70
4
  0
STYLE
  2
KICAD
  70
0
  40
0
  41
1
  42
1
  50
0
  71
0
  3
isocp.shx
  0
STYLE
  2
KICADB
  70
0
  40
0
  41
1
  42
1
  50
0
  71
0
  3
isocp.shx
  0
STYLE
  2
KICADI
  70
0
  40
0
  41
1
  42
1
  50
15
  71
0
  3
isocp.shx
  0
STYLE
  2
KICADBI
  70
0
  40
0
  41
1
  42
1
  50
15
  71
0
  3
isocp.shx
  0
ENDTAB
  0
TABLE
  2
LAYER
  70
1
  0
LAYER
  2
BLACK
  70
0
  62
7
  6
CONTINUOUS
  0
ENDTAB
  0
ENDSEC
  0
SECTION
  2
ENTITIES
0
LINE
8
BLACK
6
CONTINUOUS
10
2.39851
20
-2.59509
11
2.39207
21
-2.64031
0
LINE
8
BLACK
6
CONTINUOUS
10
2.39207
20
-2.64031
11
2.38094
21
-2.68249
0
LINE
8
BLACK
6
CONTINUOUS
10
2.38094
20
-2.68249
11
2.36522
21
-2.72127
0
LINE
8
BLACK
6
CONTINUOUS
10
2.36522
20
-2.72127
11
2.34501
21
-2.75625
0
LINE
8
BLACK
6
CONTINUOUS
10
2.34501
20
-2.75625
11
2.32041
21
-2.78708
0
LINE
8
BLACK
6
CONTINUOUS
10
2.32041
20
-2.78708
11
2.31903
21
-2.78858
0
LINE
8
BLACK
6
CONTINUOUS
10
2.31903
20
-2.78858
11
2.30871
21
-2.80245
0
LINE
8
BLACK
6
CONTINUOUS
10
2.30871
20
-2.80245
11
2.30336
21
-2.81616
0
LINE
8
BLACK
6
CONTINUOUS
10
2.30336
20
-2.81616
11
2.30303
21
-2.81759
0
LINE
8
BLACK
6
CONTINUOUS
10
2.30303
20
-2.81759
11
2.30024
21
-2.82832
0
LINE
8
BLACK
6
CONTINUOUS
10
2.30024
20
-2.82832
11
2.29636
21
-2.84194
0
LINE
8
BLACK
6
CONTINUOUS
10
2.29636
20
-2.84194
11
2.29213
21
-2.85584
0
LINE
8
BLACK
6
CONTINUOUS
10
2.29213
20
-2.85584
11
2.2841
21
-2.88125
0
LINE
8
BLACK
6
CONTINUOUS
10
2.2841
20
-2.88125
11
1.96705
21
-2.88125
0
LINE
8
BLACK
6
CONTINUOUS
10
1.96705
20
-2.88125
11
1.95466
21
-2.88125
0
LINE
8
BLACK
6
CONTINUOUS
10
1.95466
20
-2.88125
11
1.90385
21
-2.88127
0
LINE
8
BLACK
6
CONTINUOUS
10
1.90385
20
-2.88127
11
1.85887
21
-2.8813
0
LINE
8
BLACK
6
CONTINUOUS
10
1.85887
20
-2.8813
11
1.81939
21
-2.8813
0
LINE
8
BLACK
6
CONTINUOUS
10
1.81939
20
-2.8813
11
1.78505
21
-2.88127
0
LINE
8
BLACK
6
CONTINUOUS
10
1.78505
20
-2.88127
11
1.75553
21
-2.88116
0
LINE
8
BLACK
6
CONTINUOUS
10
1.75553
20
-2.88116
11
1.73048
21
-2.88096
0
LINE
8
BLACK
6
CONTINUOUS
10
1.73048
20
-2.88096
11
1.70956
21
-2.88064
0
LINE
8
BLACK
6
CONTINUOUS
10
1.70956
20
-2.88064
11
1.69242
21
-2.88018
0
LINE
8
BLACK
6
CONTINUOUS
10
1.69242
20
-2.88018
11
1.67874
21
-2.87955
0
LINE
8
BLACK
6
CONTINUOUS
10
1.67874
20
-2.87955
11
1.66816
21
-2.87873
0
LINE
8
BLACK
6
CONTINUOUS
10
1.66816
20
-2.87873
11
1.66036
21
-2.87768
0
LINE
8
BLACK
6
CONTINUOUS
10
1.66036
20
-2.87768
11
1.65498
21
-2.8764
0
LINE
8
BLACK
6
CONTINUOUS
10
1.65498
20
-2.8764
11
1.65169
21
-2.87484
0
LINE
8
BLACK
6
CONTINUOUS
10
1.65169
20
-2.87484
11
1.65014
21
-2.87299
0
LINE
8
BLACK
6
CONTINUOUS
10
1.65014
20
-2.87299
11
1.65
21
-2.87082
0
LINE
8
BLACK
6
CONTINUOUS
10
1.65
20
-2.87082
11
1.65093
21
-2.86831
0
LINE
8
BLACK
6
CONTINUOUS
10
1.65093
20
-2.86831
11
1.65258
21
-2.86543
0
LINE
8
BLACK
6
CONTINUOUS
10
1.65258
20
-2.86543
11
1.65462
21
-2.86216
0
LINE
8
BLACK
6
CONTINUOUS
10
1.65462
20
-2.86216
11
1.65671
21
-2.85847
0
LINE
8
BLACK
6
CONTINUOUS
10
1.65671
20
-2.85847
11
1.6615
21
-2.84952
0
LINE
8
BLACK
6
CONTINUOUS
10
1.6615
20
-2.84952
11
1.67256
21
-2.83065
0
LINE
8
BLACK
6
CONTINUOUS
10
1.67256
20
-2.83065
11
1.68565
21
-2.81
0
LINE
8
BLACK
6
CONTINUOUS
10
1.68565
20
-2.81
11
1.69951
21
-2.7895
0
LINE
8
BLACK
6
CONTINUOUS
10
1.69951
20
-2.7895
11
1.71289
21
-2.77111
0
LINE
8
BLACK
6
CONTINUOUS
10
1.71289
20
-2.77111
11
1.71617
21
-2.76674
0
LINE
8
BLACK
6
CONTINUOUS
10
1.71617
20
-2.76674
11
1.72385
21
-2.75566
0
LINE
8
BLACK
6
CONTINUOUS
10
1.72385
20
-2.75566
11
1.72768
21
-2.74848
0
LINE
8
BLACK
6
CONTINUOUS
10
1.72768
20
-2.74848
11
1.72745
21
-2.74554
0
LINE
8
BLACK
6
CONTINUOUS
10
1.72745
20
-2.74554
11
1.70955
21
-2.7395
0
LINE
8
BLACK
6
CONTINUOUS
10
1.70955
20
-2.7395
11
1.68781
21
-2.72961
0
LINE
8
BLACK
6
CONTINUOUS
10
1.68781
20
-2.72961
11
1.67085
21
-2.71782
0
LINE
8
BLACK
6
CONTINUOUS
10
1.67085
20
-2.71782
11
1.6578
21
-2.70332
0
LINE
8
BLACK
6
CONTINUOUS
10
1.6578
20
-2.70332
11
1.64779
21
-2.68528
0
LINE
8
BLACK
6
CONTINUOUS
10
1.64779
20
-2.68528
11
1.63995
21
-2.66288
0
LINE
8
BLACK
6
CONTINUOUS
10
1.63995
20
-2.66288
11
1.6397
21
-2.66197
0
LINE
8
BLACK
6
CONTINUOUS
10
1.6397
20
-2.66197
11
1.63661
21
-2.64797
0
LINE
8
BLACK
6
CONTINUOUS
10
1.63661
20
-2.64797
11
1.63398
21
-2.63139
0
LINE
8
BLACK
6
CONTINUOUS
10
1.63398
20
-2.63139
11
1.63237
21
-2.61563
0
LINE
8
BLACK
6
CONTINUOUS
10
1.63237
20
-2.61563
11
1.63203
21
-2.60996
0
LINE
8
BLACK
6
CONTINUOUS
10
1.63203
20
-2.60996
11
1.63167
21
-2.59814
0
LINE
8
BLACK
6
CONTINUOUS
10
1.63167
20
-2.59814
11
1.63236
21
-2.58977
0
LINE
8
BLACK
6
CONTINUOUS
10
1.63236
20
-2.58977
11
1.6344
21
-2.58284
0
LINE
8
BLACK
6
CONTINUOUS
10
1.6344
20
-2.58284
11
1.63806
21
-2.57533
0
LINE
8
BLACK
6
CONTINUOUS
10
1.63806
20
-2.57533
11
1.63896
21
-2.57373
0
LINE
8
BLACK
6
CONTINUOUS
10
1.63896
20
-2.57373
11
1.64706
21
-2.56314
0
LINE
8
BLACK
6
CONTINUOUS
10
1.64706
20
-2.56314
11
1.65628
21
-2.5558
0
LINE
8
BLACK
6
CONTINUOUS
10
1.65628
20
-2.5558
11
1.65955
21
-2.5543
0
LINE
8
BLACK
6
CONTINUOUS
10
1.65955
20
-2.5543
11
1.6733
21
-2.55103
0
LINE
8
BLACK
6
CONTINUOUS
10
1.6733
20
-2.55103
11
1.69073
21
-2.55001
0
LINE
8
BLACK
6
CONTINUOUS
10
1.69073
20
-2.55001
11
1.71023
21
-2.55108
0
LINE
8
BLACK
6
CONTINUOUS
10
1.71023
20
-2.55108
11
1.73024
21
-2.55411
0
LINE
8
BLACK
6
CONTINUOUS
10
1.73024
20
-2.55411
11
1.74915
21
-2.55897
0
LINE
8
BLACK
6
CONTINUOUS
10
1.74915
20
-2.55897
11
1.76537
21
-2.56549
0
LINE
8
BLACK
6
CONTINUOUS
10
1.76537
20
-2.56549
11
1.7734
21
-2.57085
0
LINE
8
BLACK
6
CONTINUOUS
10
1.7734
20
-2.57085
11
1.78336
21
-2.57934
0
LINE
8
BLACK
6
CONTINUOUS
10
1.78336
20
-2.57934
11
1.79289
21
-2.58901
0
LINE
8
BLACK
6
CONTINUOUS
10
1.79289
20
-2.58901
11
1.80837
21
-2.60637
0
LINE
8
BLACK
6
CONTINUOUS
10
1.80837
20
-2.60637
11
1.81413
21
-2.5936
0
LINE
8
BLACK
6
CONTINUOUS
10
1.81413
20
-2.5936
11
1.81555
21
-2.59086
0
LINE
8
BLACK
6
CONTINUOUS
10
1.81555
20
-2.59086
11
1.82295
21
-2.58051
0
LINE
8
BLACK
6
CONTINUOUS
10
1.82295
20
-2.58051
11
1.83385
21
-2.56837
0
LINE
8
BLACK
6
CONTINUOUS
10
1.83385
20
-2.56837
11
1.84692
21
-2.55565
0
LINE
8
BLACK
6
CONTINUOUS
10
1.84692
20
-2.55565
11
1.86084
21
-2.5436
0
LINE
8
BLACK
6
CONTINUOUS
10
1.86084
20
-2.5436
11
1.87432
21
-2.53343
0
LINE
8
BLACK
6
CONTINUOUS
10
1.87432
20
-2.53343
11
1.88602
21
-2.52638
0
LINE
8
BLACK
6
CONTINUOUS
10
1.88602
20
-2.52638
11
1.88882
21
-2.52507
0
LINE
8
BLACK
6
CONTINUOUS
10
1.88882
20
-2.52507
11
1.90722
21
-2.51944
0
LINE
8
BLACK
6
CONTINUOUS
10
1.90722
20
-2.51944
11
1.9239
21
-2.51979
0
LINE
8
BLACK
6
CONTINUOUS
10
1.9239
20
-2.51979
11
1.93876
21
-2.5261
0
LINE
8
BLACK
6
CONTINUOUS
10
1.93876
20
-2.5261
11
1.95169
21
-2.53833
0
LINE
8
BLACK
6
CONTINUOUS
10
1.95169
20
-2.53833
11
1.96258
21
-2.55642
0
LINE
8
BLACK
6
CONTINUOUS
10
1.96258
20
-2.55642
11
1.96574
21
-2.56257
0
LINE
8
BLACK
6
CONTINUOUS
10
1.96574
20
-2.56257
11
1.97011
21
-2.56927
0
LINE
8
BLACK
6
CONTINUOUS
10
1.97011
20
-2.56927
11
1.9732
21
-2.57187
0
LINE
8
BLACK
6
CONTINUOUS
10
1.9732
20
-2.57187
11
1.97336
21
-2.57187
0
LINE
8
BLACK
6
CONTINUOUS
10
1.97336
20
-2.57187
11
1.97825
21
-2.57094
0
LINE
8
BLACK
6
CONTINUOUS
10
1.97825
20
-2.57094
11
1.98718
21
-2.56872
0
LINE
8
BLACK
6
CONTINUOUS
10
1.98718
20
-2.56872
11
1.99834
21
-2.56565
0
LINE
8
BLACK
6
CONTINUOUS
10
1.99834
20
-2.56565
11
1.99851
21
-2.5656
0
LINE
8
BLACK
6
CONTINUOUS
10
1.99851
20
-2.5656
11
2.02532
21
-2.55929
0
LINE
8
BLACK
6
CONTINUOUS
10
2.02532
20
-2.55929
11
2.05568
21
-2.55436
0
LINE
8
BLACK
6
CONTINUOUS
10
2.05568
20
-2.55436
11
2.08702
21
-2.55115
0
LINE
8
BLACK
6
CONTINUOUS
10
2.08702
20
-2.55115
11
2.11674
21
-2.55
0
LINE
8
BLACK
6
CONTINUOUS
10
2.11674
20
-2.55
11
2.12186
21
-2.55002
0
LINE
8
BLACK
6
CONTINUOUS
10
2.12186
20
-2.55002
11
2.13723
21
-2.55045
0
LINE
8
BLACK
6
CONTINUOUS
10
2.13723
20
-2.55045
11
2.14907
21
-2.55169
0
LINE
8
BLACK
6
CONTINUOUS
10
2.14907
20
-2.55169
11
2.15952
21
-2.55405
0
LINE
8
BLACK
6
CONTINUOUS
10
2.15952
20
-2.55405
11
2.1707
21
-2.55784
0
LINE
8
BLACK
6
CONTINUOUS
10
2.1707
20
-2.55784
11
2.18496
21
-2.5637
0
LINE
8
BLACK
6
CONTINUOUS
10
2.18496
20
-2.5637
11
2.21691
21
-2.58086
0
LINE
8
BLACK
6
CONTINUOUS
10
2.21691
20
-2.58086
11
2.2449
21
-2.60189
0
LINE
8
BLACK
6
CONTINUOUS
10
2.2449
20
-2.60189
11
2.26845
21
-2.62631
0
LINE
8
BLACK
6
CONTINUOUS
10
2.26845
20
-2.62631
11
2.28704
21
-2.65362
0
LINE
8
BLACK
6
CONTINUOUS
10
2.28704
20
-2.65362
11
2.30019
21
-2.68336
0
LINE
8
BLACK
6
CONTINUOUS
10
2.30019
20
-2.68336
11
2.30731
21
-2.70469
0
LINE
8
BLACK
6
CONTINUOUS
10
2.30731
20
-2.70469
11
2.31924
21
-2.67969
0
LINE
8
BLACK
6
CONTINUOUS
10
2.31924
20
-2.67969
11
2.32862
21
-2.65737
0
LINE
8
BLACK
6
CONTINUOUS
10
2.32862
20
-2.65737
11
2.33966
21
-2.61887
0
LINE
8
BLACK
6
CONTINUOUS
10
2.33966
20
-2.61887
11
2.34545
21
-2.57858
0
LINE
8
BLACK
6
CONTINUOUS
10
2.34545
20
-2.57858
11
2.34598
21
-2.53749
0
LINE
8
BLACK
6
CONTINUOUS
10
2.34598
20
-2.53749
11
2.34128
21
-2.49658
0
LINE
8
BLACK
6
CONTINUOUS
10
2.34128
20
-2.49658
11
2.33135
21
-2.4568
0
LINE
8
BLACK
6
CONTINUOUS
10
2.33135
20
-2.4568
11
2.3162
21
-2.41914
0
LINE
8
BLACK
6
CONTINUOUS
10
2.3162
20
-2.41914
11
2.31028
21
-2.40844
0
LINE
8
BLACK
6
CONTINUOUS
10
2.31028
20
-2.40844
11
2.29764
21
-2.39142
0
LINE
8
BLACK
6
CONTINUOUS
10
2.29764
20
-2.39142
11
2.28306
21
-2.37743
0
LINE
8
BLACK
6
CONTINUOUS
10
2.28306
20
-2.37743
11
2.26753
21
-2.36721
0
LINE
8
BLACK
6
CONTINUOUS
10
2.26753
20
-2.36721
11
2.25201
21
-2.36147
0
LINE
8
BLACK
6
CONTINUOUS
10
2.25201
20
-2.36147
11
2.23749
21
-2.36094
0
LINE
8
BLACK
6
CONTINUOUS
10
2.23749
20
-2.36094
11
2.23266
21
-2.36201
0
LINE
8
BLACK
6
CONTINUOUS
10
2.23266
20
-2.36201
11
2.22017
21
-2.368
0
LINE
8
BLACK
6
CONTINUOUS
10
2.22017
20
-2.368
11
2.2122
21
-2.37747
0
LINE
8
BLACK
6
CONTINUOUS
10
2.2122
20
-2.37747
11
2.20944
21
-2.38969
0
LINE
8
BLACK
6
CONTINUOUS
10
2.20944
20
-2.38969
11
2.20967
21
-2.39414
0
LINE
8
BLACK
6
CONTINUOUS
10
2.20967
20
-2.39414
11
2.21228
21
-2.40609
0
LINE
8
BLACK
6
CONTINUOUS
10
2.21228
20
-2.40609
11
2.21821
21
-2.4192
0
LINE
8
BLACK
6
CONTINUOUS
10
2.21821
20
-2.4192
11
2.22796
21
-2.43441
0
LINE
8
BLACK
6
CONTINUOUS
10
2.22796
20
-2.43441
11
2.24202
21
-2.45268
0
LINE
8
BLACK
6
CONTINUOUS
10
2.24202
20
-2.45268
11
2.25082
21
-2.46408
0
LINE
8
BLACK
6
CONTINUOUS
10
2.25082
20
-2.46408
11
2.25824
21
-2.47576
0
LINE
8
BLACK
6
CONTINUOUS
10
2.25824
20
-2.47576
11
2.26081
21
-2.48351
0
LINE
8
BLACK
6
CONTINUOUS
10
2.26081
20
-2.48351
11
2.25853
21
-2.48733
0
LINE
8
BLACK
6
CONTINUOUS
10
2.25853
20
-2.48733
11
2.2514
21
-2.48721
0
LINE
8
BLACK
6
CONTINUOUS
10
2.2514
20
-2.48721
11
2.23941
21
-2.48316
0
LINE
8
BLACK
6
CONTINUOUS
10
2.23941
20
-2.48316
11
2.23103
21
-2.47853
0
LINE
8
BLACK
6
CONTINUOUS
10
2.23103
20
-2.47853
11
2.21772
21
-2.46697
0
LINE
8
BLACK
6
CONTINUOUS
10
2.21772
20
-2.46697
11
2.20529
21
-2.4515
0
LINE
8
BLACK
6
CONTINUOUS
10
2.20529
20
-2.4515
11
2.19465
21
-2.43357
0
LINE
8
BLACK
6
CONTINUOUS
10
2.19465
20
-2.43357
11
2.18674
21
-2.41458
0
LINE
8
BLACK
6
CONTINUOUS
10
2.18674
20
-2.41458
11
2.18249
21
-2.39597
0
LINE
8
BLACK
6
CONTINUOUS
10
2.18249
20
-2.39597
11
2.18254
21
-2.37504
0
LINE
8
BLACK
6
CONTINUOUS
10
2.18254
20
-2.37504
11
2.18783
21
-2.35549
0
LINE
8
BLACK
6
CONTINUOUS
10
2.18783
20
-2.35549
11
2.19798
21
-2.33888
0
LINE
8
BLACK
6
CONTINUOUS
10
2.19798
20
-2.33888
11
2.21254
21
-2.32597
0
LINE
8
BLACK
6
CONTINUOUS
10
2.21254
20
-2.32597
11
2.23104
21
-2.31751
0
LINE
8
BLACK
6
CONTINUOUS
10
2.23104
20
-2.31751
11
2.23485
21
-2.31641
0
LINE
8
BLACK
6
CONTINUOUS
10
2.23485
20
-2.31641
11
2.2476
21
-2.31352
0
LINE
8
BLACK
6
CONTINUOUS
10
2.2476
20
-2.31352
11
2.25867
21
-2.31292
0
LINE
8
BLACK
6
CONTINUOUS
10
2.25867
20
-2.31292
11
2.27052
21
-2.31469
0
LINE
8
BLACK
6
CONTINUOUS
10
2.27052
20
-2.31469
11
2.28564
21
-2.31888
0
LINE
8
BLACK
6
CONTINUOUS
10
2.28564
20
-2.31888
11
2.3
21
-2.32487
0
LINE
8
BLACK
6
CONTINUOUS
10
2.3
20
-2.32487
11
2.31968
21
-2.33815
0
LINE
8
BLACK
6
CONTINUOUS
10
2.31968
20
-2.33815
11
2.33819
21
-2.35638
0
LINE
8
BLACK
6
CONTINUOUS
10
2.33819
20
-2.35638
11
2.35507
21
-2.37881
0
LINE
8
BLACK
6
CONTINUOUS
10
2.35507
20
-2.37881
11
2.36984
21
-2.40468
0
LINE
8
BLACK
6
CONTINUOUS
10
2.36984
20
-2.40468
11
2.38202
21
-2.43325
0
LINE
8
BLACK
6
CONTINUOUS
10
2.38202
20
-2.43325
11
2.39115
21
-2.46376
0
LINE
8
BLACK
6
CONTINUOUS
10
2.39115
20
-2.46376
11
2.39674
21
-2.49546
0
LINE
8
BLACK
6
CONTINUOUS
10
2.39674
20
-2.49546
11
2.39693
21
-2.49707
0
LINE
8
BLACK
6
CONTINUOUS
10
2.39693
20
-2.49707
11
2.40016
21
-2.54722
0
LINE
8
BLACK
6
CONTINUOUS
10
2.40016
20
-2.54722
11
2.39961
21
-2.56321
0
LINE
8
BLACK
6
CONTINUOUS
10
2.39961
20
-2.56321
11
2.39851
21
-2.59509
0
LINE
8
BLACK
6
CONTINUOUS
10
2.31094
20
-2.78906
11
2.32711
21
-2.76734
0
LINE
8
BLACK
6
CONTINUOUS
10
2.32711
20
-2.76734
11
2.34615
21
-2.73949
0
LINE
8
BLACK
6
CONTINUOUS
10
2.34615
20
-2.73949
11
2.36388
21
-2.70667
0
LINE
8
BLACK
6
CONTINUOUS
10
2.36388
20
-2.70667
11
2.37703
21
-2.67253
0
LINE
8
BLACK
6
CONTINUOUS
10
2.37703
20
-2.67253
11
2.38636
21
-2.63535
0
LINE
8
BLACK
6
CONTINUOUS
10
2.38636
20
-2.63535
11
2.38724
21
-2.63038
0
LINE
8
BLACK
6
CONTINUOUS
10
2.38724
20
-2.63038
11
2.38949
21
-2.61128
0
LINE
8
BLACK
6
CONTINUOUS
10
2.38949
20
-2.61128
11
2.39096
21
-2.58833
0
LINE
8
BLACK
6
CONTINUOUS
10
2.39096
20
-2.58833
11
2.39164
21
-2.56321
0
LINE
8
BLACK
6
CONTINUOUS
10
2.39164
20
-2.56321
11
2.39154
21
-2.53758
0
LINE
8
BLACK
6
CONTINUOUS
10
2.39154
20
-2.53758
11
2.39064
21
-2.51314
0
LINE
8
BLACK
6
CONTINUOUS
10
2.39064
20
-2.51314
11
2.38895
21
-2.49154
0
LINE
8
BLACK
6
CONTINUOUS
10
2.38895
20
-2.49154
11
2.38648
21
-2.47446
0
LINE
8
BLACK
6
CONTINUOUS
10
2.38648
20
-2.47446
11
2.38644
21
-2.47429
0
LINE
8
BLACK
6
CONTINUOUS
10
2.38644
20
-2.47429
11
2.37797
21
-2.44239
0
LINE
8
BLACK
6
CONTINUOUS
10
2.37797
20
-2.44239
11
2.36611
21
-2.4126
0
LINE
8
BLACK
6
CONTINUOUS
10
2.36611
20
-2.4126
11
2.3514
21
-2.38575
0
LINE
8
BLACK
6
CONTINUOUS
10
2.3514
20
-2.38575
11
2.33434
21
-2.36266
0
LINE
8
BLACK
6
CONTINUOUS
10
2.33434
20
-2.36266
11
2.31546
21
-2.34413
0
LINE
8
BLACK
6
CONTINUOUS
10
2.31546
20
-2.34413
11
2.29527
21
-2.331
0
LINE
8
BLACK
6
CONTINUOUS
10
2.29527
20
-2.331
11
2.2951
21
-2.33091
0
LINE
8
BLACK
6
CONTINUOUS
10
2.2951
20
-2.33091
11
2.28379
21
-2.32572
0
LINE
8
BLACK
6
CONTINUOUS
10
2.28379
20
-2.32572
11
2.27476
21
-2.32294
0
LINE
8
BLACK
6
CONTINUOUS
10
2.27476
20
-2.32294
11
2.26518
21
-2.322
0
LINE
8
BLACK
6
CONTINUOUS
10
2.26518
20
-2.322
11
2.25222
21
-2.32234
0
LINE
8
BLACK
6
CONTINUOUS
10
2.25222
20
-2.32234
11
2.23847
21
-2.32386
0
LINE
8
BLACK
6
CONTINUOUS
10
2.23847
20
-2.32386
11
2.22053
21
-2.32951
0
LINE
8
BLACK
6
CONTINUOUS
10
2.22053
20
-2.32951
11
2.2067
21
-2.33942
0
LINE
8
BLACK
6
CONTINUOUS
10
2.2067
20
-2.33942
11
2.19641
21
-2.35391
0
LINE
8
BLACK
6
CONTINUOUS
10
2.19641
20
-2.35391
11
2.19209
21
-2.36435
0
LINE
8
BLACK
6
CONTINUOUS
10
2.19209
20
-2.36435
11
2.18905
21
-2.38423
0
LINE
8
BLACK
6
CONTINUOUS
10
2.18905
20
-2.38423
11
2.192
21
-2.40577
0
LINE
8
BLACK
6
CONTINUOUS
10
2.192
20
-2.40577
11
2.20093
21
-2.42902
0
LINE
8
BLACK
6
CONTINUOUS
10
2.20093
20
-2.42902
11
2.20137
21
-2.4299
0
LINE
8
BLACK
6
CONTINUOUS
10
2.20137
20
-2.4299
11
2.20985
21
-2.44441
0
LINE
8
BLACK
6
CONTINUOUS
10
2.20985
20
-2.44441
11
2.21965
21
-2.45755
0
LINE
8
BLACK
6
CONTINUOUS
10
2.21965
20
-2.45755
11
2.22979
21
-2.46827
0
LINE
8
BLACK
6
CONTINUOUS
10
2.22979
20
-2.46827
11
2.23925
21
-2.47548
0
LINE
8
BLACK
6
CONTINUOUS
10
2.23925
20
-2.47548
11
2.24702
21
-2.47812
0
LINE
8
BLACK
6
CONTINUOUS
10
2.24702
20
-2.47812
11
2.24853
21
-2.47799
0
LINE
8
BLACK
6
CONTINUOUS
10
2.24853
20
-2.47799
11
2.24984
21
-2.47654
0
LINE
8
BLACK
6
CONTINUOUS
10
2.24984
20
-2.47654
11
2.2483
21
-2.47285
0
LINE
8
BLACK
6
CONTINUOUS
10
2.2483
20
-2.47285
11
2.24349
21
-2.46609
0
LINE
8
BLACK
6
CONTINUOUS
10
2.24349
20
-2.46609
11
2.23495
21
-2.45547
0
LINE
8
BLACK
6
CONTINUOUS
10
2.23495
20
-2.45547
11
2.22773
21
-2.44645
0
LINE
8
BLACK
6
CONTINUOUS
10
2.22773
20
-2.44645
11
2.21614
21
-2.43027
0
LINE
8
BLACK
6
CONTINUOUS
10
2.21614
20
-2.43027
11
2.20854
21
-2.41645
0
LINE
8
BLACK
6
CONTINUOUS
10
2.20854
20
-2.41645
11
2.20439
21
-2.40388
0
LINE
8
BLACK
6
CONTINUOUS
10
2.20439
20
-2.40388
11
2.20312
21
-2.39144
0
LINE
8
BLACK
6
CONTINUOUS
10
2.20312
20
-2.39144
11
2.20314
21
-2.38996
0
LINE
8
BLACK
6
CONTINUOUS
10
2.20314
20
-2.38996
11
2.20549
21
-2.37532
0
LINE
8
BLACK
6
CONTINUOUS
10
2.20549
20
-2.37532
11
2.2122
21
-2.36476
0
LINE
8
BLACK
6
CONTINUOUS
10
2.2122
20
-2.36476
11
2.22375
21
-2.35748
0
LINE
8
BLACK
6
CONTINUOUS
10
2.22375
20
-2.35748
11
2.23901
21
-2.35339
0
LINE
8
BLACK
6
CONTINUOUS
10
2.23901
20
-2.35339
11
2.2565
21
-2.35441
0
LINE
8
BLACK
6
CONTINUOUS
10
2.2565
20
-2.35441
11
2.27406
21
-2.3616
0
LINE
8
BLACK
6
CONTINUOUS
10
2.27406
20
-2.3616
11
2.29183
21
-2.375
0
LINE
8
BLACK
6
CONTINUOUS
10
2.29183
20
-2.375
11
2.30787
21
-2.39283
0
LINE
8
BLACK
6
CONTINUOUS
10
2.30787
20
-2.39283
11
2.32353
21
-2.41794
0
LINE
8
BLACK
6
CONTINUOUS
10
2.32353
20
-2.41794
11
2.33613
21
-2.44741
0
LINE
8
BLACK
6
CONTINUOUS
10
2.33613
20
-2.44741
11
2.34541
21
-2.48057
0
LINE
8
BLACK
6
CONTINUOUS
10
2.34541
20
-2.48057
11
2.35116
21
-2.51672
0
LINE
8
BLACK
6
CONTINUOUS
10
2.35116
20
-2.51672
11
2.35312
21
-2.55516
0
LINE
8
BLACK
6
CONTINUOUS
10
2.35312
20
-2.55516
11
2.35289
21
-2.56668
0
LINE
8
BLACK
6
CONTINUOUS
10
2.35289
20
-2.56668
11
2.35027
21
-2.59698
0
LINE
8
BLACK
6
CONTINUOUS
10
2.35027
20
-2.59698
11
2.34501
21
-2.627
0
LINE
8
BLACK
6
CONTINUOUS
10
2.34501
20
-2.627
11
2.33748
21
-2.65527
0
LINE
8
BLACK
6
CONTINUOUS
10
2.33748
20
-2.65527
11
2.32805
21
-2.68034
0
LINE
8
BLACK
6
CONTINUOUS
10
2.32805
20
-2.68034
11
2.31707
21
-2.70074
0
LINE
8
BLACK
6
CONTINUOUS
10
2.31707
20
-2.70074
11
2.3146
21
-2.70463
0
LINE
8
BLACK
6
CONTINUOUS
10
2.3146
20
-2.70463
11
2.3121
21
-2.70967
0
LINE
8
BLACK
6
CONTINUOUS
10
2.3121
20
-2.70967
11
2.31059
21
-2.71543
0
LINE
8
BLACK
6
CONTINUOUS
10
2.31059
20
-2.71543
11
2.30987
21
-2.7233
0
LINE
8
BLACK
6
CONTINUOUS
10
2.30987
20
-2.7233
11
2.30976
21
-2.73465
0
LINE
8
BLACK
6
CONTINUOUS
10
2.30976
20
-2.73465
11
2.31006
21
-2.75086
0
LINE
8
BLACK
6
CONTINUOUS
10
2.31006
20
-2.75086
11
2.31036
21
-2.76406
0
LINE
8
BLACK
6
CONTINUOUS
10
2.31036
20
-2.76406
11
2.31094
21
-2.78906
0
LINE
8
BLACK
6
CONTINUOUS
10
1.80342
20
-2.64219
11
1.80276
21
-2.62938
0
LINE
8
BLACK
6
CONTINUOUS
10
1.80276
20
-2.62938
11
1.80054
21
-2.61495
0
LINE
8
BLACK
6
CONTINUOUS
10
1.80054
20
-2.61495
11
1.79612
21
-2.60362
0
LINE
8
BLACK
6
CONTINUOUS
10
1.79612
20
-2.60362
11
1.7887
21
-2.59357
0
LINE
8
BLACK
6
CONTINUOUS
10
1.7887
20
-2.59357
11
1.77747
21
-2.58298
0
LINE
8
BLACK
6
CONTINUOUS
10
1.77747
20
-2.58298
11
1.77536
21
-2.58127
0
LINE
8
BLACK
6
CONTINUOUS
10
1.77536
20
-2.58127
11
1.76076
21
-2.57256
0
LINE
8
BLACK
6
CONTINUOUS
10
1.76076
20
-2.57256
11
1.74245
21
-2.56535
0
LINE
8
BLACK
6
CONTINUOUS
10
1.74245
20
-2.56535
11
1.72221
21
-2.56001
0
LINE
8
BLACK
6
CONTINUOUS
10
1.72221
20
-2.56001
11
1.70183
21
-2.55695
0
LINE
8
BLACK
6
CONTINUOUS
10
1.70183
20
-2.55695
11
1.68311
21
-2.55654
0
LINE
8
BLACK
6
CONTINUOUS
10
1.68311
20
-2.55654
11
1.66781
21
-2.55917
0
LINE
8
BLACK
6
CONTINUOUS
10
1.66781
20
-2.55917
11
1.65872
21
-2.56332
0
LINE
8
BLACK
6
CONTINUOUS
10
1.65872
20
-2.56332
11
1.64759
21
-2.57363
0
LINE
8
BLACK
6
CONTINUOUS
10
1.64759
20
-2.57363
11
1.64079
21
-2.58832
0
LINE
8
BLACK
6
CONTINUOUS
10
1.64079
20
-2.58832
11
1.63839
21
-2.60727
0
LINE
8
BLACK
6
CONTINUOUS
10
1.63839
20
-2.60727
11
1.64041
21
-2.63036
0
LINE
8
BLACK
6
CONTINUOUS
10
1.64041
20
-2.63036
11
1.64635
21
-2.65771
0
LINE
8
BLACK
6
CONTINUOUS
10
1.64635
20
-2.65771
11
1.65485
21
-2.68157
0
LINE
8
BLACK
6
CONTINUOUS
10
1.65485
20
-2.68157
11
1.66594
21
-2.70063
0
LINE
8
BLACK
6
CONTINUOUS
10
1.66594
20
-2.70063
11
1.67997
21
-2.7155
0
LINE
8
BLACK
6
CONTINUOUS
10
1.67997
20
-2.7155
11
1.69729
21
-2.72677
0
LINE
8
BLACK
6
CONTINUOUS
10
1.69729
20
-2.72677
11
1.70208
21
-2.72905
0
LINE
8
BLACK
6
CONTINUOUS
10
1.70208
20
-2.72905
11
1.71385
21
-2.73381
0
LINE
8
BLACK
6
CONTINUOUS
10
1.71385
20
-2.73381
11
1.72401
21
-2.73693
0
LINE
8
BLACK
6
CONTINUOUS
10
1.72401
20
-2.73693
11
1.73601
21
-2.73963
0
LINE
8
BLACK
6
CONTINUOUS
10
1.73601
20
-2.73963
11
1.77012
21
-2.70497
0
LINE
8
BLACK
6
CONTINUOUS
10
1.77012
20
-2.70497
11
1.80424
21
-2.67031
0
LINE
8
BLACK
6
CONTINUOUS
10
1.80424
20
-2.67031
11
1.80342
21
-2.64219
0
LINE
8
BLACK
6
CONTINUOUS
10
1.91348
20
-2.55673
11
1.92111
21
-2.55946
0
LINE
8
BLACK
6
CONTINUOUS
10
1.92111
20
-2.55946
11
1.92827
21
-2.56578
0
LINE
8
BLACK
6
CONTINUOUS
10
1.92827
20
-2.56578
11
1.93585
21
-2.57618
0
LINE
8
BLACK
6
CONTINUOUS
10
1.93585
20
-2.57618
11
1.94357
21
-2.59253
0
LINE
8
BLACK
6
CONTINUOUS
10
1.94357
20
-2.59253
11
1.94888
21
-2.61077
0
LINE
8
BLACK
6
CONTINUOUS
10
1.94888
20
-2.61077
11
1.95091
21
-2.62852
0
LINE
8
BLACK
6
CONTINUOUS
10
1.95091
20
-2.62852
11
1.95071
21
-2.63444
0
LINE
8
BLACK
6
CONTINUOUS
10
1.95071
20
-2.63444
11
1.94631
21
-2.65338
0
LINE
8
BLACK
6
CONTINUOUS
10
1.94631
20
-2.65338
11
1.9363
21
-2.6698
0
LINE
8
BLACK
6
CONTINUOUS
10
1.9363
20
-2.6698
11
1.92087
21
-2.68346
0
LINE
8
BLACK
6
CONTINUOUS
10
1.92087
20
-2.68346
11
1.9002
21
-2.69413
0
LINE
8
BLACK
6
CONTINUOUS
10
1.9002
20
-2.69413
11
1.89602
21
-2.69562
0
LINE
8
BLACK
6
CONTINUOUS
10
1.89602
20
-2.69562
11
1.88523
21
-2.6985
0
LINE
8
BLACK
6
CONTINUOUS
10
1.88523
20
-2.6985
11
1.87656
21
-2.69959
0
LINE
8
BLACK
6
CONTINUOUS
10
1.87656
20
-2.69959
11
1.87513
21
-2.69955
0
LINE
8
BLACK
6
CONTINUOUS
10
1.87513
20
-2.69955
11
1.87215
21
-2.69906
0
LINE
8
BLACK
6
CONTINUOUS
10
1.87215
20
-2.69906
11
1.87459
21
-2.69781
0
LINE
8
BLACK
6
CONTINUOUS
10
1.87459
20
-2.69781
11
1.88281
21
-2.6956
0
LINE
8
BLACK
6
CONTINUOUS
10
1.88281
20
-2.6956
11
1.8911
21
-2.69328
0
LINE
8
BLACK
6
CONTINUOUS
10
1.8911
20
-2.69328
11
1.91285
21
-2.68403
0
LINE
8
BLACK
6
CONTINUOUS
10
1.91285
20
-2.68403
11
1.92938
21
-2.67159
0
LINE
8
BLACK
6
CONTINUOUS
10
1.92938
20
-2.67159
11
1.94055
21
-2.65625
0
LINE
8
BLACK
6
CONTINUOUS
10
1.94055
20
-2.65625
11
1.94621
21
-2.63826
0
LINE
8
BLACK
6
CONTINUOUS
10
1.94621
20
-2.63826
11
1.9462
21
-2.61788
0
LINE
8
BLACK
6
CONTINUOUS
10
1.9462
20
-2.61788
11
1.94038
21
-2.59538
0
LINE
8
BLACK
6
CONTINUOUS
10
1.94038
20
-2.59538
11
1.93441
21
-2.58152
0
LINE
8
BLACK
6
CONTINUOUS
10
1.93441
20
-2.58152
11
1.92624
21
-2.5689
0
LINE
8
BLACK
6
CONTINUOUS
10
1.92624
20
-2.5689
11
1.91709
21
-2.56168
0
LINE
8
BLACK
6
CONTINUOUS
10
1.91709
20
-2.56168
11
1.90651
21
-2.55937
0
LINE
8
BLACK
6
CONTINUOUS
10
1.90651
20
-2.55937
11
1.89659
21
-2.5611
0
LINE
8
BLACK
6
CONTINUOUS
10
1.89659
20
-2.5611
11
1.88255
21
-2.56769
0
LINE
8
BLACK
6
CONTINUOUS
10
1.88255
20
-2.56769
11
1.86768
21
-2.57853
0
LINE
8
BLACK
6
CONTINUOUS
10
1.86768
20
-2.57853
11
1.85314
21
-2.59291
0
LINE
8
BLACK
6
CONTINUOUS
10
1.85314
20
-2.59291
11
1.84795
21
-2.59933
0
LINE
8
BLACK
6
CONTINUOUS
10
1.84795
20
-2.59933
11
1.83875
21
-2.61598
0
LINE
8
BLACK
6
CONTINUOUS
10
1.83875
20
-2.61598
11
1.83527
21
-2.63358
0
LINE
8
BLACK
6
CONTINUOUS
10
1.83527
20
-2.63358
11
1.83746
21
-2.65278
0
LINE
8
BLACK
6
CONTINUOUS
10
1.83746
20
-2.65278
11
1.84525
21
-2.67424
0
LINE
8
BLACK
6
CONTINUOUS
10
1.84525
20
-2.67424
11
1.84834
21
-2.6815
0
LINE
8
BLACK
6
CONTINUOUS
10
1.84834
20
-2.6815
11
1.85045
21
-2.68809
0
LINE
8
BLACK
6
CONTINUOUS
10
1.85045
20
-2.68809
11
1.85024
21
-2.69062
0
LINE
8
BLACK
6
CONTINUOUS
10
1.85024
20
-2.69062
11
1.84842
21
-2.68904
0
LINE
8
BLACK
6
CONTINUOUS
10
1.84842
20
-2.68904
11
1.84467
21
-2.68308
0
LINE
8
BLACK
6
CONTINUOUS
10
1.84467
20
-2.68308
11
1.84027
21
-2.67422
0
LINE
8
BLACK
6
CONTINUOUS
10
1.84027
20
-2.67422
11
1.83531
21
-2.66024
0
LINE
8
BLACK
6
CONTINUOUS
10
1.83531
20
-2.66024
11
1.83239
21
-2.63937
0
LINE
8
BLACK
6
CONTINUOUS
10
1.83239
20
-2.63937
11
1.8347
21
-2.61937
0
LINE
8
BLACK
6
CONTINUOUS
10
1.8347
20
-2.61937
11
1.84219
21
-2.60158
0
LINE
8
BLACK
6
CONTINUOUS
10
1.84219
20
-2.60158
11
1.84232
21
-2.60137
0
LINE
8
BLACK
6
CONTINUOUS
10
1.84232
20
-2.60137
11
1.84976
21
-2.59172
0
LINE
8
BLACK
6
CONTINUOUS
10
1.84976
20
-2.59172
11
1.86015
21
-2.58095
0
LINE
8
BLACK
6
CONTINUOUS
10
1.86015
20
-2.58095
11
1.87127
21
-2.57136
0
LINE
8
BLACK
6
CONTINUOUS
10
1.87127
20
-2.57136
11
1.88157
21
-2.56381
0
LINE
8
BLACK
6
CONTINUOUS
10
1.88157
20
-2.56381
11
1.88978
21
-2.55905
0
LINE
8
BLACK
6
CONTINUOUS
10
1.88978
20
-2.55905
11
1.89701
21
-2.55681
0
LINE
8
BLACK
6
CONTINUOUS
10
1.89701
20
-2.55681
11
1.90517
21
-2.55625
0
LINE
8
BLACK
6
CONTINUOUS
10
1.90517
20
-2.55625
11
1.91348
21
-2.55673
0
LINE
8
BLACK
6
CONTINUOUS
10
1.81511
20
-2.67539
11
1.81982
21
-2.6875
0
LINE
8
BLACK
6
CONTINUOUS
10
1.81982
20
-2.6875
11
1.82116
21
-2.69062
0
LINE
8
BLACK
6
CONTINUOUS
10
1.82116
20
-2.69062
11
1.82615
21
-2.70281
0
LINE
8
BLACK
6
CONTINUOUS
10
1.82615
20
-2.70281
11
1.8285
21
-2.7106
0
LINE
8
BLACK
6
CONTINUOUS
10
1.8285
20
-2.7106
11
1.82818
21
-2.71506
0
LINE
8
BLACK
6
CONTINUOUS
10
1.82818
20
-2.71506
11
1.8252
21
-2.71723
0
LINE
8
BLACK
6
CONTINUOUS
10
1.8252
20
-2.71723
11
1.81953
21
-2.71817
0
LINE
8
BLACK
6
CONTINUOUS
10
1.81953
20
-2.71817
11
1.81884
21
-2.71823
0
LINE
8
BLACK
6
CONTINUOUS
10
1.81884
20
-2.71823
11
1.81209
21
-2.71785
0
LINE
8
BLACK
6
CONTINUOUS
10
1.81209
20
-2.71785
11
1.80937
21
-2.71582
0
LINE
8
BLACK
6
CONTINUOUS
10
1.80937
20
-2.71582
11
1.81055
21
-2.71389
0
LINE
8
BLACK
6
CONTINUOUS
10
1.81055
20
-2.71389
11
1.81563
21
-2.7125
0
LINE
8
BLACK
6
CONTINUOUS
10
1.81563
20
-2.7125
11
1.81925
21
-2.71219
0
LINE
8
BLACK
6
CONTINUOUS
10
1.81925
20
-2.71219
11
1.82187
21
-2.71081
0
LINE
8
BLACK
6
CONTINUOUS
10
1.82187
20
-2.71081
11
1.82187
21
-2.71075
0
LINE
8
BLACK
6
CONTINUOUS
10
1.82187
20
-2.71075
11
1.82046
21
-2.70702
0
LINE
8
BLACK
6
CONTINUOUS
10
1.82046
20
-2.70702
11
1.81722
21
-2.70005
0
LINE
8
BLACK
6
CONTINUOUS
10
1.81722
20
-2.70005
11
1.81324
21
-2.69202
0
LINE
8
BLACK
6
CONTINUOUS
10
1.81324
20
-2.69202
11
1.80959
21
-2.68509
0
LINE
8
BLACK
6
CONTINUOUS
10
1.80959
20
-2.68509
11
1.80733
21
-2.68141
0
LINE
8
BLACK
6
CONTINUOUS
10
1.80733
20
-2.68141
11
1.80653
21
-2.68149
0
LINE
8
BLACK
6
CONTINUOUS
10
1.80653
20
-2.68149
11
1.80213
21
-2.68468
0
LINE
8
BLACK
6
CONTINUOUS
10
1.80213
20
-2.68468
11
1.79472
21
-2.69136
0
LINE
8
BLACK
6
CONTINUOUS
10
1.79472
20
-2.69136
11
1.7851
21
-2.70073
0
LINE
8
BLACK
6
CONTINUOUS
10
1.7851
20
-2.70073
11
1.77406
21
-2.71196
0
LINE
8
BLACK
6
CONTINUOUS
10
1.77406
20
-2.71196
11
1.76239
21
-2.72424
0
LINE
8
BLACK
6
CONTINUOUS
10
1.76239
20
-2.72424
11
1.75086
21
-2.73678
0
LINE
8
BLACK
6
CONTINUOUS
10
1.75086
20
-2.73678
11
1.74028
21
-2.74876
0
LINE
8
BLACK
6
CONTINUOUS
10
1.74028
20
-2.74876
11
1.73142
21
-2.75937
0
LINE
8
BLACK
6
CONTINUOUS
10
1.73142
20
-2.75937
11
1.72701
21
-2.76498
0
LINE
8
BLACK
6
CONTINUOUS
10
1.72701
20
-2.76498
11
1.71492
21
-2.78104
0
LINE
8
BLACK
6
CONTINUOUS
10
1.71492
20
-2.78104
11
1.70273
21
-2.79803
0
LINE
8
BLACK
6
CONTINUOUS
10
1.70273
20
-2.79803
11
1.69251
21
-2.8131
0
LINE
8
BLACK
6
CONTINUOUS
10
1.69251
20
-2.8131
11
1.67484
21
-2.84026
0
LINE
8
BLACK
6
CONTINUOUS
10
1.67484
20
-2.84026
11
1.68596
21
-2.85763
0
LINE
8
BLACK
6
CONTINUOUS
10
1.68596
20
-2.85763
11
1.69707
21
-2.875
0
LINE
8
BLACK
6
CONTINUOUS
10
1.69707
20
-2.875
11
1.8687
21
-2.875
0
LINE
8
BLACK
6
CONTINUOUS
10
1.8687
20
-2.875
11
2.04034
21
-2.875
0
LINE
8
BLACK
6
CONTINUOUS
10
2.04034
20
-2.875
11
2.04751
21
-2.86794
0
LINE
8
BLACK
6
CONTINUOUS
10
2.04751
20
-2.86794
11
2.04913
21
-2.8666
0
LINE
8
BLACK
6
CONTINUOUS
10
2.04913
20
-2.8666
11
2.05702
21
-2.86195
0
LINE
8
BLACK
6
CONTINUOUS
10
2.05702
20
-2.86195
11
2.06835
21
-2.85673
0
LINE
8
BLACK
6
CONTINUOUS
10
2.06835
20
-2.85673
11
2.08125
21
-2.85182
0
LINE
8
BLACK
6
CONTINUOUS
10
2.08125
20
-2.85182
11
2.08701
21
-2.84985
0
LINE
8
BLACK
6
CONTINUOUS
10
2.08701
20
-2.84985
11
2.09786
21
-2.84608
0
LINE
8
BLACK
6
CONTINUOUS
10
2.09786
20
-2.84608
11
2.10557
21
-2.84332
0
LINE
8
BLACK
6
CONTINUOUS
10
2.10557
20
-2.84332
11
2.10874
21
-2.84207
0
LINE
8
BLACK
6
CONTINUOUS
10
2.10874
20
-2.84207
11
2.10863
21
-2.84131
0
LINE
8
BLACK
6
CONTINUOUS
10
2.10863
20
-2.84131
11
2.10655
21
-2.83624
0
LINE
8
BLACK
6
CONTINUOUS
10
2.10655
20
-2.83624
11
2.10244
21
-2.82751
0
LINE
8
BLACK
6
CONTINUOUS
10
2.10244
20
-2.82751
11
2.09691
21
-2.81643
0
LINE
8
BLACK
6
CONTINUOUS
10
2.09691
20
-2.81643
11
2.08911
21
-2.79953
0
LINE
8
BLACK
6
CONTINUOUS
10
2.08911
20
-2.79953
11
2.08168
21
-2.777
0
LINE
8
BLACK
6
CONTINUOUS
10
2.08168
20
-2.777
11
2.07889
21
-2.7572
0
LINE
8
BLACK
6
CONTINUOUS
10
2.07889
20
-2.7572
11
2.08085
21
-2.74071
0
LINE
8
BLACK
6
CONTINUOUS
10
2.08085
20
-2.74071
11
2.08251
21
-2.73623
0
LINE
8
BLACK
6
CONTINUOUS
10
2.08251
20
-2.73623
11
2.09109
21
-2.72253
0
LINE
8
BLACK
6
CONTINUOUS
10
2.09109
20
-2.72253
11
2.10392
21
-2.7098
0
LINE
8
BLACK
6
CONTINUOUS
10
2.10392
20
-2.7098
11
2.11955
21
-2.69959
0
LINE
8
BLACK
6
CONTINUOUS
10
2.11955
20
-2.69959
11
2.12337
21
-2.69772
0
LINE
8
BLACK
6
CONTINUOUS
10
2.12337
20
-2.69772
11
2.1361
21
-2.69227
0
LINE
8
BLACK
6
CONTINUOUS
10
2.1361
20
-2.69227
11
2.15033
21
-2.68698
0
LINE
8
BLACK
6
CONTINUOUS
10
2.15033
20
-2.68698
11
2.16425
21
-2.68246
0
LINE
8
BLACK
6
CONTINUOUS
10
2.16425
20
-2.68246
11
2.17607
21
-2.67931
0
LINE
8
BLACK
6
CONTINUOUS
10
2.17607
20
-2.67931
11
2.18398
21
-2.67813
0
LINE
8
BLACK
6
CONTINUOUS
10
2.18398
20
-2.67813
11
2.18744
21
-2.67831
0
LINE
8
BLACK
6
CONTINUOUS
10
2.18744
20
-2.67831
11
2.18965
21
-2.67966
0
LINE
8
BLACK
6
CONTINUOUS
10
2.18965
20
-2.67966
11
2.1861
21
-2.68223
0
LINE
8
BLACK
6
CONTINUOUS
10
2.1861
20
-2.68223
11
2.17699
21
-2.6859
0
LINE
8
BLACK
6
CONTINUOUS
10
2.17699
20
-2.6859
11
2.16254
21
-2.69054
0
LINE
8
BLACK
6
CONTINUOUS
10
2.16254
20
-2.69054
11
2.14596
21
-2.6959
0
LINE
8
BLACK
6
CONTINUOUS
10
2.14596
20
-2.6959
11
2.12918
21
-2.70287
0
LINE
8
BLACK
6
CONTINUOUS
10
2.12918
20
-2.70287
11
2.11545
21
-2.71086
0
LINE
8
BLACK
6
CONTINUOUS
10
2.11545
20
-2.71086
11
2.10301
21
-2.72078
0
LINE
8
BLACK
6
CONTINUOUS
10
2.10301
20
-2.72078
11
2.09539
21
-2.729
0
LINE
8
BLACK
6
CONTINUOUS
10
2.09539
20
-2.729
11
2.08854
21
-2.74185
0
LINE
8
BLACK
6
CONTINUOUS
10
2.08854
20
-2.74185
11
2.0862
21
-2.75672
0
LINE
8
BLACK
6
CONTINUOUS
10
2.0862
20
-2.75672
11
2.08841
21
-2.77416
0
LINE
8
BLACK
6
CONTINUOUS
10
2.08841
20
-2.77416
11
2.09519
21
-2.79472
0
LINE
8
BLACK
6
CONTINUOUS
10
2.09519
20
-2.79472
11
2.10655
21
-2.81896
0
LINE
8
BLACK
6
CONTINUOUS
10
2.10655
20
-2.81896
11
2.11065
21
-2.82708
0
LINE
8
BLACK
6
CONTINUOUS
10
2.11065
20
-2.82708
11
2.11542
21
-2.83816
0
LINE
8
BLACK
6
CONTINUOUS
10
2.11542
20
-2.83816
11
2.11684
21
-2.8452
0
LINE
8
BLACK
6
CONTINUOUS
10
2.11684
20
-2.8452
11
2.115
21
-2.84894
0
LINE
8
BLACK
6
CONTINUOUS
10
2.115
20
-2.84894
11
2.10997
21
-2.85012
0
LINE
8
BLACK
6
CONTINUOUS
10
2.10997
20
-2.85012
11
2.10917
21
-2.85018
0
LINE
8
BLACK
6
CONTINUOUS
10
2.10917
20
-2.85018
11
2.10272
21
-2.85169
0
LINE
8
BLACK
6
CONTINUOUS
10
2.10272
20
-2.85169
11
2.09341
21
-2.85478
0
LINE
8
BLACK
6
CONTINUOUS
10
2.09341
20
-2.85478
11
2.08269
21
-2.85884
0
LINE
8
BLACK
6
CONTINUOUS
10
2.08269
20
-2.85884
11
2.07204
21
-2.86327
0
LINE
8
BLACK
6
CONTINUOUS
10
2.07204
20
-2.86327
11
2.0629
21
-2.86747
0
LINE
8
BLACK
6
CONTINUOUS
10
2.0629
20
-2.86747
11
2.05675
21
-2.87083
0
LINE
8
BLACK
6
CONTINUOUS
10
2.05675
20
-2.87083
11
2.05505
21
-2.87276
0
LINE
8
BLACK
6
CONTINUOUS
10
2.05505
20
-2.87276
11
2.05783
21
-2.87322
0
LINE
8
BLACK
6
CONTINUOUS
10
2.05783
20
-2.87322
11
2.06625
21
-2.8737
0
LINE
8
BLACK
6
CONTINUOUS
10
2.06625
20
-2.8737
11
2.07956
21
-2.87413
0
LINE
8
BLACK
6
CONTINUOUS
10
2.07956
20
-2.87413
11
2.09703
21
-2.87449
0
LINE
8
BLACK
6
CONTINUOUS
10
2.09703
20
-2.87449
11
2.11795
21
-2.87476
0
LINE
8
BLACK
6
CONTINUOUS
10
2.11795
20
-2.87476
11
2.14158
21
-2.87494
0
LINE
8
BLACK
6
CONTINUOUS
10
2.14158
20
-2.87494
11
2.16721
21
-2.875
0
LINE
8
BLACK
6
CONTINUOUS
10
2.16721
20
-2.875
11
2.27712
21
-2.875
0
LINE
8
BLACK
6
CONTINUOUS
10
2.27712
20
-2.875
11
2.28086
21
-2.86679
0
LINE
8
BLACK
6
CONTINUOUS
10
2.28086
20
-2.86679
11
2.28165
21
-2.865
0
LINE
8
BLACK
6
CONTINUOUS
10
2.28165
20
-2.865
11
2.28727
21
-2.84908
0
LINE
8
BLACK
6
CONTINUOUS
10
2.28727
20
-2.84908
11
2.29252
21
-2.8291
0
LINE
8
BLACK
6
CONTINUOUS
10
2.29252
20
-2.8291
11
2.29702
21
-2.80698
0
LINE
8
BLACK
6
CONTINUOUS
10
2.29702
20
-2.80698
11
2.30036
21
-2.78466
0
LINE
8
BLACK
6
CONTINUOUS
10
2.30036
20
-2.78466
11
2.30215
21
-2.76406
0
LINE
8
BLACK
6
CONTINUOUS
10
2.30215
20
-2.76406
11
2.30189
21
-2.73195
0
LINE
8
BLACK
6
CONTINUOUS
10
2.30189
20
-2.73195
11
2.29725
21
-2.70028
0
LINE
8
BLACK
6
CONTINUOUS
10
2.29725
20
-2.70028
11
2.2878
21
-2.67174
0
LINE
8
BLACK
6
CONTINUOUS
10
2.2878
20
-2.67174
11
2.27329
21
-2.64558
0
LINE
8
BLACK
6
CONTINUOUS
10
2.27329
20
-2.64558
11
2.2535
21
-2.62109
0
LINE
8
BLACK
6
CONTINUOUS
10
2.2535
20
-2.62109
11
2.25189
21
-2.6194
0
LINE
8
BLACK
6
CONTINUOUS
10
2.25189
20
-2.6194
11
2.22804
21
-2.59803
0
LINE
8
BLACK
6
CONTINUOUS
10
2.22804
20
-2.59803
11
2.20178
21
-2.58051
0
LINE
8
BLACK
6
CONTINUOUS
10
2.20178
20
-2.58051
11
2.17419
21
-2.56737
0
LINE
8
BLACK
6
CONTINUOUS
10
2.17419
20
-2.56737
11
2.14635
21
-2.55913
0
LINE
8
BLACK
6
CONTINUOUS
10
2.14635
20
-2.55913
11
2.11935
21
-2.55631
0
LINE
8
BLACK
6
CONTINUOUS
10
2.11935
20
-2.55631
11
2.11514
21
-2.55637
0
LINE
8
BLACK
6
CONTINUOUS
10
2.11514
20
-2.55637
11
2.09882
21
-2.55723
0
LINE
8
BLACK
6
CONTINUOUS
10
2.09882
20
-2.55723
11
2.08027
21
-2.55899
0
LINE
8
BLACK
6
CONTINUOUS
10
2.08027
20
-2.55899
11
2.06055
21
-2.56145
0
LINE
8
BLACK
6
CONTINUOUS
10
2.06055
20
-2.56145
11
2.04071
21
-2.56443
0
LINE
8
BLACK
6
CONTINUOUS
10
2.04071
20
-2.56443
11
2.02182
21
-2.56777
0
LINE
8
BLACK
6
CONTINUOUS
10
2.02182
20
-2.56777
11
2.00492
21
-2.57126
0
LINE
8
BLACK
6
CONTINUOUS
10
2.00492
20
-2.57126
11
1.99108
21
-2.57473
0
LINE
8
BLACK
6
CONTINUOUS
10
1.99108
20
-2.57473
11
1.98135
21
-2.578
0
LINE
8
BLACK
6
CONTINUOUS
10
1.98135
20
-2.578
11
1.97678
21
-2.58089
0
LINE
8
BLACK
6
CONTINUOUS
10
1.97678
20
-2.58089
11
1.97677
21
-2.58457
0
LINE
8
BLACK
6
CONTINUOUS
10
1.97677
20
-2.58457
11
1.978
21
-2.59262
0
LINE
8
BLACK
6
CONTINUOUS
10
1.978
20
-2.59262
11
1.98021
21
-2.6032
0
LINE
8
BLACK
6
CONTINUOUS
10
1.98021
20
-2.6032
11
1.982
21
-2.61262
0
LINE
8
BLACK
6
CONTINUOUS
10
1.982
20
-2.61262
11
1.98273
21
-2.63751
0
LINE
8
BLACK
6
CONTINUOUS
10
1.98273
20
-2.63751
11
1.9775
21
-2.66089
0
LINE
8
BLACK
6
CONTINUOUS
10
1.9775
20
-2.66089
11
1.96647
21
-2.68227
0
LINE
8
BLACK
6
CONTINUOUS
10
1.96647
20
-2.68227
11
1.94978
21
-2.70116
0
LINE
8
BLACK
6
CONTINUOUS
10
1.94978
20
-2.70116
11
1.94151
21
-2.70792
0
LINE
8
BLACK
6
CONTINUOUS
10
1.94151
20
-2.70792
11
1.92331
21
-2.71954
0
LINE
8
BLACK
6
CONTINUOUS
10
1.92331
20
-2.71954
11
1.90346
21
-2.72889
0
LINE
8
BLACK
6
CONTINUOUS
10
1.90346
20
-2.72889
11
1.88386
21
-2.73514
0
LINE
8
BLACK
6
CONTINUOUS
10
1.88386
20
-2.73514
11
1.86641
21
-2.73746
0
LINE
8
BLACK
6
CONTINUOUS
10
1.86641
20
-2.73746
11
1.86263
21
-2.73729
0
LINE
8
BLACK
6
CONTINUOUS
10
1.86263
20
-2.73729
11
1.85925
21
-2.73596
0
LINE
8
BLACK
6
CONTINUOUS
10
1.85925
20
-2.73596
11
1.86099
21
-2.73372
0
LINE
8
BLACK
6
CONTINUOUS
10
1.86099
20
-2.73372
11
1.86723
21
-2.73107
0
LINE
8
BLACK
6
CONTINUOUS
10
1.86723
20
-2.73107
11
1.87734
21
-2.72853
0
LINE
8
BLACK
6
CONTINUOUS
10
1.87734
20
-2.72853
11
1.88385
21
-2.72708
0
LINE
8
BLACK
6
CONTINUOUS
10
1.88385
20
-2.72708
11
1.90732
21
-2.71913
0
LINE
8
BLACK
6
CONTINUOUS
10
1.90732
20
-2.71913
11
1.92871
21
-2.70772
0
LINE
8
BLACK
6
CONTINUOUS
10
1.92871
20
-2.70772
11
1.94699
21
-2.6936
0
LINE
8
BLACK
6
CONTINUOUS
10
1.94699
20
-2.6936
11
1.96111
21
-2.67754
0
LINE
8
BLACK
6
CONTINUOUS
10
1.96111
20
-2.67754
11
1.97004
21
-2.66031
0
LINE
8
BLACK
6
CONTINUOUS
10
1.97004
20
-2.66031
11
1.97187
21
-2.65404
0
LINE
8
BLACK
6
CONTINUOUS
10
1.97187
20
-2.65404
11
1.97471
21
-2.63296
0
LINE
8
BLACK
6
CONTINUOUS
10
1.97471
20
-2.63296
11
1.97362
21
-2.61041
0
LINE
8
BLACK
6
CONTINUOUS
10
1.97362
20
-2.61041
11
1.96866
21
-2.58889
0
LINE
8
BLACK
6
CONTINUOUS
10
1.96866
20
-2.58889
11
1.96267
21
-2.57312
0
LINE
8
BLACK
6
CONTINUOUS
10
1.96267
20
-2.57312
11
1.95205
21
-2.55229
0
LINE
8
BLACK
6
CONTINUOUS
10
1.95205
20
-2.55229
11
1.94036
21
-2.53722
0
LINE
8
BLACK
6
CONTINUOUS
10
1.94036
20
-2.53722
11
1.9277
21
-2.52808
0
LINE
8
BLACK
6
CONTINUOUS
10
1.9277
20
-2.52808
11
1.91421
21
-2.525
0
LINE
8
BLACK
6
CONTINUOUS
10
1.91421
20
-2.525
11
1.90184
21
-2.52727
0
LINE
8
BLACK
6
CONTINUOUS
10
1.90184
20
-2.52727
11
1.88601
21
-2.53463
0
LINE
8
BLACK
6
CONTINUOUS
10
1.88601
20
-2.53463
11
1.86828
21
-2.54676
0
LINE
8
BLACK
6
CONTINUOUS
10
1.86828
20
-2.54676
11
1.84925
21
-2.56329
0
LINE
8
BLACK
6
CONTINUOUS
10
1.84925
20
-2.56329
11
1.84136
21
-2.571
0
LINE
8
BLACK
6
CONTINUOUS
10
1.84136
20
-2.571
11
1.82855
21
-2.58496
0
LINE
8
BLACK
6
CONTINUOUS
10
1.82855
20
-2.58496
11
1.81981
21
-2.59747
0
LINE
8
BLACK
6
CONTINUOUS
10
1.81981
20
-2.59747
11
1.81445
21
-2.60996
0
LINE
8
BLACK
6
CONTINUOUS
10
1.81445
20
-2.60996
11
1.81176
21
-2.62387
0
LINE
8
BLACK
6
CONTINUOUS
10
1.81176
20
-2.62387
11
1.81103
21
-2.64062
0
LINE
8
BLACK
6
CONTINUOUS
10
1.81103
20
-2.64062
11
1.81124
21
-2.65214
0
LINE
8
BLACK
6
CONTINUOUS
10
1.81124
20
-2.65214
11
1.81242
21
-2.66451
0
LINE
8
BLACK
6
CONTINUOUS
10
1.81242
20
-2.66451
11
1.81386
21
-2.67031
0
LINE
8
BLACK
6
CONTINUOUS
10
1.81386
20
-2.67031
11
1.81511
21
-2.67539
0
LINE
8
BLACK
6
CONTINUOUS
10
1.81272
20
-2.75651
11
1.82249
21
-2.75879
0
LINE
8
BLACK
6
CONTINUOUS
10
1.82249
20
-2.75879
11
1.83092
21
-2.76426
0
LINE
8
BLACK
6
CONTINUOUS
10
1.83092
20
-2.76426
11
1.83578
21
-2.76916
0
LINE
8
BLACK
6
CONTINUOUS
10
1.83578
20
-2.76916
11
1.84266
21
-2.78154
0
LINE
8
BLACK
6
CONTINUOUS
10
1.84266
20
-2.78154
11
1.8448
21
-2.79523
0
LINE
8
BLACK
6
CONTINUOUS
10
1.8448
20
-2.79523
11
1.84237
21
-2.80873
0
LINE
8
BLACK
6
CONTINUOUS
10
1.84237
20
-2.80873
11
1.8355
21
-2.82054
0
LINE
8
BLACK
6
CONTINUOUS
10
1.8355
20
-2.82054
11
1.82435
21
-2.82916
0
LINE
8
BLACK
6
CONTINUOUS
10
1.82435
20
-2.82916
11
1.82088
21
-2.8307
0
LINE
8
BLACK
6
CONTINUOUS
10
1.82088
20
-2.8307
11
1.80614
21
-2.83367
0
LINE
8
BLACK
6
CONTINUOUS
10
1.80614
20
-2.83367
11
1.79234
21
-2.83137
0
LINE
8
BLACK
6
CONTINUOUS
10
1.79234
20
-2.83137
11
1.78052
21
-2.82459
0
LINE
8
BLACK
6
CONTINUOUS
10
1.78052
20
-2.82459
11
1.77169
21
-2.81413
0
LINE
8
BLACK
6
CONTINUOUS
10
1.77169
20
-2.81413
11
1.7669
21
-2.80076
0
LINE
8
BLACK
6
CONTINUOUS
10
1.7669
20
-2.80076
11
1.76717
21
-2.78529
0
LINE
8
BLACK
6
CONTINUOUS
10
1.76717
20
-2.78529
11
1.76774
21
-2.78238
0
LINE
8
BLACK
6
CONTINUOUS
10
1.76774
20
-2.78238
11
1.76913
21
-2.77681
0
LINE
8
BLACK
6
CONTINUOUS
10
1.76913
20
-2.77681
11
1.77042
21
-2.77661
0
LINE
8
BLACK
6
CONTINUOUS
10
1.77042
20
-2.77661
11
1.77238
21
-2.78116
0
LINE
8
BLACK
6
CONTINUOUS
10
1.77238
20
-2.78116
11
1.77641
21
-2.78807
0
LINE
8
BLACK
6
CONTINUOUS
10
1.77641
20
-2.78807
11
1.78414
21
-2.79326
0
LINE
8
BLACK
6
CONTINUOUS
10
1.78414
20
-2.79326
11
1.79301
21
-2.79323
0
LINE
8
BLACK
6
CONTINUOUS
10
1.79301
20
-2.79323
11
1.80145
21
-2.78763
0
LINE
8
BLACK
6
CONTINUOUS
10
1.80145
20
-2.78763
11
1.80409
21
-2.78339
0
LINE
8
BLACK
6
CONTINUOUS
10
1.80409
20
-2.78339
11
1.80524
21
-2.77517
0
LINE
8
BLACK
6
CONTINUOUS
10
1.80524
20
-2.77517
11
1.80263
21
-2.76769
0
LINE
8
BLACK
6
CONTINUOUS
10
1.80263
20
-2.76769
11
1.79673
21
-2.76337
0
LINE
8
BLACK
6
CONTINUOUS
10
1.79673
20
-2.76337
11
1.79651
21
-2.76331
0
LINE
8
BLACK
6
CONTINUOUS
10
1.79651
20
-2.76331
11
1.79112
21
-2.76094
0
LINE
8
BLACK
6
CONTINUOUS
10
1.79112
20
-2.76094
11
1.79132
21
-2.75866
0
LINE
8
BLACK
6
CONTINUOUS
10
1.79132
20
-2.75866
11
1.7965
21
-2.75693
0
LINE
8
BLACK
6
CONTINUOUS
10
1.7965
20
-2.75693
11
1.80601
21
-2.75625
0
LINE
8
BLACK
6
CONTINUOUS
10
1.80601
20
-2.75625
11
1.81272
21
-2.75651
0
LINE
8
BLACK
6
CONTINUOUS
10
1.85547
20
-2.78984
11
1.85556
21
-2.79094
0
LINE
8
BLACK
6
CONTINUOUS
10
1.85556
20
-2.79094
11
1.85406
21
-2.80858
0
LINE
8
BLACK
6
CONTINUOUS
10
1.85406
20
-2.80858
11
1.84709
21
-2.82386
0
LINE
8
BLACK
6
CONTINUOUS
10
1.84709
20
-2.82386
11
1.83522
21
-2.83595
0
LINE
8
BLACK
6
CONTINUOUS
10
1.83522
20
-2.83595
11
1.81902
21
-2.84399
0
LINE
8
BLACK
6
CONTINUOUS
10
1.81902
20
-2.84399
11
1.80753
21
-2.8454
0
LINE
8
BLACK
6
CONTINUOUS
10
1.80753
20
-2.8454
11
1.79327
21
-2.84336
0
LINE
8
BLACK
6
CONTINUOUS
10
1.79327
20
-2.84336
11
1.78001
21
-2.83805
0
LINE
8
BLACK
6
CONTINUOUS
10
1.78001
20
-2.83805
11
1.77226
21
-2.83247
0
LINE
8
BLACK
6
CONTINUOUS
10
1.77226
20
-2.83247
11
1.76204
21
-2.81987
0
LINE
8
BLACK
6
CONTINUOUS
10
1.76204
20
-2.81987
11
1.75644
21
-2.80492
0
LINE
8
BLACK
6
CONTINUOUS
10
1.75644
20
-2.80492
11
1.75565
21
-2.78901
0
LINE
8
BLACK
6
CONTINUOUS
10
1.75565
20
-2.78901
11
1.75986
21
-2.77352
0
LINE
8
BLACK
6
CONTINUOUS
10
1.75986
20
-2.77352
11
1.76926
21
-2.75983
0
LINE
8
BLACK
6
CONTINUOUS
10
1.76926
20
-2.75983
11
1.7716
21
-2.75756
0
LINE
8
BLACK
6
CONTINUOUS
10
1.7716
20
-2.75756
11
1.78574
21
-2.74828
0
LINE
8
BLACK
6
CONTINUOUS
10
1.78574
20
-2.74828
11
1.80099
21
-2.74426
0
LINE
8
BLACK
6
CONTINUOUS
10
1.80099
20
-2.74426
11
1.81627
21
-2.74514
0
LINE
8
BLACK
6
CONTINUOUS
10
1.81627
20
-2.74514
11
1.83045
21
-2.75052
0
LINE
8
BLACK
6
CONTINUOUS
10
1.83045
20
-2.75052
11
1.84245
21
-2.76002
0
LINE
8
BLACK
6
CONTINUOUS
10
1.84245
20
-2.76002
11
1.85116
21
-2.77325
0
LINE
8
BLACK
6
CONTINUOUS
10
1.85116
20
-2.77325
11
1.85534
21
-2.78936
0
LINE
8
BLACK
6
CONTINUOUS
10
1.85534
20
-2.78936
11
1.85547
21
-2.78984
0
LINE
8
BLACK
6
CONTINUOUS
10
1.8483
20
-2.77508
11
1.83987
21
-2.76263
0
LINE
8
BLACK
6
CONTINUOUS
10
1.83987
20
-2.76263
11
1.82695
21
-2.75331
0
LINE
8
BLACK
6
CONTINUOUS
10
1.82695
20
-2.75331
11
1.82455
21
-2.75218
0
LINE
8
BLACK
6
CONTINUOUS
10
1.82455
20
-2.75218
11
1.81058
21
-2.74766
0
LINE
8
BLACK
6
CONTINUOUS
10
1.81058
20
-2.74766
11
1.79787
21
-2.74802
0
LINE
8
BLACK
6
CONTINUOUS
10
1.79787
20
-2.74802
11
1.78413
21
-2.75325
0
LINE
8
BLACK
6
CONTINUOUS
10
1.78413
20
-2.75325
11
1.78403
21
-2.7533
0
LINE
8
BLACK
6
CONTINUOUS
10
1.78403
20
-2.7533
11
1.77064
21
-2.76335
0
LINE
8
BLACK
6
CONTINUOUS
10
1.77064
20
-2.76335
11
1.76228
21
-2.77686
0
LINE
8
BLACK
6
CONTINUOUS
10
1.76228
20
-2.77686
11
1.75939
21
-2.79312
0
LINE
8
BLACK
6
CONTINUOUS
10
1.75939
20
-2.79312
11
1.76005
21
-2.80213
0
LINE
8
BLACK
6
CONTINUOUS
10
1.76005
20
-2.80213
11
1.76533
21
-2.81747
0
LINE
8
BLACK
6
CONTINUOUS
10
1.76533
20
-2.81747
11
1.77631
21
-2.83105
0
LINE
8
BLACK
6
CONTINUOUS
10
1.77631
20
-2.83105
11
1.7787
21
-2.833
0
LINE
8
BLACK
6
CONTINUOUS
10
1.7787
20
-2.833
11
1.79021
21
-2.83821
0
LINE
8
BLACK
6
CONTINUOUS
10
1.79021
20
-2.83821
11
1.80423
21
-2.84034
0
LINE
8
BLACK
6
CONTINUOUS
10
1.80423
20
-2.84034
11
1.81839
21
-2.83922
0
LINE
8
BLACK
6
CONTINUOUS
10
1.81839
20
-2.83922
11
1.8303
21
-2.8347
0
LINE
8
BLACK
6
CONTINUOUS
10
1.8303
20
-2.8347
11
1.83615
21
-2.83038
0
LINE
8
BLACK
6
CONTINUOUS
10
1.83615
20
-2.83038
11
1.84618
21
-2.8183
0
LINE
8
BLACK
6
CONTINUOUS
10
1.84618
20
-2.8183
11
1.85151
21
-2.80419
0
LINE
8
BLACK
6
CONTINUOUS
10
1.85151
20
-2.80419
11
1.8522
21
-2.78936
0
LINE
8
BLACK
6
CONTINUOUS
10
1.8522
20
-2.78936
11
1.8483
21
-2.77508
  0
ENDSEC
  0
EOF
