%TF.GenerationSoftware,KiCad,Pcbnew,7.0.1-0*%
%TF.CreationDate,2023-04-20T22:45:17-04:00*%
%TF.ProjectId,Mousy,4d6f7573-792e-46b6-9963-61645f706362,rev?*%
%TF.SameCoordinates,Original*%
%TF.FileFunction,Drillmap*%
%TF.FilePolarity,Positive*%
%FSLAX45Y45*%
G04 Gerber Fmt 4.5, Leading zero omitted, Abs format (unit mm)*
G04 Created by KiCad (PCBNEW 7.0.1-0) date 2023-04-20 22:45:17*
%MOMM*%
%LPD*%
G01*
G04 APERTURE LIST*
%ADD10C,0.100000*%
%ADD11C,0.200000*%
G04 APERTURE END LIST*
D10*
X17754600Y-5461000D02*
X20878800Y-5461000D01*
X20878800Y-9093200D01*
X17754600Y-9093200D01*
X17754600Y-5461000D01*
D11*
X17997219Y-9410724D02*
X17997219Y-9210724D01*
X17997219Y-9210724D02*
X18044838Y-9210724D01*
X18044838Y-9210724D02*
X18073410Y-9220248D01*
X18073410Y-9220248D02*
X18092457Y-9239295D01*
X18092457Y-9239295D02*
X18101981Y-9258343D01*
X18101981Y-9258343D02*
X18111505Y-9296438D01*
X18111505Y-9296438D02*
X18111505Y-9325010D01*
X18111505Y-9325010D02*
X18101981Y-9363105D01*
X18101981Y-9363105D02*
X18092457Y-9382152D01*
X18092457Y-9382152D02*
X18073410Y-9401200D01*
X18073410Y-9401200D02*
X18044838Y-9410724D01*
X18044838Y-9410724D02*
X17997219Y-9410724D01*
X18197219Y-9410724D02*
X18197219Y-9277390D01*
X18197219Y-9315486D02*
X18206743Y-9296438D01*
X18206743Y-9296438D02*
X18216267Y-9286914D01*
X18216267Y-9286914D02*
X18235314Y-9277390D01*
X18235314Y-9277390D02*
X18254362Y-9277390D01*
X18321029Y-9410724D02*
X18321029Y-9277390D01*
X18321029Y-9210724D02*
X18311505Y-9220248D01*
X18311505Y-9220248D02*
X18321029Y-9229771D01*
X18321029Y-9229771D02*
X18330552Y-9220248D01*
X18330552Y-9220248D02*
X18321029Y-9210724D01*
X18321029Y-9210724D02*
X18321029Y-9229771D01*
X18444838Y-9410724D02*
X18425790Y-9401200D01*
X18425790Y-9401200D02*
X18416267Y-9382152D01*
X18416267Y-9382152D02*
X18416267Y-9210724D01*
X18549600Y-9410724D02*
X18530552Y-9401200D01*
X18530552Y-9401200D02*
X18521029Y-9382152D01*
X18521029Y-9382152D02*
X18521029Y-9210724D01*
X18778171Y-9410724D02*
X18778171Y-9210724D01*
X18778171Y-9210724D02*
X18844838Y-9353581D01*
X18844838Y-9353581D02*
X18911505Y-9210724D01*
X18911505Y-9210724D02*
X18911505Y-9410724D01*
X19092457Y-9410724D02*
X19092457Y-9305962D01*
X19092457Y-9305962D02*
X19082933Y-9286914D01*
X19082933Y-9286914D02*
X19063886Y-9277390D01*
X19063886Y-9277390D02*
X19025790Y-9277390D01*
X19025790Y-9277390D02*
X19006743Y-9286914D01*
X19092457Y-9401200D02*
X19073410Y-9410724D01*
X19073410Y-9410724D02*
X19025790Y-9410724D01*
X19025790Y-9410724D02*
X19006743Y-9401200D01*
X19006743Y-9401200D02*
X18997219Y-9382152D01*
X18997219Y-9382152D02*
X18997219Y-9363105D01*
X18997219Y-9363105D02*
X19006743Y-9344057D01*
X19006743Y-9344057D02*
X19025790Y-9334533D01*
X19025790Y-9334533D02*
X19073410Y-9334533D01*
X19073410Y-9334533D02*
X19092457Y-9325010D01*
X19187695Y-9277390D02*
X19187695Y-9477390D01*
X19187695Y-9286914D02*
X19206743Y-9277390D01*
X19206743Y-9277390D02*
X19244838Y-9277390D01*
X19244838Y-9277390D02*
X19263886Y-9286914D01*
X19263886Y-9286914D02*
X19273410Y-9296438D01*
X19273410Y-9296438D02*
X19282933Y-9315486D01*
X19282933Y-9315486D02*
X19282933Y-9372629D01*
X19282933Y-9372629D02*
X19273410Y-9391676D01*
X19273410Y-9391676D02*
X19263886Y-9401200D01*
X19263886Y-9401200D02*
X19244838Y-9410724D01*
X19244838Y-9410724D02*
X19206743Y-9410724D01*
X19206743Y-9410724D02*
X19187695Y-9401200D01*
X19368648Y-9391676D02*
X19378171Y-9401200D01*
X19378171Y-9401200D02*
X19368648Y-9410724D01*
X19368648Y-9410724D02*
X19359124Y-9401200D01*
X19359124Y-9401200D02*
X19368648Y-9391676D01*
X19368648Y-9391676D02*
X19368648Y-9410724D01*
X19368648Y-9286914D02*
X19378171Y-9296438D01*
X19378171Y-9296438D02*
X19368648Y-9305962D01*
X19368648Y-9305962D02*
X19359124Y-9296438D01*
X19359124Y-9296438D02*
X19368648Y-9286914D01*
X19368648Y-9286914D02*
X19368648Y-9305962D01*
M02*
