%TF.GenerationSoftware,KiCad,Pcbnew,7.0.1-0*%
%TF.CreationDate,2023-04-20T22:45:14-04:00*%
%TF.ProjectId,Mousy,4d6f7573-792e-46b6-9963-61645f706362,rev?*%
%TF.SameCoordinates,Original*%
%TF.FileFunction,Copper,L2,Bot*%
%TF.FilePolarity,Positive*%
%FSLAX46Y46*%
G04 Gerber Fmt 4.6, Leading zero omitted, Abs format (unit mm)*
G04 Created by KiCad (PCBNEW 7.0.1-0) date 2023-04-20 22:45:14*
%MOMM*%
%LPD*%
G01*
G04 APERTURE LIST*
%TA.AperFunction,ComponentPad*%
%ADD10C,1.498600*%
%TD*%
%TA.AperFunction,ComponentPad*%
%ADD11C,4.048000*%
%TD*%
%TA.AperFunction,ViaPad*%
%ADD12C,0.800000*%
%TD*%
%TA.AperFunction,Conductor*%
%ADD13C,0.400000*%
%TD*%
%TA.AperFunction,Conductor*%
%ADD14C,0.250000*%
%TD*%
G04 APERTURE END LIST*
D10*
%TO.P,J2,1,1*%
%TO.N,/MOUSE_ID*%
X198784999Y-64920000D03*
%TO.P,J2,2,2*%
%TO.N,VCC*%
X196015000Y-64920000D03*
%TO.P,J2,3,3*%
%TO.N,GND*%
X193245000Y-64920000D03*
%TO.P,J2,4,4*%
%TO.N,/XDIR_IN*%
X190475000Y-64920000D03*
%TO.P,J2,5,5*%
%TO.N,/XMOVE_IN*%
X187705001Y-64920000D03*
%TO.P,J2,6,6*%
%TO.N,unconnected-(J2-Pad6)*%
X197400001Y-62080001D03*
%TO.P,J2,7,7*%
%TO.N,/BUTTON*%
X194630001Y-62080001D03*
%TO.P,J2,8,8*%
%TO.N,/YDIR_IN*%
X191860002Y-62080001D03*
%TO.P,J2,9,9*%
%TO.N,/YMOVE_IN*%
X189090002Y-62080001D03*
D11*
%TO.P,J2,10*%
%TO.N,N/C*%
X180750000Y-63500000D03*
%TO.P,J2,11*%
X205740000Y-63500000D03*
%TD*%
D10*
%TO.P,J1,1,1*%
%TO.N,/MOUSE_ID*%
X187500001Y-80520002D03*
%TO.P,J1,2,2*%
%TO.N,VCC*%
X190270000Y-80520002D03*
%TO.P,J1,3,3*%
%TO.N,GND*%
X193040000Y-80520002D03*
%TO.P,J1,4,4*%
%TO.N,/XDIR_OUT*%
X195810000Y-80520002D03*
%TO.P,J1,5,5*%
%TO.N,/XMOVE_OUT*%
X198579999Y-80520002D03*
%TO.P,J1,6,6*%
%TO.N,unconnected-(J1-Pad6)*%
X188884999Y-83360001D03*
%TO.P,J1,7,7*%
%TO.N,/BUTTON*%
X191654999Y-83360001D03*
%TO.P,J1,8,8*%
%TO.N,/YDIR_OUT*%
X194424998Y-83360001D03*
%TO.P,J1,9,9*%
%TO.N,/YMOVE_OUT*%
X197194998Y-83360001D03*
D11*
%TO.P,J1,10*%
%TO.N,N/C*%
X205535000Y-81940002D03*
%TO.P,J1,11*%
X180545000Y-81940002D03*
%TD*%
D12*
%TO.N,GND*%
X190754000Y-63246000D03*
X190754000Y-58674000D03*
%TO.N,VCC*%
X196342000Y-72898000D03*
%TO.N,GND*%
X190246000Y-85344000D03*
X191770000Y-78232000D03*
%TO.N,/XDIR_OUT*%
X190500000Y-68580000D03*
%TO.N,/YDIR_OUT*%
X195072000Y-73660000D03*
%TD*%
D13*
%TO.N,GND*%
X190710702Y-63202702D02*
X190710702Y-58717298D01*
X190754000Y-63246000D02*
X190710702Y-63202702D01*
X190710702Y-58717298D02*
X190754000Y-58674000D01*
%TO.N,VCC*%
X190470700Y-66069300D02*
X187976057Y-68563943D01*
X196015000Y-72571000D02*
X196342000Y-72898000D01*
X194865700Y-66069300D02*
X190470700Y-66069300D01*
X196015000Y-64920000D02*
X194865700Y-66069300D01*
X187976057Y-68563943D02*
X187976057Y-78226059D01*
X196015000Y-64920000D02*
X196015000Y-72571000D01*
X187976057Y-78226059D02*
X190270000Y-80520002D01*
%TO.N,GND*%
X190246000Y-83143644D02*
X190246000Y-85344000D01*
X191770000Y-81619644D02*
X190246000Y-83143644D01*
X191770000Y-78232000D02*
X191770000Y-81619644D01*
D14*
%TO.N,/XDIR_OUT*%
X190500000Y-68580000D02*
X190500000Y-75210002D01*
X190500000Y-75210002D02*
X195810000Y-80520002D01*
%TO.N,/BUTTON*%
X200406000Y-63754000D02*
X200660000Y-64008000D01*
X194630001Y-62080001D02*
X196304000Y-63754000D01*
X196304000Y-63754000D02*
X200406000Y-63754000D01*
X193384998Y-85090000D02*
X191654999Y-83360001D01*
X200660000Y-64008000D02*
X200660000Y-85090000D01*
X200660000Y-85090000D02*
X193384998Y-85090000D01*
%TO.N,/YDIR_OUT*%
X194489291Y-83360001D02*
X194424998Y-83360001D01*
X196884300Y-80964992D02*
X194489291Y-83360001D01*
X194310000Y-77470000D02*
X196884300Y-80044300D01*
X196884300Y-80044300D02*
X196884300Y-80964992D01*
X195072000Y-73660000D02*
X194310000Y-74422000D01*
X194310000Y-74422000D02*
X194310000Y-77470000D01*
%TD*%
M02*
