%TF.GenerationSoftware,KiCad,Pcbnew,7.0.1-0*%
%TF.CreationDate,2023-04-20T21:53:40-04:00*%
%TF.ProjectId,Mousy,4d6f7573-792e-46b6-9963-61645f706362,rev?*%
%TF.SameCoordinates,Original*%
%TF.FileFunction,Legend,Top*%
%TF.FilePolarity,Positive*%
%FSLAX46Y46*%
G04 Gerber Fmt 4.6, Leading zero omitted, Abs format (unit mm)*
G04 Created by KiCad (PCBNEW 7.0.1-0) date 2023-04-20 21:53:40*
%MOMM*%
%LPD*%
G01*
G04 APERTURE LIST*
G04 Aperture macros list*
%AMRoundRect*
0 Rectangle with rounded corners*
0 $1 Rounding radius*
0 $2 $3 $4 $5 $6 $7 $8 $9 X,Y pos of 4 corners*
0 Add a 4 corners polygon primitive as box body*
4,1,4,$2,$3,$4,$5,$6,$7,$8,$9,$2,$3,0*
0 Add four circle primitives for the rounded corners*
1,1,$1+$1,$2,$3*
1,1,$1+$1,$4,$5*
1,1,$1+$1,$6,$7*
1,1,$1+$1,$8,$9*
0 Add four rect primitives between the rounded corners*
20,1,$1+$1,$2,$3,$4,$5,0*
20,1,$1+$1,$4,$5,$6,$7,0*
20,1,$1+$1,$6,$7,$8,$9,0*
20,1,$1+$1,$8,$9,$2,$3,0*%
G04 Aperture macros list end*
%ADD10C,0.150000*%
%ADD11C,0.152400*%
%ADD12C,0.120000*%
%ADD13C,4.048000*%
%ADD14C,1.498600*%
%ADD15R,0.508000X1.676400*%
%ADD16RoundRect,0.250000X0.475000X-0.337500X0.475000X0.337500X-0.475000X0.337500X-0.475000X-0.337500X0*%
G04 APERTURE END LIST*
D10*
%TO.C,J2*%
X192911666Y-53462621D02*
X192911666Y-54176906D01*
X192911666Y-54176906D02*
X192864047Y-54319763D01*
X192864047Y-54319763D02*
X192768809Y-54415002D01*
X192768809Y-54415002D02*
X192625952Y-54462621D01*
X192625952Y-54462621D02*
X192530714Y-54462621D01*
X193340238Y-53557859D02*
X193387857Y-53510240D01*
X193387857Y-53510240D02*
X193483095Y-53462621D01*
X193483095Y-53462621D02*
X193721190Y-53462621D01*
X193721190Y-53462621D02*
X193816428Y-53510240D01*
X193816428Y-53510240D02*
X193864047Y-53557859D01*
X193864047Y-53557859D02*
X193911666Y-53653097D01*
X193911666Y-53653097D02*
X193911666Y-53748335D01*
X193911666Y-53748335D02*
X193864047Y-53891192D01*
X193864047Y-53891192D02*
X193292619Y-54462621D01*
X193292619Y-54462621D02*
X193911666Y-54462621D01*
X201327143Y-68026619D02*
X201327143Y-67026619D01*
X201327143Y-67026619D02*
X201660476Y-67740904D01*
X201660476Y-67740904D02*
X201993809Y-67026619D01*
X201993809Y-67026619D02*
X201993809Y-68026619D01*
X202612857Y-68026619D02*
X202517619Y-67979000D01*
X202517619Y-67979000D02*
X202470000Y-67931380D01*
X202470000Y-67931380D02*
X202422381Y-67836142D01*
X202422381Y-67836142D02*
X202422381Y-67550428D01*
X202422381Y-67550428D02*
X202470000Y-67455190D01*
X202470000Y-67455190D02*
X202517619Y-67407571D01*
X202517619Y-67407571D02*
X202612857Y-67359952D01*
X202612857Y-67359952D02*
X202755714Y-67359952D01*
X202755714Y-67359952D02*
X202850952Y-67407571D01*
X202850952Y-67407571D02*
X202898571Y-67455190D01*
X202898571Y-67455190D02*
X202946190Y-67550428D01*
X202946190Y-67550428D02*
X202946190Y-67836142D01*
X202946190Y-67836142D02*
X202898571Y-67931380D01*
X202898571Y-67931380D02*
X202850952Y-67979000D01*
X202850952Y-67979000D02*
X202755714Y-68026619D01*
X202755714Y-68026619D02*
X202612857Y-68026619D01*
X203803333Y-67359952D02*
X203803333Y-68026619D01*
X203374762Y-67359952D02*
X203374762Y-67883761D01*
X203374762Y-67883761D02*
X203422381Y-67979000D01*
X203422381Y-67979000D02*
X203517619Y-68026619D01*
X203517619Y-68026619D02*
X203660476Y-68026619D01*
X203660476Y-68026619D02*
X203755714Y-67979000D01*
X203755714Y-67979000D02*
X203803333Y-67931380D01*
X204231905Y-67979000D02*
X204327143Y-68026619D01*
X204327143Y-68026619D02*
X204517619Y-68026619D01*
X204517619Y-68026619D02*
X204612857Y-67979000D01*
X204612857Y-67979000D02*
X204660476Y-67883761D01*
X204660476Y-67883761D02*
X204660476Y-67836142D01*
X204660476Y-67836142D02*
X204612857Y-67740904D01*
X204612857Y-67740904D02*
X204517619Y-67693285D01*
X204517619Y-67693285D02*
X204374762Y-67693285D01*
X204374762Y-67693285D02*
X204279524Y-67645666D01*
X204279524Y-67645666D02*
X204231905Y-67550428D01*
X204231905Y-67550428D02*
X204231905Y-67502809D01*
X204231905Y-67502809D02*
X204279524Y-67407571D01*
X204279524Y-67407571D02*
X204374762Y-67359952D01*
X204374762Y-67359952D02*
X204517619Y-67359952D01*
X204517619Y-67359952D02*
X204612857Y-67407571D01*
X205470000Y-67979000D02*
X205374762Y-68026619D01*
X205374762Y-68026619D02*
X205184286Y-68026619D01*
X205184286Y-68026619D02*
X205089048Y-67979000D01*
X205089048Y-67979000D02*
X205041429Y-67883761D01*
X205041429Y-67883761D02*
X205041429Y-67502809D01*
X205041429Y-67502809D02*
X205089048Y-67407571D01*
X205089048Y-67407571D02*
X205184286Y-67359952D01*
X205184286Y-67359952D02*
X205374762Y-67359952D01*
X205374762Y-67359952D02*
X205470000Y-67407571D01*
X205470000Y-67407571D02*
X205517619Y-67502809D01*
X205517619Y-67502809D02*
X205517619Y-67598047D01*
X205517619Y-67598047D02*
X205041429Y-67693285D01*
X205708096Y-68121857D02*
X206470000Y-68121857D01*
X206708096Y-68026619D02*
X206708096Y-67359952D01*
X206708096Y-67026619D02*
X206660477Y-67074238D01*
X206660477Y-67074238D02*
X206708096Y-67121857D01*
X206708096Y-67121857D02*
X206755715Y-67074238D01*
X206755715Y-67074238D02*
X206708096Y-67026619D01*
X206708096Y-67026619D02*
X206708096Y-67121857D01*
X207184286Y-67359952D02*
X207184286Y-68026619D01*
X207184286Y-67455190D02*
X207231905Y-67407571D01*
X207231905Y-67407571D02*
X207327143Y-67359952D01*
X207327143Y-67359952D02*
X207470000Y-67359952D01*
X207470000Y-67359952D02*
X207565238Y-67407571D01*
X207565238Y-67407571D02*
X207612857Y-67502809D01*
X207612857Y-67502809D02*
X207612857Y-68026619D01*
%TO.C,U1*%
X196117380Y-72644095D02*
X195307857Y-72644095D01*
X195307857Y-72644095D02*
X195212619Y-72691714D01*
X195212619Y-72691714D02*
X195165000Y-72739333D01*
X195165000Y-72739333D02*
X195117380Y-72834571D01*
X195117380Y-72834571D02*
X195117380Y-73025047D01*
X195117380Y-73025047D02*
X195165000Y-73120285D01*
X195165000Y-73120285D02*
X195212619Y-73167904D01*
X195212619Y-73167904D02*
X195307857Y-73215523D01*
X195307857Y-73215523D02*
X196117380Y-73215523D01*
X195117380Y-74215523D02*
X195117380Y-73644095D01*
X195117380Y-73929809D02*
X196117380Y-73929809D01*
X196117380Y-73929809D02*
X195974523Y-73834571D01*
X195974523Y-73834571D02*
X195879285Y-73739333D01*
X195879285Y-73739333D02*
X195831666Y-73644095D01*
%TO.C,C1*%
X204075380Y-73826666D02*
X204123000Y-73874285D01*
X204123000Y-73874285D02*
X204170619Y-74017142D01*
X204170619Y-74017142D02*
X204170619Y-74112380D01*
X204170619Y-74112380D02*
X204123000Y-74255237D01*
X204123000Y-74255237D02*
X204027761Y-74350475D01*
X204027761Y-74350475D02*
X203932523Y-74398094D01*
X203932523Y-74398094D02*
X203742047Y-74445713D01*
X203742047Y-74445713D02*
X203599190Y-74445713D01*
X203599190Y-74445713D02*
X203408714Y-74398094D01*
X203408714Y-74398094D02*
X203313476Y-74350475D01*
X203313476Y-74350475D02*
X203218238Y-74255237D01*
X203218238Y-74255237D02*
X203170619Y-74112380D01*
X203170619Y-74112380D02*
X203170619Y-74017142D01*
X203170619Y-74017142D02*
X203218238Y-73874285D01*
X203218238Y-73874285D02*
X203265857Y-73826666D01*
X204170619Y-72874285D02*
X204170619Y-73445713D01*
X204170619Y-73159999D02*
X203170619Y-73159999D01*
X203170619Y-73159999D02*
X203313476Y-73255237D01*
X203313476Y-73255237D02*
X203408714Y-73350475D01*
X203408714Y-73350475D02*
X203456333Y-73445713D01*
%TO.C,J1*%
X193373333Y-91977380D02*
X193373333Y-91263095D01*
X193373333Y-91263095D02*
X193420952Y-91120238D01*
X193420952Y-91120238D02*
X193516190Y-91025000D01*
X193516190Y-91025000D02*
X193659047Y-90977380D01*
X193659047Y-90977380D02*
X193754285Y-90977380D01*
X192373333Y-90977380D02*
X192944761Y-90977380D01*
X192659047Y-90977380D02*
X192659047Y-91977380D01*
X192659047Y-91977380D02*
X192754285Y-91834523D01*
X192754285Y-91834523D02*
X192849523Y-91739285D01*
X192849523Y-91739285D02*
X192944761Y-91691666D01*
X200573142Y-77932619D02*
X200573142Y-76932619D01*
X200573142Y-76932619D02*
X200906475Y-77646904D01*
X200906475Y-77646904D02*
X201239808Y-76932619D01*
X201239808Y-76932619D02*
X201239808Y-77932619D01*
X201858856Y-77932619D02*
X201763618Y-77885000D01*
X201763618Y-77885000D02*
X201715999Y-77837380D01*
X201715999Y-77837380D02*
X201668380Y-77742142D01*
X201668380Y-77742142D02*
X201668380Y-77456428D01*
X201668380Y-77456428D02*
X201715999Y-77361190D01*
X201715999Y-77361190D02*
X201763618Y-77313571D01*
X201763618Y-77313571D02*
X201858856Y-77265952D01*
X201858856Y-77265952D02*
X202001713Y-77265952D01*
X202001713Y-77265952D02*
X202096951Y-77313571D01*
X202096951Y-77313571D02*
X202144570Y-77361190D01*
X202144570Y-77361190D02*
X202192189Y-77456428D01*
X202192189Y-77456428D02*
X202192189Y-77742142D01*
X202192189Y-77742142D02*
X202144570Y-77837380D01*
X202144570Y-77837380D02*
X202096951Y-77885000D01*
X202096951Y-77885000D02*
X202001713Y-77932619D01*
X202001713Y-77932619D02*
X201858856Y-77932619D01*
X203049332Y-77265952D02*
X203049332Y-77932619D01*
X202620761Y-77265952D02*
X202620761Y-77789761D01*
X202620761Y-77789761D02*
X202668380Y-77885000D01*
X202668380Y-77885000D02*
X202763618Y-77932619D01*
X202763618Y-77932619D02*
X202906475Y-77932619D01*
X202906475Y-77932619D02*
X203001713Y-77885000D01*
X203001713Y-77885000D02*
X203049332Y-77837380D01*
X203477904Y-77885000D02*
X203573142Y-77932619D01*
X203573142Y-77932619D02*
X203763618Y-77932619D01*
X203763618Y-77932619D02*
X203858856Y-77885000D01*
X203858856Y-77885000D02*
X203906475Y-77789761D01*
X203906475Y-77789761D02*
X203906475Y-77742142D01*
X203906475Y-77742142D02*
X203858856Y-77646904D01*
X203858856Y-77646904D02*
X203763618Y-77599285D01*
X203763618Y-77599285D02*
X203620761Y-77599285D01*
X203620761Y-77599285D02*
X203525523Y-77551666D01*
X203525523Y-77551666D02*
X203477904Y-77456428D01*
X203477904Y-77456428D02*
X203477904Y-77408809D01*
X203477904Y-77408809D02*
X203525523Y-77313571D01*
X203525523Y-77313571D02*
X203620761Y-77265952D01*
X203620761Y-77265952D02*
X203763618Y-77265952D01*
X203763618Y-77265952D02*
X203858856Y-77313571D01*
X204715999Y-77885000D02*
X204620761Y-77932619D01*
X204620761Y-77932619D02*
X204430285Y-77932619D01*
X204430285Y-77932619D02*
X204335047Y-77885000D01*
X204335047Y-77885000D02*
X204287428Y-77789761D01*
X204287428Y-77789761D02*
X204287428Y-77408809D01*
X204287428Y-77408809D02*
X204335047Y-77313571D01*
X204335047Y-77313571D02*
X204430285Y-77265952D01*
X204430285Y-77265952D02*
X204620761Y-77265952D01*
X204620761Y-77265952D02*
X204715999Y-77313571D01*
X204715999Y-77313571D02*
X204763618Y-77408809D01*
X204763618Y-77408809D02*
X204763618Y-77504047D01*
X204763618Y-77504047D02*
X204287428Y-77599285D01*
X204954095Y-78027857D02*
X205715999Y-78027857D01*
X206096952Y-77932619D02*
X206001714Y-77885000D01*
X206001714Y-77885000D02*
X205954095Y-77837380D01*
X205954095Y-77837380D02*
X205906476Y-77742142D01*
X205906476Y-77742142D02*
X205906476Y-77456428D01*
X205906476Y-77456428D02*
X205954095Y-77361190D01*
X205954095Y-77361190D02*
X206001714Y-77313571D01*
X206001714Y-77313571D02*
X206096952Y-77265952D01*
X206096952Y-77265952D02*
X206239809Y-77265952D01*
X206239809Y-77265952D02*
X206335047Y-77313571D01*
X206335047Y-77313571D02*
X206382666Y-77361190D01*
X206382666Y-77361190D02*
X206430285Y-77456428D01*
X206430285Y-77456428D02*
X206430285Y-77742142D01*
X206430285Y-77742142D02*
X206382666Y-77837380D01*
X206382666Y-77837380D02*
X206335047Y-77885000D01*
X206335047Y-77885000D02*
X206239809Y-77932619D01*
X206239809Y-77932619D02*
X206096952Y-77932619D01*
X207287428Y-77265952D02*
X207287428Y-77932619D01*
X206858857Y-77265952D02*
X206858857Y-77789761D01*
X206858857Y-77789761D02*
X206906476Y-77885000D01*
X206906476Y-77885000D02*
X207001714Y-77932619D01*
X207001714Y-77932619D02*
X207144571Y-77932619D01*
X207144571Y-77932619D02*
X207239809Y-77885000D01*
X207239809Y-77885000D02*
X207287428Y-77837380D01*
X207620762Y-77265952D02*
X208001714Y-77265952D01*
X207763619Y-76932619D02*
X207763619Y-77789761D01*
X207763619Y-77789761D02*
X207811238Y-77885000D01*
X207811238Y-77885000D02*
X207906476Y-77932619D01*
X207906476Y-77932619D02*
X208001714Y-77932619D01*
D11*
%TO.C,J2*%
X208904100Y-66623802D02*
X208904100Y-53873002D01*
X208904100Y-53873002D02*
X177585900Y-53873002D01*
X207391000Y-47777002D02*
X207391000Y-53873002D01*
X204089000Y-53873002D02*
X204089000Y-47777002D01*
X204089000Y-47777002D02*
X207391000Y-47777002D01*
X201830200Y-54127002D02*
X201830200Y-47777002D01*
X201830200Y-47777002D02*
X184659800Y-47777002D01*
X184659800Y-54127002D02*
X201830200Y-54127002D01*
X184659800Y-47777002D02*
X184659800Y-54127002D01*
X182401000Y-47777002D02*
X182401000Y-53873002D01*
X179099000Y-53873002D02*
X179099000Y-47777002D01*
X179099000Y-47777002D02*
X182401000Y-47777002D01*
X177585900Y-66623802D02*
X208904100Y-66623802D01*
X177585900Y-53873002D02*
X177585900Y-66623802D01*
%TO.C,U1*%
G36*
X191960500Y-77292200D02*
G01*
X191579500Y-77292200D01*
X191579500Y-77038200D01*
X191960500Y-77038200D01*
X191960500Y-77292200D01*
G37*
X188544200Y-71412100D02*
X188544200Y-75653900D01*
X197535800Y-75653900D02*
X197535800Y-71412100D01*
D12*
%TO.C,C1*%
X199925000Y-73921252D02*
X199925000Y-73398748D01*
X201395000Y-73921252D02*
X201395000Y-73398748D01*
D11*
%TO.C,J1*%
X208699100Y-91567000D02*
X208699100Y-78816200D01*
X208699100Y-78816200D02*
X177380900Y-78816200D01*
X207186000Y-97663000D02*
X203884000Y-97663000D01*
X207186000Y-91567000D02*
X207186000Y-97663000D01*
X203884000Y-97663000D02*
X203884000Y-91567000D01*
X201625200Y-97663000D02*
X201625200Y-91313000D01*
X201625200Y-91313000D02*
X184454800Y-91313000D01*
X184454800Y-97663000D02*
X201625200Y-97663000D01*
X184454800Y-91313000D02*
X184454800Y-97663000D01*
X182196000Y-97663000D02*
X178894000Y-97663000D01*
X182196000Y-91567000D02*
X182196000Y-97663000D01*
X178894000Y-97663000D02*
X178894000Y-91567000D01*
X177380900Y-91567000D02*
X208699100Y-91567000D01*
X177380900Y-78816200D02*
X177380900Y-91567000D01*
%TD*%
%LPC*%
D13*
%TO.C,J2*%
X205740000Y-63500000D03*
X180750000Y-63500000D03*
D14*
X189090002Y-62080001D03*
X191860002Y-62080001D03*
X194630001Y-62080001D03*
X197400001Y-62080001D03*
X187705001Y-64920000D03*
X190475000Y-64920000D03*
X193245000Y-64920000D03*
X196015000Y-64920000D03*
X198784999Y-64920000D03*
%TD*%
D15*
%TO.C,U1*%
X196850000Y-71120000D03*
X195580000Y-71120000D03*
X194310000Y-71120000D03*
X193040000Y-71120000D03*
X191770000Y-71120000D03*
X190500000Y-71120000D03*
X189230000Y-71120000D03*
X189230000Y-75946000D03*
X190500000Y-75946000D03*
X191770000Y-75946000D03*
X193040000Y-75946000D03*
X194310000Y-75946000D03*
X195580000Y-75946000D03*
X196850000Y-75946000D03*
%TD*%
D16*
%TO.C,C1*%
X200660000Y-74697500D03*
X200660000Y-72622500D03*
%TD*%
D14*
%TO.C,J1*%
X187500001Y-80520002D03*
X190270000Y-80520002D03*
X193040000Y-80520002D03*
X195810000Y-80520002D03*
X198579999Y-80520002D03*
X188884999Y-83360001D03*
X191654999Y-83360001D03*
X194424998Y-83360001D03*
X197194998Y-83360001D03*
D13*
X205535000Y-81940002D03*
X180545000Y-81940002D03*
%TD*%
M02*
