M48
; DRILL file {KiCad 7.0.1-0} date 2023 April 20, Thursday 21:53:43
; FORMAT={-:-/ absolute / inch / decimal}
; #@! TF.CreationDate,2023-04-20T21:53:43-04:00
; #@! TF.GenerationSoftware,Kicad,Pcbnew,7.0.1-0
; #@! TF.FileFunction,Plated,1,2,PTH
FMAT,2
INCH
; #@! TA.AperFunction,Plated,PTH,ViaDrill
T1C0.0157
; #@! TA.AperFunction,Plated,PTH,ComponentDrill
T2C0.0390
; #@! TA.AperFunction,Plated,PTH,ComponentDrill
T3C0.1200
%
G90
G05
T1
X7.49Y-3.36
X7.5Y-2.7
X7.55Y-3.08
X7.68Y-2.9
X7.73Y-2.87
T2
X7.3819Y-3.1701
X7.39Y-2.5559
X7.4364Y-3.2819
X7.4445Y-2.4441
X7.4909Y-3.1701
X7.499Y-2.5559
X7.5455Y-3.2819
X7.5535Y-2.4441
X7.6Y-3.1701
X7.6081Y-2.5559
X7.6545Y-3.2819
X7.6626Y-2.4441
X7.7091Y-3.1701
X7.7171Y-2.5559
X7.7636Y-3.2819
X7.7717Y-2.4441
X7.8181Y-3.1701
X7.8262Y-2.5559
T3
X7.1081Y-3.226
X7.1161Y-2.5
X8.0919Y-3.226
X8.1Y-2.5
T0
M30
